<?xml version="1.0" encoding="UTF-8" standalone="no"?>
<svg
   xmlns:dc="http://purl.org/dc/elements/1.1/"
   xmlns:cc="http://creativecommons.org/ns#"
   xmlns:rdf="http://www.w3.org/1999/02/22-rdf-syntax-ns#"
   xmlns:svg="http://www.w3.org/2000/svg"
   xmlns="http://www.w3.org/2000/svg"
   xmlns:sodipodi="http://sodipodi.sourceforge.net/DTD/sodipodi-0.dtd"
   xmlns:inkscape="http://www.inkscape.org/namespaces/inkscape"
   version="1.1"
   id="svg833"
   xml:space="preserve"
   width="574.23999"
   height="514.08002"
   viewBox="0 0 574.23999 514.08002"
   sodipodi:docname="assign().svg"
   inkscape:version="1.0.1 (3bc2e813f5, 2020-09-07)"><metadata
     id="metadata839"><rdf:RDF><cc:Work
         rdf:about=""><dc:format>image/svg+xml</dc:format><dc:type
           rdf:resource="http://purl.org/dc/dcmitype/StillImage" /><dc:title></dc:title></cc:Work></rdf:RDF></metadata><defs
     id="defs837"><clipPath
       clipPathUnits="userSpaceOnUse"
       id="clipPath849"><path
         d="M 0,1.2207e-4 H 960 V 540.00012 H 0 Z"
         clip-rule="evenodd"
         id="path847" /></clipPath><clipPath
       clipPathUnits="userSpaceOnUse"
       id="clipPath861"><path
         d="M 1.4305e-5,0 H 960.00001 V 540 H 1.4305e-5 Z"
         clip-rule="evenodd"
         id="path859" /></clipPath><clipPath
       clipPathUnits="userSpaceOnUse"
       id="clipPath873"><path
         d="M 1.4305e-5,0 H 960.00001 V 540 H 1.4305e-5 Z"
         clip-rule="evenodd"
         id="path871" /></clipPath><clipPath
       clipPathUnits="userSpaceOnUse"
       id="clipPath885"><path
         d="M 1.4305e-5,0 H 960.00001 V 540 H 1.4305e-5 Z"
         clip-rule="evenodd"
         id="path883" /></clipPath><clipPath
       clipPathUnits="userSpaceOnUse"
       id="clipPath897"><path
         d="M 3.0518e-5,540 H 960 V 2.4414e-4 L 4.5776e-5,1.8311e-4"
         clip-rule="evenodd"
         id="path895" /></clipPath><clipPath
       clipPathUnits="userSpaceOnUse"
       id="clipPath909"><path
         d="M 1.4305e-5,0 H 960.00001 V 540 H 1.4305e-5 Z"
         clip-rule="evenodd"
         id="path907" /></clipPath><clipPath
       clipPathUnits="userSpaceOnUse"
       id="clipPath921"><path
         d="M 1.4305e-5,0 H 960.00001 V 540 H 1.4305e-5 Z"
         clip-rule="evenodd"
         id="path919" /></clipPath><clipPath
       clipPathUnits="userSpaceOnUse"
       id="clipPath933"><path
         d="M 1.4305e-5,0 H 960.00001 V 540 H 1.4305e-5 Z"
         clip-rule="evenodd"
         id="path931" /></clipPath><clipPath
       clipPathUnits="userSpaceOnUse"
       id="clipPath945"><path
         d="M 1.4305e-5,0 H 960.00001 V 540 H 1.4305e-5 Z"
         clip-rule="evenodd"
         id="path943" /></clipPath><clipPath
       clipPathUnits="userSpaceOnUse"
       id="clipPath957"><path
         d="M 1.4305e-5,0 H 960.00001 V 540 H 1.4305e-5 Z"
         clip-rule="evenodd"
         id="path955" /></clipPath><clipPath
       clipPathUnits="userSpaceOnUse"
       id="clipPath969"><path
         d="M 1.4305e-5,0 H 960.00001 V 540 H 1.4305e-5 Z"
         clip-rule="evenodd"
         id="path967" /></clipPath><clipPath
       clipPathUnits="userSpaceOnUse"
       id="clipPath981"><path
         d="M 1.4305e-5,0 H 960.00001 V 540 H 1.4305e-5 Z"
         clip-rule="evenodd"
         id="path979" /></clipPath><clipPath
       clipPathUnits="userSpaceOnUse"
       id="clipPath993"><path
         d="M 1.4305e-5,0 H 960.00001 V 540 H 1.4305e-5 Z"
         clip-rule="evenodd"
         id="path991" /></clipPath><clipPath
       clipPathUnits="userSpaceOnUse"
       id="clipPath1007"><path
         d="M 1.4305e-5,0 H 960.00001 V 540 H 1.4305e-5 Z"
         clip-rule="evenodd"
         id="path1005" /></clipPath><clipPath
       clipPathUnits="userSpaceOnUse"
       id="clipPath1019"><path
         d="M 1.4305e-5,0 H 960.00001 V 540 H 1.4305e-5 Z"
         clip-rule="evenodd"
         id="path1017" /></clipPath><clipPath
       clipPathUnits="userSpaceOnUse"
       id="clipPath1031"><path
         d="M 1.4305e-5,0 H 960.00001 V 540 H 1.4305e-5 Z"
         clip-rule="evenodd"
         id="path1029" /></clipPath><clipPath
       clipPathUnits="userSpaceOnUse"
       id="clipPath1043"><path
         d="M 1.4305e-5,0 H 960.00001 V 540 H 1.4305e-5 Z"
         clip-rule="evenodd"
         id="path1041" /></clipPath><clipPath
       clipPathUnits="userSpaceOnUse"
       id="clipPath1055"><path
         d="M 1.4305e-5,0 H 960.00001 V 540 H 1.4305e-5 Z"
         clip-rule="evenodd"
         id="path1053" /></clipPath><clipPath
       clipPathUnits="userSpaceOnUse"
       id="clipPath1069"><path
         d="M 1.4305e-5,0 H 960.00001 V 540 H 1.4305e-5 Z"
         clip-rule="evenodd"
         id="path1067" /></clipPath><clipPath
       clipPathUnits="userSpaceOnUse"
       id="clipPath1081"><path
         d="M 4.5776e-5,540 H 960 V 1.8311e-4 H 6.1035e-5"
         clip-rule="evenodd"
         id="path1079" /></clipPath><clipPath
       clipPathUnits="userSpaceOnUse"
       id="clipPath1093"><path
         d="M 1.4305e-5,0 H 960.00001 V 540 H 1.4305e-5 Z"
         clip-rule="evenodd"
         id="path1091" /></clipPath><clipPath
       clipPathUnits="userSpaceOnUse"
       id="clipPath1105"><path
         d="M 1.4305e-5,0 H 960.00001 V 540 H 1.4305e-5 Z"
         clip-rule="evenodd"
         id="path1103" /></clipPath><clipPath
       clipPathUnits="userSpaceOnUse"
       id="clipPath1117"><path
         d="M 1.5259e-5,540 H 960 V 2.4414e-4 L 3.0518e-5,1.8311e-4"
         clip-rule="evenodd"
         id="path1115" /></clipPath><clipPath
       clipPathUnits="userSpaceOnUse"
       id="clipPath1129"><path
         d="M 1.4305e-5,0 H 960.00001 V 540 H 1.4305e-5 Z"
         clip-rule="evenodd"
         id="path1127" /></clipPath><clipPath
       clipPathUnits="userSpaceOnUse"
       id="clipPath1141"><path
         d="M 1.4305e-5,0 H 960.00001 V 540 H 1.4305e-5 Z"
         clip-rule="evenodd"
         id="path1139" /></clipPath><clipPath
       clipPathUnits="userSpaceOnUse"
       id="clipPath1153"><path
         d="M 1.4305e-5,0 H 960.00001 V 540 H 1.4305e-5 Z"
         clip-rule="evenodd"
         id="path1151" /></clipPath><clipPath
       clipPathUnits="userSpaceOnUse"
       id="clipPath1165"><path
         d="M 1.4305e-5,0 H 960.00001 V 540 H 1.4305e-5 Z"
         clip-rule="evenodd"
         id="path1163" /></clipPath><clipPath
       clipPathUnits="userSpaceOnUse"
       id="clipPath1177"><path
         d="M 1.4305e-5,0 H 960.00001 V 540 H 1.4305e-5 Z"
         clip-rule="evenodd"
         id="path1175" /></clipPath><clipPath
       clipPathUnits="userSpaceOnUse"
       id="clipPath1189"><path
         d="M 1.4305e-5,0 H 960.00001 V 540 H 1.4305e-5 Z"
         clip-rule="evenodd"
         id="path1187" /></clipPath><clipPath
       clipPathUnits="userSpaceOnUse"
       id="clipPath1201"><path
         d="M 1.4305e-5,0 H 960.00001 V 540 H 1.4305e-5 Z"
         clip-rule="evenodd"
         id="path1199" /></clipPath><clipPath
       clipPathUnits="userSpaceOnUse"
       id="clipPath1213"><path
         d="M 1.4305e-5,0 H 960.00001 V 540 H 1.4305e-5 Z"
         clip-rule="evenodd"
         id="path1211" /></clipPath><clipPath
       clipPathUnits="userSpaceOnUse"
       id="clipPath1225"><path
         d="M 1.4305e-5,0 H 960.00001 V 540 H 1.4305e-5 Z"
         clip-rule="evenodd"
         id="path1223" /></clipPath><clipPath
       clipPathUnits="userSpaceOnUse"
       id="clipPath1237"><path
         d="M 1.4305e-5,0 H 960.00001 V 540 H 1.4305e-5 Z"
         clip-rule="evenodd"
         id="path1235" /></clipPath><clipPath
       clipPathUnits="userSpaceOnUse"
       id="clipPath1249"><path
         d="M 1.4305e-5,0 H 960.00001 V 540 H 1.4305e-5 Z"
         clip-rule="evenodd"
         id="path1247" /></clipPath><clipPath
       clipPathUnits="userSpaceOnUse"
       id="clipPath1261"><path
         d="M 1.4305e-5,0 H 960.00001 V 540 H 1.4305e-5 Z"
         clip-rule="evenodd"
         id="path1259" /></clipPath><clipPath
       clipPathUnits="userSpaceOnUse"
       id="clipPath1275"><path
         d="M 1.4305e-5,0 H 960.00001 V 540 H 1.4305e-5 Z"
         clip-rule="evenodd"
         id="path1273" /></clipPath><clipPath
       clipPathUnits="userSpaceOnUse"
       id="clipPath1289"><path
         d="M 1.4305e-5,0 H 960.00001 V 540 H 1.4305e-5 Z"
         clip-rule="evenodd"
         id="path1287" /></clipPath><clipPath
       clipPathUnits="userSpaceOnUse"
       id="clipPath1301"><path
         d="M 1.5259e-5,540 H 960 V 1.8311e-4 H 3.0518e-5"
         clip-rule="evenodd"
         id="path1299" /></clipPath><clipPath
       clipPathUnits="userSpaceOnUse"
       id="clipPath1313"><path
         d="M 1.4305e-5,0 H 960.00001 V 540 H 1.4305e-5 Z"
         clip-rule="evenodd"
         id="path1311" /></clipPath><clipPath
       clipPathUnits="userSpaceOnUse"
       id="clipPath1325"><path
         d="M 1.4305e-5,0 H 960.00001 V 540 H 1.4305e-5 Z"
         clip-rule="evenodd"
         id="path1323" /></clipPath><clipPath
       clipPathUnits="userSpaceOnUse"
       id="clipPath1337"><path
         d="M 1.4305e-5,0 H 960.00001 V 540 H 1.4305e-5 Z"
         clip-rule="evenodd"
         id="path1335" /></clipPath><clipPath
       clipPathUnits="userSpaceOnUse"
       id="clipPath1349"><path
         d="M 1.4305e-5,0 H 960.00001 V 540 H 1.4305e-5 Z"
         clip-rule="evenodd"
         id="path1347" /></clipPath><clipPath
       clipPathUnits="userSpaceOnUse"
       id="clipPath1363"><path
         d="M 1.4305e-5,0 H 960.00001 V 540 H 1.4305e-5 Z"
         clip-rule="evenodd"
         id="path1361" /></clipPath><clipPath
       clipPathUnits="userSpaceOnUse"
       id="clipPath1375"><path
         d="M 1.4305e-5,0 H 960.00001 V 540 H 1.4305e-5 Z"
         clip-rule="evenodd"
         id="path1373" /></clipPath><clipPath
       clipPathUnits="userSpaceOnUse"
       id="clipPath1389"><path
         d="M 1.4305e-5,0 H 960.00001 V 540 H 1.4305e-5 Z"
         clip-rule="evenodd"
         id="path1387" /></clipPath></defs><sodipodi:namedview
     pagecolor="#ffffff"
     bordercolor="#666666"
     borderopacity="1"
     objecttolerance="10"
     gridtolerance="10"
     guidetolerance="10"
     inkscape:pageopacity="0"
     inkscape:pageshadow="2"
     inkscape:window-width="2560"
     inkscape:window-height="1377"
     id="namedview835"
     showgrid="false"
     fit-margin-top="0"
     fit-margin-left="0"
     fit-margin-right="0"
     fit-margin-bottom="0"
     inkscape:zoom="0.58203125"
     inkscape:cx="372.48001"
     inkscape:cy="316.47998"
     inkscape:window-x="-8"
     inkscape:window-y="-8"
     inkscape:window-maximized="1"
     inkscape:current-layer="g841" /><g
     id="g841"
     inkscape:groupmode="layer"
     inkscape:label="assign()"
     transform="matrix(1.3333333,0,0,-1.3333333,-267.51999,676.47998)"><path
       d="m 215.76,445.2 h 415.2 v 35.04 h -415.2 z"
       style="fill:#d9d9d9;fill-opacity:1;fill-rule:evenodd;stroke:none"
       id="path853" /><g
       id="g855"><g
         id="g857"
         clip-path="url(#clipPath861)"><text
           transform="matrix(1,0,0,-1,223.01,456.67)"
           style="font-variant:normal;font-weight:normal;font-size:18px;font-family:Calibri;-inkscape-font-specification:Calibri;writing-mode:lr-tb;fill:#7030a0;fill-opacity:1;fill-rule:nonzero;stroke:none"
           id="text865"><tspan
             x="0 7.5599999 17.01 25.632"
             y="0"
             sodipodi:role="line"
             id="tspan863">char</tspan></text></g></g><g
       id="g867"><g
         id="g869"
         clip-path="url(#clipPath873)"><text
           transform="matrix(1,0,0,-1,259.13,456.67)"
           style="font-variant:normal;font-weight:normal;font-size:18px;font-family:Calibri;-inkscape-font-specification:Calibri;writing-mode:lr-tb;fill:#f4b183;fill-opacity:1;fill-rule:nonzero;stroke:none"
           id="text877"><tspan
             x="0 6.0300002 20.412001"
             y="0"
             sodipodi:role="line"
             id="tspan875">tmp</tspan></text></g></g><g
       id="g879"><g
         id="g881"
         clip-path="url(#clipPath885)"><text
           transform="matrix(1,0,0,-1,293.09,456.67)"
           style="font-variant:normal;font-weight:normal;font-size:18px;font-family:Calibri;-inkscape-font-specification:Calibri;writing-mode:lr-tb;fill:#000000;fill-opacity:1;fill-rule:nonzero;stroke:none"
           id="text889"><tspan
             x="0 8.9639997 13.176 21.582001 30.546 40.049999 46.332001 55.782001 63.324001 71.370003 77.129997 86.094002 92.375999 96.552002 105.678 115.128 124.614 133.992"
             y="0"
             sodipodi:role="line"
             id="tspan887">= gedrückter Knopf</tspan></text></g></g><g
       id="g891"><g
         id="g893"
         clip-path="url(#clipPath897)"><path
           d="m 216,337.56 h 21.12 V 439.8 H 216 Z"
           style="fill:#4472c4;fill-opacity:1;fill-rule:evenodd;stroke:none"
           id="path899" /></g></g><path
       d="m 216,413.4 h 415.32 v 28.8 H 216 Z"
       style="fill:#4472c4;fill-opacity:1;fill-rule:evenodd;stroke:none"
       id="path901" /><g
       id="g903"><g
         id="g905"
         clip-path="url(#clipPath909)"><text
           transform="matrix(1,0,0,-1,223.18,421.82)"
           style="font-variant:normal;font-weight:normal;font-size:18px;font-family:Calibri;-inkscape-font-specification:Calibri;writing-mode:lr-tb;fill:#000000;fill-opacity:1;fill-rule:nonzero;stroke:none"
           id="text913"><tspan
             x="0 12.726 21.690001 31.194 40.644001"
             y="0"
             sodipodi:role="line"
             id="tspan911">wenn </tspan></text></g></g><g
       id="g915"><g
         id="g917"
         clip-path="url(#clipPath921)"><text
           transform="matrix(1,0,0,-1,268.06,421.82)"
           style="font-variant:normal;font-weight:normal;font-size:18px;font-family:Calibri;-inkscape-font-specification:Calibri;writing-mode:lr-tb;fill:#f4b183;fill-opacity:1;fill-rule:nonzero;stroke:none"
           id="text925"><tspan
             x="0 6.0300002 20.412001"
             y="0"
             sodipodi:role="line"
             id="tspan923">tmp</tspan></text></g></g><g
       id="g927"><g
         id="g929"
         clip-path="url(#clipPath933)"><text
           transform="matrix(1,0,0,-1,302.04,421.82)"
           style="font-variant:normal;font-weight:normal;font-size:18px;font-family:Calibri;-inkscape-font-specification:Calibri;writing-mode:lr-tb;fill:#000000;fill-opacity:1;fill-rule:nonzero;stroke:none"
           id="text937"><tspan
             x="0 9 18"
             y="0"
             sodipodi:role="line"
             id="tspan935">&gt;= </tspan></text></g></g><g
       id="g939"><g
         id="g941"
         clip-path="url(#clipPath945)"><text
           transform="matrix(1,0,0,-1,324.12,421.82)"
           style="font-variant:normal;font-weight:normal;font-size:18px;font-family:Calibri;-inkscape-font-specification:Calibri;writing-mode:lr-tb;fill:#70ad47;fill-opacity:1;fill-rule:nonzero;stroke:none"
           id="text949"><tspan
             x="0 4.4460001 13.572"
             y="0"
             sodipodi:role="line"
             id="tspan947">‘0‘</tspan></text></g></g><g
       id="g951"><g
         id="g953"
         clip-path="url(#clipPath957)"><text
           transform="matrix(1,0,0,-1,346.44,421.82)"
           style="font-variant:normal;font-weight:normal;font-size:18px;font-family:Calibri;-inkscape-font-specification:Calibri;writing-mode:lr-tb;fill:#000000;fill-opacity:1;fill-rule:nonzero;stroke:none"
           id="text961"><tspan
             x="0 12.24 24.48"
             y="0"
             sodipodi:role="line"
             id="tspan959">&amp;&amp; </tspan></text></g></g><g
       id="g963"><g
         id="g965"
         clip-path="url(#clipPath969)"><text
           transform="matrix(1,0,0,-1,375,421.82)"
           style="font-variant:normal;font-weight:normal;font-size:18px;font-family:Calibri;-inkscape-font-specification:Calibri;writing-mode:lr-tb;fill:#f4b183;fill-opacity:1;fill-rule:nonzero;stroke:none"
           id="text973"><tspan
             x="0 6.0300002 20.412001"
             y="0"
             sodipodi:role="line"
             id="tspan971">tmp</tspan></text></g></g><g
       id="g975"><g
         id="g977"
         clip-path="url(#clipPath981)"><text
           transform="matrix(1,0,0,-1,409.08,421.82)"
           style="font-variant:normal;font-weight:normal;font-size:18px;font-family:Calibri;-inkscape-font-specification:Calibri;writing-mode:lr-tb;fill:#000000;fill-opacity:1;fill-rule:nonzero;stroke:none"
           id="text985"><tspan
             x="0 9 18"
             y="0"
             sodipodi:role="line"
             id="tspan983">&lt;= </tspan></text></g></g><g
       id="g987"><g
         id="g989"
         clip-path="url(#clipPath993)"><text
           transform="matrix(1,0,0,-1,431.16,421.82)"
           style="font-variant:normal;font-weight:normal;font-size:18px;font-family:Calibri;-inkscape-font-specification:Calibri;writing-mode:lr-tb;fill:#70ad47;fill-opacity:1;fill-rule:nonzero;stroke:none"
           id="text997"><tspan
             x="0 4.4460001 13.572"
             y="0"
             sodipodi:role="line"
             id="tspan995">‘9‘</tspan></text></g></g><path
       d="m 239.4,375.6 h 391.92 v 35.04 H 239.4 Z"
       style="fill:#d9d9d9;fill-opacity:1;fill-rule:evenodd;stroke:none"
       id="path999" /><g
       id="g1001"><g
         id="g1003"
         clip-path="url(#clipPath1007)"><text
           transform="matrix(1,0,0,-1,246.65,387.12)"
           style="font-variant:normal;font-weight:normal;font-size:18px;font-family:Calibri;-inkscape-font-specification:Calibri;writing-mode:lr-tb;fill:#000000;fill-opacity:1;fill-rule:nonzero;stroke:none"
           id="text1011"><tspan
             x="0 9.4499998 13.59 20.628 30.077999 34.217999 42.48 50.633999 61.056 68.148003 75.185997 79.325996 87.804001"
             y="0"
             sodipodi:role="line"
             id="tspan1009">displayAssign</tspan></text></g></g><g
       id="g1013"><g
         id="g1015"
         clip-path="url(#clipPath1019)"><text
           transform="matrix(1,0,0,-1,343.97,387.12)"
           style="font-variant:normal;font-weight:normal;font-size:18px;font-family:Calibri;-inkscape-font-specification:Calibri;writing-mode:lr-tb;fill:#000000;fill-opacity:1;fill-rule:nonzero;stroke:none"
           id="text1023"><tspan
             x="0"
             y="0"
             id="tspan1021">(</tspan></text></g></g><g
       id="g1025"><g
         id="g1027"
         clip-path="url(#clipPath1031)"><text
           transform="matrix(1,0,0,-1,349.37,387.12)"
           style="font-variant:normal;font-weight:normal;font-size:18px;font-family:Calibri;-inkscape-font-specification:Calibri;writing-mode:lr-tb;fill:#000000;fill-opacity:1;fill-rule:nonzero;stroke:none"
           id="text1035"><tspan
             x="0 6.0300002 20.412001"
             y="0"
             sodipodi:role="line"
             id="tspan1033">tmp</tspan></text></g></g><g
       id="g1037"><g
         id="g1039"
         clip-path="url(#clipPath1043)"><text
           transform="matrix(1,0,0,-1,383.33,387.12)"
           style="font-variant:normal;font-weight:normal;font-size:18px;font-family:Calibri;-inkscape-font-specification:Calibri;writing-mode:lr-tb;fill:#000000;fill-opacity:1;fill-rule:nonzero;stroke:none"
           id="text1047"><tspan
             x="0"
             y="0"
             id="tspan1045">–</tspan></text></g></g><g
       id="g1049"><g
         id="g1051"
         clip-path="url(#clipPath1055)"><text
           transform="matrix(1,0,0,-1,396.43,387.12)"
           style="font-variant:normal;font-weight:normal;font-size:18px;font-family:Calibri;-inkscape-font-specification:Calibri;writing-mode:lr-tb;fill:#000000;fill-opacity:1;fill-rule:nonzero;stroke:none"
           id="text1059"><tspan
             x="0 9.1260004 18.252001 23.634001"
             y="0"
             sodipodi:role="line"
             id="tspan1057">48);</tspan></text></g></g><path
       d="m 239.28,337.56 h 391.8 v 35.04 h -391.8 z"
       style="fill:#d9d9d9;fill-opacity:1;fill-rule:evenodd;stroke:none"
       id="path1061" /><g
       id="g1063"><g
         id="g1065"
         clip-path="url(#clipPath1069)"><text
           transform="matrix(1,0,0,-1,246.46,348.98)"
           style="font-variant:normal;font-weight:normal;font-size:18px;font-family:Calibri;-inkscape-font-specification:Calibri;writing-mode:lr-tb;fill:#000000;fill-opacity:1;fill-rule:nonzero;stroke:none"
           id="text1073"><tspan
             x="0 8.6219997 18.072001 27.576 33.57 42.534 50.147999 59.598 68.561996"
             y="0"
             sodipodi:role="line"
             id="tspan1071">abbrechen</tspan></text></g></g><g
       id="g1075"><g
         id="g1077"
         clip-path="url(#clipPath1081)"><path
           d="m 200.64,121.8 h 12.48 v 385.56 h -12.48 z"
           style="fill:#ffd966;fill-opacity:1;fill-rule:evenodd;stroke:none"
           id="path1083" /></g></g><path
       d="m 200.64,483.12 h 430.32 v 24.24 H 200.64 Z"
       style="fill:#ffd966;fill-opacity:1;fill-rule:evenodd;stroke:none"
       id="path1085" /><g
       id="g1087"><g
         id="g1089"
         clip-path="url(#clipPath1093)"><text
           transform="matrix(1,0,0,-1,207.86,489.24)"
           style="font-variant:normal;font-weight:normal;font-size:18px;font-family:Calibri;-inkscape-font-specification:Calibri;writing-mode:lr-tb;fill:#000000;fill-opacity:1;fill-rule:nonzero;stroke:none"
           id="text1097"><tspan
             x="0 8.6219997 15.696 22.733999 26.874001 35.352001"
             y="0"
             sodipodi:role="line"
             id="tspan1095">assign</tspan></text></g></g><g
       id="g1099"><g
         id="g1101"
         clip-path="url(#clipPath1105)"><text
           transform="matrix(1,0,0,-1,252.74,489.24)"
           style="font-variant:normal;font-weight:normal;font-size:18px;font-family:Calibri;-inkscape-font-specification:Calibri;writing-mode:lr-tb;fill:#000000;fill-opacity:1;fill-rule:nonzero;stroke:none"
           id="text1109"><tspan
             x="0 5.4000001"
             y="0"
             sodipodi:role="line"
             id="tspan1107">()</tspan></text></g></g><g
       id="g1111"><g
         id="g1113"
         clip-path="url(#clipPath1117)"><path
           d="m 215.76,229.68 h 21.12 v 102.24 h -21.12 z"
           style="fill:#4472c4;fill-opacity:1;fill-rule:evenodd;stroke:none"
           id="path1119" /></g></g><path
       d="m 215.76,305.64 h 415.32 v 28.8 H 215.76 Z"
       style="fill:#4472c4;fill-opacity:1;fill-rule:evenodd;stroke:none"
       id="path1121" /><g
       id="g1123"><g
         id="g1125"
         clip-path="url(#clipPath1129)"><text
           transform="matrix(1,0,0,-1,223.01,313.94)"
           style="font-variant:normal;font-weight:normal;font-size:18px;font-family:Calibri;-inkscape-font-specification:Calibri;writing-mode:lr-tb;fill:#000000;fill-opacity:1;fill-rule:nonzero;stroke:none"
           id="text1133"><tspan
             x="0 12.726 21.690001 31.194 40.644001"
             y="0"
             sodipodi:role="line"
             id="tspan1131">wenn </tspan></text></g></g><g
       id="g1135"><g
         id="g1137"
         clip-path="url(#clipPath1141)"><text
           transform="matrix(1,0,0,-1,267.89,313.94)"
           style="font-variant:normal;font-weight:normal;font-size:18px;font-family:Calibri;-inkscape-font-specification:Calibri;writing-mode:lr-tb;fill:#f4b183;fill-opacity:1;fill-rule:nonzero;stroke:none"
           id="text1145"><tspan
             x="0 6.0300002 20.412001"
             y="0"
             sodipodi:role="line"
             id="tspan1143">tmp</tspan></text></g></g><g
       id="g1147"><g
         id="g1149"
         clip-path="url(#clipPath1153)"><text
           transform="matrix(1,0,0,-1,301.85,313.94)"
           style="font-variant:normal;font-weight:normal;font-size:18px;font-family:Calibri;-inkscape-font-specification:Calibri;writing-mode:lr-tb;fill:#000000;fill-opacity:1;fill-rule:nonzero;stroke:none"
           id="text1157"><tspan
             x="0 9 18"
             y="0"
             sodipodi:role="line"
             id="tspan1155">&gt;= </tspan></text></g></g><g
       id="g1159"><g
         id="g1161"
         clip-path="url(#clipPath1165)"><text
           transform="matrix(1,0,0,-1,323.93,313.94)"
           style="font-variant:normal;font-weight:normal;font-size:18px;font-family:Calibri;-inkscape-font-specification:Calibri;writing-mode:lr-tb;fill:#70ad47;fill-opacity:1;fill-rule:nonzero;stroke:none"
           id="text1169"><tspan
             x="0 4.4460001 13.41"
             y="0"
             sodipodi:role="line"
             id="tspan1167">‘*‘</tspan></text></g></g><g
       id="g1171"><g
         id="g1173"
         clip-path="url(#clipPath1177)"><text
           transform="matrix(1,0,0,-1,346.13,313.94)"
           style="font-variant:normal;font-weight:normal;font-size:18px;font-family:Calibri;-inkscape-font-specification:Calibri;writing-mode:lr-tb;fill:#000000;fill-opacity:1;fill-rule:nonzero;stroke:none"
           id="text1181"><tspan
             x="0 12.24 24.48"
             y="0"
             sodipodi:role="line"
             id="tspan1179">&amp;&amp; </tspan></text></g></g><g
       id="g1183"><g
         id="g1185"
         clip-path="url(#clipPath1189)"><text
           transform="matrix(1,0,0,-1,374.69,313.94)"
           style="font-variant:normal;font-weight:normal;font-size:18px;font-family:Calibri;-inkscape-font-specification:Calibri;writing-mode:lr-tb;fill:#f4b183;fill-opacity:1;fill-rule:nonzero;stroke:none"
           id="text1193"><tspan
             x="0 6.0300002 20.412001"
             y="0"
             sodipodi:role="line"
             id="tspan1191">tmp</tspan></text></g></g><g
       id="g1195"><g
         id="g1197"
         clip-path="url(#clipPath1201)"><text
           transform="matrix(1,0,0,-1,408.79,313.94)"
           style="font-variant:normal;font-weight:normal;font-size:18px;font-family:Calibri;-inkscape-font-specification:Calibri;writing-mode:lr-tb;fill:#000000;fill-opacity:1;fill-rule:nonzero;stroke:none"
           id="text1205"><tspan
             x="0 9 18"
             y="0"
             sodipodi:role="line"
             id="tspan1203">&lt;= </tspan></text></g></g><g
       id="g1207"><g
         id="g1209"
         clip-path="url(#clipPath1213)"><text
           transform="matrix(1,0,0,-1,430.87,313.94)"
           style="font-variant:normal;font-weight:normal;font-size:18px;font-family:Calibri;-inkscape-font-specification:Calibri;writing-mode:lr-tb;fill:#70ad47;fill-opacity:1;fill-rule:nonzero;stroke:none"
           id="text1217"><tspan
             x="0 4.4460001 11.394 15.894"
             y="0"
             sodipodi:role="line"
             id="tspan1215">‘/‘ </tspan></text></g></g><g
       id="g1219"><g
         id="g1221"
         clip-path="url(#clipPath1225)"><text
           transform="matrix(1,0,0,-1,451.03,313.94)"
           style="font-variant:normal;font-weight:normal;font-size:18px;font-family:Calibri;-inkscape-font-specification:Calibri;writing-mode:lr-tb;fill:#000000;fill-opacity:1;fill-rule:nonzero;stroke:none"
           id="text1229"><tspan
             x="0 12.24 24.48"
             y="0"
             sodipodi:role="line"
             id="tspan1227">&amp;&amp; </tspan></text></g></g><g
       id="g1231"><g
         id="g1233"
         clip-path="url(#clipPath1237)"><text
           transform="matrix(1,0,0,-1,479.59,313.94)"
           style="font-variant:normal;font-weight:normal;font-size:18px;font-family:Calibri;-inkscape-font-specification:Calibri;writing-mode:lr-tb;fill:#f4b183;fill-opacity:1;fill-rule:nonzero;stroke:none"
           id="text1241"><tspan
             x="0 6.0300002 20.412001"
             y="0"
             sodipodi:role="line"
             id="tspan1239">tmp</tspan></text></g></g><g
       id="g1243"><g
         id="g1245"
         clip-path="url(#clipPath1249)"><text
           transform="matrix(1,0,0,-1,513.67,313.94)"
           style="font-variant:normal;font-weight:normal;font-size:18px;font-family:Calibri;-inkscape-font-specification:Calibri;writing-mode:lr-tb;fill:#000000;fill-opacity:1;fill-rule:nonzero;stroke:none"
           id="text1253"><tspan
             x="0 5.868 14.832"
             y="0"
             sodipodi:role="line"
             id="tspan1251">!= </tspan></text></g></g><g
       id="g1255"><g
         id="g1257"
         clip-path="url(#clipPath1261)"><text
           transform="matrix(1,0,0,-1,532.63,313.94)"
           style="font-variant:normal;font-weight:normal;font-size:18px;font-family:Calibri;-inkscape-font-specification:Calibri;writing-mode:lr-tb;fill:#70ad47;fill-opacity:1;fill-rule:nonzero;stroke:none"
           id="text1265"><tspan
             x="0 2.7539999 5.6339998"
             y="0"
             sodipodi:role="line"
             id="tspan1263">‘.‘</tspan></text></g></g><path
       d="m 239.28,267.84 h 391.8 v 35.04 h -391.8 z"
       style="fill:#d9d9d9;fill-opacity:1;fill-rule:evenodd;stroke:none"
       id="path1267" /><g
       id="g1269"><g
         id="g1271"
         clip-path="url(#clipPath1275)"><text
           transform="matrix(1,0,0,-1,246.46,279.26)"
           style="font-variant:normal;font-weight:normal;font-size:18px;font-family:Calibri;-inkscape-font-specification:Calibri;writing-mode:lr-tb;fill:#000000;fill-opacity:1;fill-rule:nonzero;stroke:none"
           id="text1279"><tspan
             x="0 8.6219997 12.762 16.794001 25.757999 29.969999 41.040001 45.09 52.127998 61.632 65.718002 73.998001 82.043999 89.082001 93.185997 105.912 114.876 120.906 130.356 139.37399 148.82401 153.036 161.442 170.40601 174.54601 184.032 191.07001 198.68401 208.008"
             y="0"
             sodipodi:role="line"
             id="tspan1277">alle Displays werden gelöscht</tspan></text></g></g><path
       d="m 239.04,229.68 h 391.92 v 35.04 H 239.04 Z"
       style="fill:#d9d9d9;fill-opacity:1;fill-rule:evenodd;stroke:none"
       id="path1281" /><g
       id="g1283"><g
         id="g1285"
         clip-path="url(#clipPath1289)"><text
           transform="matrix(1,0,0,-1,246.29,241.1)"
           style="font-variant:normal;font-weight:normal;font-size:18px;font-family:Calibri;-inkscape-font-specification:Calibri;writing-mode:lr-tb;fill:#000000;fill-opacity:1;fill-rule:nonzero;stroke:none"
           id="text1293"><tspan
             x="0 8.6219997 18.072001 27.576 33.57 42.534 50.147999 59.598 68.561996"
             y="0"
             sodipodi:role="line"
             id="tspan1291">abbrechen</tspan></text></g></g><g
       id="g1295"><g
         id="g1297"
         clip-path="url(#clipPath1301)"><path
           d="m 215.76,121.8 h 21.12 v 102.36 h -21.12 z"
           style="fill:#4472c4;fill-opacity:1;fill-rule:evenodd;stroke:none"
           id="path1303" /></g></g><path
       d="m 215.76,197.76 h 415.32 v 28.8 H 215.76 Z"
       style="fill:#4472c4;fill-opacity:1;fill-rule:evenodd;stroke:none"
       id="path1305" /><g
       id="g1307"><g
         id="g1309"
         clip-path="url(#clipPath1313)"><text
           transform="matrix(1,0,0,-1,223.01,206.09)"
           style="font-variant:normal;font-weight:normal;font-size:18px;font-family:Calibri;-inkscape-font-specification:Calibri;writing-mode:lr-tb;fill:#000000;fill-opacity:1;fill-rule:nonzero;stroke:none"
           id="text1317"><tspan
             x="0 12.726 21.690001 31.194 40.644001"
             y="0"
             sodipodi:role="line"
             id="tspan1315">wenn </tspan></text></g></g><g
       id="g1319"><g
         id="g1321"
         clip-path="url(#clipPath1325)"><text
           transform="matrix(1,0,0,-1,267.89,206.09)"
           style="font-variant:normal;font-weight:normal;font-size:18px;font-family:Calibri;-inkscape-font-specification:Calibri;writing-mode:lr-tb;fill:#f4b183;fill-opacity:1;fill-rule:nonzero;stroke:none"
           id="text1329"><tspan
             x="0 6.0300002 20.412001"
             y="0"
             sodipodi:role="line"
             id="tspan1327">tmp</tspan></text></g></g><g
       id="g1331"><g
         id="g1333"
         clip-path="url(#clipPath1337)"><text
           transform="matrix(1,0,0,-1,301.85,206.09)"
           style="font-variant:normal;font-weight:normal;font-size:18px;font-family:Calibri;-inkscape-font-specification:Calibri;writing-mode:lr-tb;fill:#000000;fill-opacity:1;fill-rule:nonzero;stroke:none"
           id="text1341"><tspan
             x="0 9 18"
             y="0"
             sodipodi:role="line"
             id="tspan1339">== </tspan></text></g></g><g
       id="g1343"><g
         id="g1345"
         clip-path="url(#clipPath1349)"><text
           transform="matrix(1,0,0,-1,323.93,206.09)"
           style="font-variant:normal;font-weight:normal;font-size:18px;font-family:Calibri;-inkscape-font-specification:Calibri;writing-mode:lr-tb;fill:#70ad47;fill-opacity:1;fill-rule:nonzero;stroke:none"
           id="text1353"><tspan
             x="0 2.7539999 5.6339998"
             y="0"
             sodipodi:role="line"
             id="tspan1351">‘.‘</tspan></text></g></g><path
       d="m 239.28,159.96 h 391.8 V 195 h -391.8 z"
       style="fill:#d9d9d9;fill-opacity:1;fill-rule:evenodd;stroke:none"
       id="path1355" /><g
       id="g1357"><g
         id="g1359"
         clip-path="url(#clipPath1363)"><text
           transform="matrix(1,0,0,-1,246.46,171.41)"
           style="font-variant:normal;font-weight:normal;font-size:18.024px;font-family:Calibri;-inkscape-font-specification:Calibri;writing-mode:lr-tb;fill:#000000;fill-opacity:1;fill-rule:nonzero;stroke:none"
           id="text1367"><tspan
             x="0 9.4625998 13.60812 20.655504 30.118105 34.191528 42.464542 50.629417 61.065311 68.112694 75.214149 79.287575 87.776878"
             y="0"
             sodipodi:role="line"
             id="tspan1365">displayAssign</tspan></text></g></g><g
       id="g1369"><g
         id="g1371"
         clip-path="url(#clipPath1375)"><text
           transform="matrix(1,0,0,-1,343.8,171.41)"
           style="font-variant:normal;font-weight:normal;font-size:18.024px;font-family:Calibri;-inkscape-font-specification:Calibri;writing-mode:lr-tb;fill:#000000;fill-opacity:1;fill-rule:nonzero;stroke:none"
           id="text1379"><tspan
             x="0 5.4071999 14.545368 23.683537"
             y="0"
             sodipodi:role="line"
             id="tspan1377">(10)</tspan></text></g></g><path
       d="m 239.04,121.8 h 391.92 v 35.04 H 239.04 Z"
       style="fill:#d9d9d9;fill-opacity:1;fill-rule:evenodd;stroke:none"
       id="path1381" /><g
       id="g1383"><g
         id="g1385"
         clip-path="url(#clipPath1389)"><text
           transform="matrix(1,0,0,-1,246.29,133.25)"
           style="font-variant:normal;font-weight:normal;font-size:18px;font-family:Calibri;-inkscape-font-specification:Calibri;writing-mode:lr-tb;fill:#000000;fill-opacity:1;fill-rule:nonzero;stroke:none"
           id="text1393"><tspan
             x="0 8.6219997 18.072001 27.576 33.57 42.534 50.147999 59.598 68.561996"
             y="0"
             sodipodi:role="line"
             id="tspan1391">abbrechen</tspan></text></g></g></g></svg>
