<?xml version="1.0" encoding="UTF-8" standalone="no"?>
<svg
   xmlns:dc="http://purl.org/dc/elements/1.1/"
   xmlns:cc="http://creativecommons.org/ns#"
   xmlns:rdf="http://www.w3.org/1999/02/22-rdf-syntax-ns#"
   xmlns:svg="http://www.w3.org/2000/svg"
   xmlns="http://www.w3.org/2000/svg"
   xmlns:sodipodi="http://sodipodi.sourceforge.net/DTD/sodipodi-0.dtd"
   xmlns:inkscape="http://www.inkscape.org/namespaces/inkscape"
   version="1.1"
   id="svg833"
   xml:space="preserve"
   width="507.35999"
   height="508.95999"
   viewBox="0 0 507.35999 508.95999"
   sodipodi:docname="ButtonMatrixSchema.svg"
   inkscape:version="1.0.1 (3bc2e813f5, 2020-09-07)"><metadata
     id="metadata839"><rdf:RDF><cc:Work
         rdf:about=""><dc:format>image/svg+xml</dc:format><dc:type
           rdf:resource="http://purl.org/dc/dcmitype/StillImage" /><dc:title></dc:title></cc:Work></rdf:RDF></metadata><defs
     id="defs837"><clipPath
       clipPathUnits="userSpaceOnUse"
       id="clipPath849"><path
         d="M 0,1.2207e-4 H 960 V 540.00012 H 0 Z"
         clip-rule="evenodd"
         id="path847" /></clipPath><clipPath
       clipPathUnits="userSpaceOnUse"
       id="clipPath867"><path
         d="M -6.1035e-5,540 H 960 V 6.1035e-5 H -6.1035e-5"
         clip-rule="evenodd"
         id="path865" /></clipPath><clipPath
       clipPathUnits="userSpaceOnUse"
       id="clipPath877"><path
         d="M -6.1035e-5,540 H 960 V 6.1035e-5 H -6.1035e-5"
         clip-rule="evenodd"
         id="path875" /></clipPath><clipPath
       clipPathUnits="userSpaceOnUse"
       id="clipPath887"><path
         d="M -6.1035e-5,540 H 960 V 6.1035e-5 H -6.1035e-5"
         clip-rule="evenodd"
         id="path885" /></clipPath><clipPath
       clipPathUnits="userSpaceOnUse"
       id="clipPath897"><path
         d="M -6.1035e-5,540 H 960 V 6.1035e-5 H -6.1035e-5"
         clip-rule="evenodd"
         id="path895" /></clipPath><clipPath
       clipPathUnits="userSpaceOnUse"
       id="clipPath909"><path
         d="M 1.4305e-5,0 H 960.00001 V 540 H 1.4305e-5 Z"
         clip-rule="evenodd"
         id="path907" /></clipPath><clipPath
       clipPathUnits="userSpaceOnUse"
       id="clipPath923"><path
         d="M 1.4305e-5,0 H 960.00001 V 540 H 1.4305e-5 Z"
         clip-rule="evenodd"
         id="path921" /></clipPath><clipPath
       clipPathUnits="userSpaceOnUse"
       id="clipPath937"><path
         d="M 1.4305e-5,0 H 960.00001 V 540 H 1.4305e-5 Z"
         clip-rule="evenodd"
         id="path935" /></clipPath><clipPath
       clipPathUnits="userSpaceOnUse"
       id="clipPath951"><path
         d="M 1.4305e-5,0 H 960.00001 V 540 H 1.4305e-5 Z"
         clip-rule="evenodd"
         id="path949" /></clipPath><clipPath
       clipPathUnits="userSpaceOnUse"
       id="clipPath965"><path
         d="M 1.4305e-5,0 H 960.00001 V 540 H 1.4305e-5 Z"
         clip-rule="evenodd"
         id="path963" /></clipPath><clipPath
       clipPathUnits="userSpaceOnUse"
       id="clipPath979"><path
         d="M 1.4305e-5,0 H 960.00001 V 540 H 1.4305e-5 Z"
         clip-rule="evenodd"
         id="path977" /></clipPath><clipPath
       clipPathUnits="userSpaceOnUse"
       id="clipPath993"><path
         d="M 1.4305e-5,0 H 960.00001 V 540 H 1.4305e-5 Z"
         clip-rule="evenodd"
         id="path991" /></clipPath><clipPath
       clipPathUnits="userSpaceOnUse"
       id="clipPath1007"><path
         d="M 1.4305e-5,0 H 960.00001 V 540 H 1.4305e-5 Z"
         clip-rule="evenodd"
         id="path1005" /></clipPath><clipPath
       clipPathUnits="userSpaceOnUse"
       id="clipPath1021"><path
         d="M 1.4305e-5,0 H 960.00001 V 540 H 1.4305e-5 Z"
         clip-rule="evenodd"
         id="path1019" /></clipPath><clipPath
       clipPathUnits="userSpaceOnUse"
       id="clipPath1035"><path
         d="M 1.4305e-5,0 H 960.00001 V 540 H 1.4305e-5 Z"
         clip-rule="evenodd"
         id="path1033" /></clipPath><clipPath
       clipPathUnits="userSpaceOnUse"
       id="clipPath1049"><path
         d="M 1.4305e-5,0 H 960.00001 V 540 H 1.4305e-5 Z"
         clip-rule="evenodd"
         id="path1047" /></clipPath><clipPath
       clipPathUnits="userSpaceOnUse"
       id="clipPath1063"><path
         d="M 1.4305e-5,0 H 960.00001 V 540 H 1.4305e-5 Z"
         clip-rule="evenodd"
         id="path1061" /></clipPath><clipPath
       clipPathUnits="userSpaceOnUse"
       id="clipPath1079"><path
         d="M 1.4305e-5,0 H 960.00001 V 540 H 1.4305e-5 Z"
         clip-rule="evenodd"
         id="path1077" /></clipPath><clipPath
       clipPathUnits="userSpaceOnUse"
       id="clipPath1093"><path
         d="M 1.4305e-5,0 H 960.00001 V 540 H 1.4305e-5 Z"
         clip-rule="evenodd"
         id="path1091" /></clipPath><clipPath
       clipPathUnits="userSpaceOnUse"
       id="clipPath1107"><path
         d="M 1.4305e-5,0 H 960.00001 V 540 H 1.4305e-5 Z"
         clip-rule="evenodd"
         id="path1105" /></clipPath><clipPath
       clipPathUnits="userSpaceOnUse"
       id="clipPath1119"><path
         d="m 340.2,157.8 h 30 v 30 h -30 z"
         clip-rule="evenodd"
         id="path1117" /></clipPath><clipPath
       clipPathUnits="userSpaceOnUse"
       id="clipPath1129"><path
         d="M 0,0 H 5.7754 V 5.7699 H 0 Z"
         id="path1127" /></clipPath><clipPath
       clipPathUnits="userSpaceOnUse"
       id="clipPath1141"><path
         d="M 1.4305e-5,0 H 960.00001 V 540 H 1.4305e-5 Z"
         clip-rule="evenodd"
         id="path1139" /></clipPath><clipPath
       clipPathUnits="userSpaceOnUse"
       id="clipPath1155"><path
         d="M 1.4305e-5,0 H 960.00001 V 540 H 1.4305e-5 Z"
         clip-rule="evenodd"
         id="path1153" /></clipPath><clipPath
       clipPathUnits="userSpaceOnUse"
       id="clipPath1169"><path
         d="M 1.4305e-5,0 H 960.00001 V 540 H 1.4305e-5 Z"
         clip-rule="evenodd"
         id="path1167" /></clipPath><clipPath
       clipPathUnits="userSpaceOnUse"
       id="clipPath1183"><path
         d="M 1.4305e-5,0 H 960.00001 V 540 H 1.4305e-5 Z"
         clip-rule="evenodd"
         id="path1181" /></clipPath><clipPath
       clipPathUnits="userSpaceOnUse"
       id="clipPath1197"><path
         d="M 1.4305e-5,0 H 960.00001 V 540 H 1.4305e-5 Z"
         clip-rule="evenodd"
         id="path1195" /></clipPath><clipPath
       clipPathUnits="userSpaceOnUse"
       id="clipPath1211"><path
         d="M 1.4305e-5,0 H 960.00001 V 540 H 1.4305e-5 Z"
         clip-rule="evenodd"
         id="path1209" /></clipPath><clipPath
       clipPathUnits="userSpaceOnUse"
       id="clipPath1225"><path
         d="M 1.4305e-5,0 H 960.00001 V 540 H 1.4305e-5 Z"
         clip-rule="evenodd"
         id="path1223" /></clipPath><clipPath
       clipPathUnits="userSpaceOnUse"
       id="clipPath1237"><path
         d="M 1.4305e-5,0 H 960.00001 V 540 H 1.4305e-5 Z"
         clip-rule="evenodd"
         id="path1235" /></clipPath><clipPath
       clipPathUnits="userSpaceOnUse"
       id="clipPath1251"><path
         d="M 1.4305e-5,0 H 960.00001 V 540 H 1.4305e-5 Z"
         clip-rule="evenodd"
         id="path1249" /></clipPath></defs><sodipodi:namedview
     pagecolor="#ffffff"
     bordercolor="#666666"
     borderopacity="1"
     objecttolerance="10"
     gridtolerance="10"
     guidetolerance="10"
     inkscape:pageopacity="0"
     inkscape:pageshadow="2"
     inkscape:window-width="2560"
     inkscape:window-height="1377"
     id="namedview835"
     showgrid="false"
     fit-margin-top="0"
     fit-margin-left="0"
     fit-margin-right="0"
     fit-margin-bottom="0"
     inkscape:zoom="1.54375"
     inkscape:cx="286.88001"
     inkscape:cy="256.47998"
     inkscape:window-x="-8"
     inkscape:window-y="-8"
     inkscape:window-maximized="1"
     inkscape:current-layer="g841" /><g
     id="g841"
     inkscape:groupmode="layer"
     inkscape:label="ButtonMatrixSchema"
     transform="matrix(1.3333333,0,0,-1.3333333,-353.11999,616.47998)"><path
       d="m 355.2,80.64 h 3.6 v 378.72 h -3.6 z"
       style="fill:#4472c4;fill-opacity:1;fill-rule:evenodd;stroke:none"
       id="path853" /><path
       d="m 420,80.64 h 3.6 V 459.36 H 420 Z"
       style="fill:#4472c4;fill-opacity:1;fill-rule:evenodd;stroke:none"
       id="path855" /><path
       d="m 484.8,80.64 h 3.6 v 378.72 h -3.6 z"
       style="fill:#4472c4;fill-opacity:1;fill-rule:evenodd;stroke:none"
       id="path857" /><path
       d="m 549.6,80.64 h 3.6 v 378.72 h -3.6 z"
       style="fill:#4472c4;fill-opacity:1;fill-rule:evenodd;stroke:none"
       id="path859" /><g
       id="g861"><g
         id="g863"
         clip-path="url(#clipPath867)"><path
           d="m 264.84,171 h 378.72 v 3.6 H 264.84 Z"
           style="fill:#4472c4;fill-opacity:1;fill-rule:evenodd;stroke:none"
           id="path869" /></g></g><g
       id="g871"><g
         id="g873"
         clip-path="url(#clipPath877)"><path
           d="m 264.84,235.8 h 378.72 v 3.6 H 264.84 Z"
           style="fill:#4472c4;fill-opacity:1;fill-rule:evenodd;stroke:none"
           id="path879" /></g></g><g
       id="g881"><g
         id="g883"
         clip-path="url(#clipPath887)"><path
           d="m 264.84,300.6 h 378.72 v 3.6 H 264.84 Z"
           style="fill:#4472c4;fill-opacity:1;fill-rule:evenodd;stroke:none"
           id="path889" /></g></g><g
       id="g891"><g
         id="g893"
         clip-path="url(#clipPath897)"><path
           d="M 264.84,365.4 H 643.56 V 369 H 264.84 Z"
           style="fill:#4472c4;fill-opacity:1;fill-rule:evenodd;stroke:none"
           id="path899" /></g></g><path
       d="m 340.32,367.2 c 0,9.21 7.47,16.68 16.68,16.68 9.21,0 16.68,-7.47 16.68,-16.68 0,-9.21 -7.47,-16.68 -16.68,-16.68 -9.21,0 -16.68,7.47 -16.68,16.68 z"
       style="fill:#ed7d31;fill-opacity:1;fill-rule:evenodd;stroke:none"
       id="path901" /><g
       id="g903"><g
         id="g905"
         clip-path="url(#clipPath909)"><text
           transform="matrix(1,0,0,-1,352.49,361.15)"
           style="font-variant:normal;font-weight:normal;font-size:18px;font-family:Calibri;-inkscape-font-specification:Calibri;writing-mode:lr-tb;fill:#ffffff;fill-opacity:1;fill-rule:nonzero;stroke:none"
           id="text913"><tspan
             x="0"
             y="0"
             id="tspan911">7</tspan></text></g></g><path
       d="m 405.12,367.2 c 0,9.21 7.47,16.68 16.68,16.68 9.21,0 16.68,-7.47 16.68,-16.68 0,-9.21 -7.47,-16.68 -16.68,-16.68 -9.21,0 -16.68,7.47 -16.68,16.68 z"
       style="fill:#ed7d31;fill-opacity:1;fill-rule:evenodd;stroke:none"
       id="path915" /><g
       id="g917"><g
         id="g919"
         clip-path="url(#clipPath923)"><text
           transform="matrix(1,0,0,-1,417.29,361.15)"
           style="font-variant:normal;font-weight:normal;font-size:18px;font-family:Calibri;-inkscape-font-specification:Calibri;writing-mode:lr-tb;fill:#ffffff;fill-opacity:1;fill-rule:nonzero;stroke:none"
           id="text927"><tspan
             x="0"
             y="0"
             id="tspan925">8</tspan></text></g></g><path
       d="m 469.92,367.74 c 0,9.25 7.47,16.74 16.68,16.74 9.21,0 16.68,-7.49 16.68,-16.74 0,-9.25 -7.47,-16.74 -16.68,-16.74 -9.21,0 -16.68,7.49 -16.68,16.74 z"
       style="fill:#ed7d31;fill-opacity:1;fill-rule:evenodd;stroke:none"
       id="path929" /><g
       id="g931"><g
         id="g933"
         clip-path="url(#clipPath937)"><text
           transform="matrix(1,0,0,-1,482.11,361.7)"
           style="font-variant:normal;font-weight:normal;font-size:18.024px;font-family:Calibri;-inkscape-font-specification:Calibri;writing-mode:lr-tb;fill:#ffffff;fill-opacity:1;fill-rule:nonzero;stroke:none"
           id="text941"><tspan
             x="0"
             y="0"
             id="tspan939">9</tspan></text></g></g><path
       d="m 534.72,368.04 c 0,9.21 7.47,16.68 16.68,16.68 9.21,0 16.68,-7.47 16.68,-16.68 0,-9.21 -7.47,-16.68 -16.68,-16.68 -9.21,0 -16.68,7.47 -16.68,16.68 z"
       style="fill:#ed7d31;fill-opacity:1;fill-rule:evenodd;stroke:none"
       id="path943" /><g
       id="g945"><g
         id="g947"
         clip-path="url(#clipPath951)"><text
           transform="matrix(1,0,0,-1,546.91,361.97)"
           style="font-variant:normal;font-weight:normal;font-size:18px;font-family:Calibri;-inkscape-font-specification:Calibri;writing-mode:lr-tb;fill:#ffffff;fill-opacity:1;fill-rule:nonzero;stroke:none"
           id="text955"><tspan
             x="0"
             y="0"
             id="tspan953">+</tspan></text></g></g><path
       d="m 340.32,301.92 c 0,9.21 7.47,16.68 16.68,16.68 9.21,0 16.68,-7.47 16.68,-16.68 0,-9.21 -7.47,-16.68 -16.68,-16.68 -9.21,0 -16.68,7.47 -16.68,16.68 z"
       style="fill:#ed7d31;fill-opacity:1;fill-rule:evenodd;stroke:none"
       id="path957" /><g
       id="g959"><g
         id="g961"
         clip-path="url(#clipPath965)"><text
           transform="matrix(1,0,0,-1,352.49,295.82)"
           style="font-variant:normal;font-weight:normal;font-size:18.024px;font-family:Calibri;-inkscape-font-specification:Calibri;writing-mode:lr-tb;fill:#ffffff;fill-opacity:1;fill-rule:nonzero;stroke:none"
           id="text969"><tspan
             x="0"
             y="0"
             id="tspan967">4</tspan></text></g></g><path
       d="m 405.12,301.92 c 0,9.21 7.47,16.68 16.68,16.68 9.21,0 16.68,-7.47 16.68,-16.68 0,-9.21 -7.47,-16.68 -16.68,-16.68 -9.21,0 -16.68,7.47 -16.68,16.68 z"
       style="fill:#ed7d31;fill-opacity:1;fill-rule:evenodd;stroke:none"
       id="path971" /><g
       id="g973"><g
         id="g975"
         clip-path="url(#clipPath979)"><text
           transform="matrix(1,0,0,-1,417.29,295.82)"
           style="font-variant:normal;font-weight:normal;font-size:18.024px;font-family:Calibri;-inkscape-font-specification:Calibri;writing-mode:lr-tb;fill:#ffffff;fill-opacity:1;fill-rule:nonzero;stroke:none"
           id="text983"><tspan
             x="0"
             y="0"
             id="tspan981">5</tspan></text></g></g><path
       d="m 469.92,302.4 c 0,9.21 7.47,16.68 16.68,16.68 9.21,0 16.68,-7.47 16.68,-16.68 0,-9.21 -7.47,-16.68 -16.68,-16.68 -9.21,0 -16.68,7.47 -16.68,16.68 z"
       style="fill:#ed7d31;fill-opacity:1;fill-rule:evenodd;stroke:none"
       id="path985" /><g
       id="g987"><g
         id="g989"
         clip-path="url(#clipPath993)"><text
           transform="matrix(1,0,0,-1,482.11,296.35)"
           style="font-variant:normal;font-weight:normal;font-size:18px;font-family:Calibri;-inkscape-font-specification:Calibri;writing-mode:lr-tb;fill:#ffffff;fill-opacity:1;fill-rule:nonzero;stroke:none"
           id="text997"><tspan
             x="0"
             y="0"
             id="tspan995">6</tspan></text></g></g><path
       d="m 534.72,302.64 c 0,9.21 7.47,16.68 16.68,16.68 9.21,0 16.68,-7.47 16.68,-16.68 0,-9.21 -7.47,-16.68 -16.68,-16.68 -9.21,0 -16.68,7.47 -16.68,16.68 z"
       style="fill:#ed7d31;fill-opacity:1;fill-rule:evenodd;stroke:none"
       id="path999" /><g
       id="g1001"><g
         id="g1003"
         clip-path="url(#clipPath1007)"><text
           transform="matrix(1,0,0,-1,548.71,296.62)"
           style="font-variant:normal;font-weight:normal;font-size:18px;font-family:Calibri;-inkscape-font-specification:Calibri;writing-mode:lr-tb;fill:#ffffff;fill-opacity:1;fill-rule:nonzero;stroke:none"
           id="text1011"><tspan
             x="0"
             y="0"
             id="tspan1009">-</tspan></text></g></g><path
       d="m 340.32,237.36 c 0,9.21 7.47,16.68 16.68,16.68 9.21,0 16.68,-7.47 16.68,-16.68 0,-9.21 -7.47,-16.68 -16.68,-16.68 -9.21,0 -16.68,7.47 -16.68,16.68 z"
       style="fill:#ed7d31;fill-opacity:1;fill-rule:evenodd;stroke:none"
       id="path1013" /><g
       id="g1015"><g
         id="g1017"
         clip-path="url(#clipPath1021)"><text
           transform="matrix(1,0,0,-1,352.49,231.24)"
           style="font-variant:normal;font-weight:normal;font-size:18px;font-family:Calibri;-inkscape-font-specification:Calibri;writing-mode:lr-tb;fill:#ffffff;fill-opacity:1;fill-rule:nonzero;stroke:none"
           id="text1025"><tspan
             x="0"
             y="0"
             id="tspan1023">1</tspan></text></g></g><path
       d="m 405.12,237.36 c 0,9.21 7.47,16.68 16.68,16.68 9.21,0 16.68,-7.47 16.68,-16.68 0,-9.21 -7.47,-16.68 -16.68,-16.68 -9.21,0 -16.68,7.47 -16.68,16.68 z"
       style="fill:#ed7d31;fill-opacity:1;fill-rule:evenodd;stroke:none"
       id="path1027" /><g
       id="g1029"><g
         id="g1031"
         clip-path="url(#clipPath1035)"><text
           transform="matrix(1,0,0,-1,417.29,231.24)"
           style="font-variant:normal;font-weight:normal;font-size:18px;font-family:Calibri;-inkscape-font-specification:Calibri;writing-mode:lr-tb;fill:#ffffff;fill-opacity:1;fill-rule:nonzero;stroke:none"
           id="text1039"><tspan
             x="0"
             y="0"
             id="tspan1037">2</tspan></text></g></g><path
       d="m 469.92,237.84 c 0,9.21 7.47,16.68 16.68,16.68 9.21,0 16.68,-7.47 16.68,-16.68 0,-9.21 -7.47,-16.68 -16.68,-16.68 -9.21,0 -16.68,7.47 -16.68,16.68 z"
       style="fill:#ed7d31;fill-opacity:1;fill-rule:evenodd;stroke:none"
       id="path1041" /><g
       id="g1043"><g
         id="g1045"
         clip-path="url(#clipPath1049)"><text
           transform="matrix(1,0,0,-1,482.11,231.77)"
           style="font-variant:normal;font-weight:normal;font-size:18px;font-family:Calibri;-inkscape-font-specification:Calibri;writing-mode:lr-tb;fill:#ffffff;fill-opacity:1;fill-rule:nonzero;stroke:none"
           id="text1053"><tspan
             x="0"
             y="0"
             id="tspan1051">3</tspan></text></g></g><path
       d="m 534.72,238.08 c 0,9.21 7.47,16.68 16.68,16.68 9.21,0 16.68,-7.47 16.68,-16.68 0,-9.21 -7.47,-16.68 -16.68,-16.68 -9.21,0 -16.68,7.47 -16.68,16.68 z"
       style="fill:#ed7d31;fill-opacity:1;fill-rule:evenodd;stroke:none"
       id="path1055" /><g
       id="g1057"><g
         id="g1059"
         clip-path="url(#clipPath1063)"><text
           transform="matrix(1,0,0,-1,546.91,232.06)"
           style="font-variant:normal;font-weight:normal;font-size:18px;font-family:Calibri;-inkscape-font-specification:Calibri;writing-mode:lr-tb;fill:#ffffff;fill-opacity:1;fill-rule:nonzero;stroke:none"
           id="text1067"><tspan
             x="0"
             y="0"
             id="tspan1065">*</tspan></text></g></g><path
       d="m 340.32,171.96 c 0,9.21 7.47,16.68 16.68,16.68 9.21,0 16.68,-7.47 16.68,-16.68 0,-9.21 -7.47,-16.68 -16.68,-16.68 -9.21,0 -16.68,7.47 -16.68,16.68 z"
       style="fill:#ed7d31;fill-opacity:1;fill-rule:evenodd;stroke:none"
       id="path1069" /><path
       d="m 405.12,171.96 c 0,9.21 7.47,16.68 16.68,16.68 9.21,0 16.68,-7.47 16.68,-16.68 0,-9.21 -7.47,-16.68 -16.68,-16.68 -9.21,0 -16.68,7.47 -16.68,16.68 z"
       style="fill:#ed7d31;fill-opacity:1;fill-rule:evenodd;stroke:none"
       id="path1071" /><g
       id="g1073"><g
         id="g1075"
         clip-path="url(#clipPath1079)"><text
           transform="matrix(1,0,0,-1,417.29,165.89)"
           style="font-variant:normal;font-weight:normal;font-size:18px;font-family:Calibri;-inkscape-font-specification:Calibri;writing-mode:lr-tb;fill:#ffffff;fill-opacity:1;fill-rule:nonzero;stroke:none"
           id="text1083"><tspan
             x="0"
             y="0"
             id="tspan1081">0</tspan></text></g></g><path
       d="m 469.92,171.96 c 0,9.21 7.47,16.68 16.68,16.68 9.21,0 16.68,-7.47 16.68,-16.68 0,-9.21 -7.47,-16.68 -16.68,-16.68 -9.21,0 -16.68,7.47 -16.68,16.68 z"
       style="fill:#ed7d31;fill-opacity:1;fill-rule:evenodd;stroke:none"
       id="path1085" /><g
       id="g1087"><g
         id="g1089"
         clip-path="url(#clipPath1093)"><text
           transform="matrix(1,0,0,-1,484.39,165.89)"
           style="font-variant:normal;font-weight:normal;font-size:18px;font-family:Calibri;-inkscape-font-specification:Calibri;writing-mode:lr-tb;fill:#ffffff;fill-opacity:1;fill-rule:nonzero;stroke:none"
           id="text1097"><tspan
             x="0"
             y="0"
             id="tspan1095">.</tspan></text></g></g><path
       d="m 534.72,171.96 c 0,9.21 7.47,16.68 16.68,16.68 9.21,0 16.68,-7.47 16.68,-16.68 0,-9.21 -7.47,-16.68 -16.68,-16.68 -9.21,0 -16.68,7.47 -16.68,16.68 z"
       style="fill:#ed7d31;fill-opacity:1;fill-rule:evenodd;stroke:none"
       id="path1099" /><g
       id="g1101"><g
         id="g1103"
         clip-path="url(#clipPath1107)"><text
           transform="matrix(1,0,0,-1,547.99,165.89)"
           style="font-variant:normal;font-weight:normal;font-size:18px;font-family:Calibri;-inkscape-font-specification:Calibri;writing-mode:lr-tb;fill:#ffffff;fill-opacity:1;fill-rule:nonzero;stroke:none"
           id="text1111"><tspan
             x="0"
             y="0"
             id="tspan1109">/</tspan></text></g></g><g
       id="g1113"><g
         id="g1115"
         clip-path="url(#clipPath1119)"><g
           id="g1121"
           transform="matrix(0.41667,0,-3.77e-7,0.41667,340.2,157.8)"><g
             id="g1123"
             transform="scale(12.467,12.478)"><g
               id="g1125"
               clip-path="url(#clipPath1129)"><path
                 d="M 5.0762,4.6414 H 4.6025 C 4.4784,4.6414 4.3769,4.5398 4.3769,4.4158 V 2.9212 H 2.4029 V 3.8405 L 0.50783,2.4643 2.4085,1.0882 V 2.0075 H 5.065 c 0.1297,0 0.2368,0.1071 0.2368,0.2369 v 2.1714 c 0,0.124 -0.1015,0.2256 -0.2256,0.2256 z"
                 style="fill:#ffffff;fill-opacity:1;fill-rule:nonzero;stroke:none"
                 id="path1131" /></g></g></g></g></g><path
       d="M 611.16,350.04 H 645 v 33.84 h -33.84 z"
       style="fill:#548235;fill-opacity:1;fill-rule:evenodd;stroke:none"
       id="path1133" /><g
       id="g1135"><g
         id="g1137"
         clip-path="url(#clipPath1141)"><text
           transform="matrix(1,0,0,-1,618.7,360.91)"
           style="font-variant:normal;font-weight:normal;font-size:18px;font-family:Calibri;-inkscape-font-specification:Calibri;writing-mode:lr-tb;fill:#ffffff;fill-opacity:1;fill-rule:nonzero;stroke:none"
           id="text1145"><tspan
             x="0 9.7200003"
             y="0"
             sodipodi:role="line"
             id="tspan1143">R3</tspan></text></g></g><path
       d="m 610.8,285.24 h 33.84 v 33.84 H 610.8 Z"
       style="fill:#548235;fill-opacity:1;fill-rule:evenodd;stroke:none"
       id="path1147" /><g
       id="g1149"><g
         id="g1151"
         clip-path="url(#clipPath1155)"><text
           transform="matrix(1,0,0,-1,618.41,296.09)"
           style="font-variant:normal;font-weight:normal;font-size:18px;font-family:Calibri;-inkscape-font-specification:Calibri;writing-mode:lr-tb;fill:#ffffff;fill-opacity:1;fill-rule:nonzero;stroke:none"
           id="text1159"><tspan
             x="0 9.7200003"
             y="0"
             sodipodi:role="line"
             id="tspan1157">R2</tspan></text></g></g><path
       d="m 611.52,220.44 h 33.84 v 33.84 h -33.84 z"
       style="fill:#548235;fill-opacity:1;fill-rule:evenodd;stroke:none"
       id="path1161" /><g
       id="g1163"><g
         id="g1165"
         clip-path="url(#clipPath1169)"><text
           transform="matrix(1,0,0,-1,619.08,231.31)"
           style="font-variant:normal;font-weight:normal;font-size:18px;font-family:Calibri;-inkscape-font-specification:Calibri;writing-mode:lr-tb;fill:#ffffff;fill-opacity:1;fill-rule:nonzero;stroke:none"
           id="text1173"><tspan
             x="0 9.7200003"
             y="0"
             sodipodi:role="line"
             id="tspan1171">R1</tspan></text></g></g><path
       d="m 610.8,155.64 h 33.84 v 33.84 H 610.8 Z"
       style="fill:#548235;fill-opacity:1;fill-rule:evenodd;stroke:none"
       id="path1175" /><g
       id="g1177"><g
         id="g1179"
         clip-path="url(#clipPath1183)"><text
           transform="matrix(1,0,0,-1,618.41,166.49)"
           style="font-variant:normal;font-weight:normal;font-size:18px;font-family:Calibri;-inkscape-font-specification:Calibri;writing-mode:lr-tb;fill:#ffffff;fill-opacity:1;fill-rule:nonzero;stroke:none"
           id="text1187"><tspan
             x="0 9.7200003"
             y="0"
             sodipodi:role="line"
             id="tspan1185">R0</tspan></text></g></g><path
       d="m 339.84,428.16 h 33.84 V 462 h -33.84 z"
       style="fill:#548235;fill-opacity:1;fill-rule:evenodd;stroke:none"
       id="path1189" /><g
       id="g1191"><g
         id="g1193"
         clip-path="url(#clipPath1197)"><text
           transform="matrix(1,0,0,-1,347.38,439.01)"
           style="font-variant:normal;font-weight:normal;font-size:18px;font-family:Calibri;-inkscape-font-specification:Calibri;writing-mode:lr-tb;fill:#ffffff;fill-opacity:1;fill-rule:nonzero;stroke:none"
           id="text1201"><tspan
             x="0 9.6000004"
             y="0"
             sodipodi:role="line"
             id="tspan1199">C0</tspan></text></g></g><path
       d="m 404.64,427.8 h 33.84 v 33.84 h -33.84 z"
       style="fill:#548235;fill-opacity:1;fill-rule:evenodd;stroke:none"
       id="path1203" /><g
       id="g1205"><g
         id="g1207"
         clip-path="url(#clipPath1211)"><text
           transform="matrix(1,0,0,-1,412.18,438.72)"
           style="font-variant:normal;font-weight:normal;font-size:18px;font-family:Calibri;-inkscape-font-specification:Calibri;writing-mode:lr-tb;fill:#ffffff;fill-opacity:1;fill-rule:nonzero;stroke:none"
           id="text1215"><tspan
             x="0 9.6000004"
             y="0"
             sodipodi:role="line"
             id="tspan1213">C1</tspan></text></g></g><path
       d="m 469.44,428.52 h 33.84 v 33.84 h -33.84 z"
       style="fill:#548235;fill-opacity:1;fill-rule:evenodd;stroke:none"
       id="path1217" /><g
       id="g1219"><g
         id="g1221"
         clip-path="url(#clipPath1225)"><text
           transform="matrix(1,0,0,-1,476.98,439.39)"
           style="font-variant:normal;font-weight:normal;font-size:18px;font-family:Calibri;-inkscape-font-specification:Calibri;writing-mode:lr-tb;fill:#ffffff;fill-opacity:1;fill-rule:nonzero;stroke:none"
           id="text1229"><tspan
             x="0"
             y="0"
             id="tspan1227">C</tspan></text></g></g><g
       id="g1231"><g
         id="g1233"
         clip-path="url(#clipPath1237)"><text
           transform="matrix(1,0,0,-1,486.58,439.39)"
           style="font-variant:normal;font-weight:normal;font-size:18px;font-family:Calibri;-inkscape-font-specification:Calibri;writing-mode:lr-tb;fill:#ffffff;fill-opacity:1;fill-rule:nonzero;stroke:none"
           id="text1241"><tspan
             x="0"
             y="0"
             id="tspan1239">2</tspan></text></g></g><path
       d="m 534.24,427.8 h 33.84 v 33.84 h -33.84 z"
       style="fill:#548235;fill-opacity:1;fill-rule:evenodd;stroke:none"
       id="path1243" /><g
       id="g1245"><g
         id="g1247"
         clip-path="url(#clipPath1251)"><text
           transform="matrix(1,0,0,-1,541.78,438.72)"
           style="font-variant:normal;font-weight:normal;font-size:18px;font-family:Calibri;-inkscape-font-specification:Calibri;writing-mode:lr-tb;fill:#ffffff;fill-opacity:1;fill-rule:nonzero;stroke:none"
           id="text1255"><tspan
             x="0 9.6000004"
             y="0"
             sodipodi:role="line"
             id="tspan1253">C3</tspan></text></g></g></g></svg>
