<?xml version="1.0" encoding="UTF-8" standalone="no"?>
<svg
   xmlns:dc="http://purl.org/dc/elements/1.1/"
   xmlns:cc="http://creativecommons.org/ns#"
   xmlns:rdf="http://www.w3.org/1999/02/22-rdf-syntax-ns#"
   xmlns:svg="http://www.w3.org/2000/svg"
   xmlns="http://www.w3.org/2000/svg"
   xmlns:sodipodi="http://sodipodi.sourceforge.net/DTD/sodipodi-0.dtd"
   xmlns:inkscape="http://www.inkscape.org/namespaces/inkscape"
   version="1.1"
   id="svg2542"
   xml:space="preserve"
   width="631.83997"
   height="312.63998"
   viewBox="0 0 631.83997 312.63998"
   sodipodi:docname="CalculateArray.svg"
   inkscape:version="1.0.1 (3bc2e813f5, 2020-09-07)"><metadata
     id="metadata2548"><rdf:RDF><cc:Work
         rdf:about=""><dc:format>image/svg+xml</dc:format><dc:type
           rdf:resource="http://purl.org/dc/dcmitype/StillImage" /><dc:title></dc:title></cc:Work></rdf:RDF></metadata><defs
     id="defs2546"><clipPath
       clipPathUnits="userSpaceOnUse"
       id="clipPath2558"><path
         d="M 0,1.2207e-4 H 960 V 540.00012 H 0 Z"
         clip-rule="evenodd"
         id="path2556" /></clipPath><clipPath
       clipPathUnits="userSpaceOnUse"
       id="clipPath2568"><path
         d="M 7.629e-6,540 H 960 V 2.4414e-4 L 1.1444e-5,1.8311e-4"
         clip-rule="evenodd"
         id="path2566" /></clipPath><clipPath
       clipPathUnits="userSpaceOnUse"
       id="clipPath2580"><path
         d="M 1.4305e-5,0 H 960.00001 V 540 H 1.4305e-5 Z"
         clip-rule="evenodd"
         id="path2578" /></clipPath><clipPath
       clipPathUnits="userSpaceOnUse"
       id="clipPath2592"><path
         d="M 0,540 H 960 V 2.4414e-4 L 7.629e-6,1.8311e-4"
         clip-rule="evenodd"
         id="path2590" /></clipPath><clipPath
       clipPathUnits="userSpaceOnUse"
       id="clipPath2604"><path
         d="M 1.4305e-5,0 H 960.00001 V 540 H 1.4305e-5 Z"
         clip-rule="evenodd"
         id="path2602" /></clipPath><clipPath
       clipPathUnits="userSpaceOnUse"
       id="clipPath2618"><path
         d="M 1.4305e-5,0 H 960.00001 V 540 H 1.4305e-5 Z"
         clip-rule="evenodd"
         id="path2616" /></clipPath><clipPath
       clipPathUnits="userSpaceOnUse"
       id="clipPath2630"><path
         d="M 1.4305e-5,0 H 960.00001 V 540 H 1.4305e-5 Z"
         clip-rule="evenodd"
         id="path2628" /></clipPath><clipPath
       clipPathUnits="userSpaceOnUse"
       id="clipPath2644"><path
         d="M 1.4305e-5,0 H 960.00001 V 540 H 1.4305e-5 Z"
         clip-rule="evenodd"
         id="path2642" /></clipPath><clipPath
       clipPathUnits="userSpaceOnUse"
       id="clipPath2656"><path
         d="M 1.4305e-5,0 H 960.00001 V 540 H 1.4305e-5 Z"
         clip-rule="evenodd"
         id="path2654" /></clipPath><clipPath
       clipPathUnits="userSpaceOnUse"
       id="clipPath2668"><path
         d="M 1.4305e-5,0 H 960.00001 V 540 H 1.4305e-5 Z"
         clip-rule="evenodd"
         id="path2666" /></clipPath><clipPath
       clipPathUnits="userSpaceOnUse"
       id="clipPath2682"><path
         d="M 1.4305e-5,0 H 960.00001 V 540 H 1.4305e-5 Z"
         clip-rule="evenodd"
         id="path2680" /></clipPath><clipPath
       clipPathUnits="userSpaceOnUse"
       id="clipPath2696"><path
         d="M 1.4305e-5,0 H 960.00001 V 540 H 1.4305e-5 Z"
         clip-rule="evenodd"
         id="path2694" /></clipPath><clipPath
       clipPathUnits="userSpaceOnUse"
       id="clipPath2708"><path
         d="M 0,540 H 960 V 3.0518e-4 L 3.815e-6,2.4414e-4"
         clip-rule="evenodd"
         id="path2706" /></clipPath><clipPath
       clipPathUnits="userSpaceOnUse"
       id="clipPath2720"><path
         d="M 1.4305e-5,0 H 960.00001 V 540 H 1.4305e-5 Z"
         clip-rule="evenodd"
         id="path2718" /></clipPath><clipPath
       clipPathUnits="userSpaceOnUse"
       id="clipPath2732"><path
         d="M 1.4305e-5,0 H 960.00001 V 540 H 1.4305e-5 Z"
         clip-rule="evenodd"
         id="path2730" /></clipPath></defs><sodipodi:namedview
     pagecolor="#ffffff"
     bordercolor="#666666"
     borderopacity="1"
     objecttolerance="10"
     gridtolerance="10"
     guidetolerance="10"
     inkscape:pageopacity="0"
     inkscape:pageshadow="2"
     inkscape:window-width="2560"
     inkscape:window-height="1377"
     id="namedview2544"
     showgrid="false"
     fit-margin-top="0"
     fit-margin-left="0"
     fit-margin-right="0"
     fit-margin-bottom="0"
     inkscape:zoom="0.89609375"
     inkscape:cx="601.12"
     inkscape:cy="338.87998"
     inkscape:window-x="-8"
     inkscape:window-y="-8"
     inkscape:window-maximized="1"
     inkscape:current-layer="g2550" /><g
     id="g2550"
     inkscape:groupmode="layer"
     inkscape:label="CalculateArray"
     transform="matrix(1.3333333,0,0,-1.3333333,-38.879999,698.87998)"><g
       id="g2562"><g
         id="g2564"
         clip-path="url(#clipPath2568)"><path
           d="M 40.8,289.68 H 61.92 V 500.16 H 40.8 Z"
           style="fill:#ed7d31;fill-opacity:1;fill-rule:evenodd;stroke:none"
           id="path2570" /></g></g><path
       d="m 40.8,471.36 h 462.24 v 28.8 H 40.8 Z"
       style="fill:#ed7d31;fill-opacity:1;fill-rule:evenodd;stroke:none"
       id="path2572" /><g
       id="g2574"><g
         id="g2576"
         clip-path="url(#clipPath2580)"><text
           transform="matrix(1,0,0,-1,48.024,479.74)"
           style="font-variant:normal;font-weight:normal;font-size:18px;font-family:Calibri;-inkscape-font-specification:Calibri;writing-mode:lr-tb;fill:#000000;fill-opacity:1;fill-rule:nonzero;stroke:none"
           id="text2584"><tspan
             x="0 10.422 16.704 22.554001 30.834 38.987999 43.056 52.506001 62.009998 68.003998 75.564003 85.014 93.491997 102.456 111.906 120.906"
             y="0"
             sodipodi:role="line"
             id="tspan2582">Array durchgehen</tspan></text></g></g><g
       id="g2586"><g
         id="g2588"
         clip-path="url(#clipPath2592)"><path
           d="M 64.32,289.68 H 85.44 V 466.56 H 64.32 Z"
           style="fill:#4472c4;fill-opacity:1;fill-rule:evenodd;stroke:none"
           id="path2594" /></g></g><path
       d="m 64.32,440.16 h 438.72 v 28.8 H 64.32 Z"
       style="fill:#4472c4;fill-opacity:1;fill-rule:evenodd;stroke:none"
       id="path2596" /><g
       id="g2598"><g
         id="g2600"
         clip-path="url(#clipPath2604)"><text
           transform="matrix(1,0,0,-1,71.496,448.58)"
           style="font-variant:normal;font-weight:normal;font-size:18.024px;font-family:Calibri;-inkscape-font-specification:Calibri;writing-mode:lr-tb;fill:#000000;fill-opacity:1;fill-rule:nonzero;stroke:none"
           id="text2608"><tspan
             x="0 12.724944 21.700895 31.163496 40.662144 44.843712 53.477207 61.515911 67.553955 77.016556 85.9925 90.083954 94.157379 103.13333 110.21676 114.29018 123.0859 127.1413 136.11725 150.51842 159.49437 168.90291 174.94095 179.01437 183.43025 192.4062 196.9122 201.16586 210.66451 220.12711 229.10306 235.39343 239.53896 243.97287 250.93013 255.36403 259.54559 263.61902 270.45013"
             y="0"
             sodipodi:role="line"
             id="tspan2606">wenn aktuelles Element ‘*‘ oder ‘/‘ ist</tspan></text></g></g><path
       d="M 87.72,402.36 H 503.04 V 437.4 H 87.72 Z"
       style="fill:#d9d9d9;fill-opacity:1;fill-rule:evenodd;stroke:none"
       id="path2610" /><g
       id="g2612"><g
         id="g2614"
         clip-path="url(#clipPath2618)"><text
           transform="matrix(1,0,0,-1,94.944,413.81)"
           style="font-variant:normal;font-weight:normal;font-size:18px;font-family:Calibri;-inkscape-font-specification:Calibri;writing-mode:lr-tb;fill:#f4b183;fill-opacity:1;fill-rule:nonzero;stroke:none"
           id="text2622"><tspan
             x="0 8.7840004 14.76 23.166 32.130001 41.633999 51.084 55.223999"
             y="0"
             sodipodi:role="line"
             id="tspan2620">Ergebnis</tspan></text></g></g><g
       id="g2624"><g
         id="g2626"
         clip-path="url(#clipPath2630)"><text
           transform="matrix(1,0,0,-1,161.33,413.81)"
           style="font-variant:normal;font-weight:normal;font-size:18px;font-family:Calibri;-inkscape-font-specification:Calibri;writing-mode:lr-tb;fill:#000000;fill-opacity:1;fill-rule:nonzero;stroke:none"
           id="text2634"><tspan
             x="0 8.9639997 13.032 21.167999 30.6 36.882 46.332001 55.296001 61.577999 65.646004 74.052002 83.015999 87.227997 95.508003 104.13 113.58 117.72 121.788 126.234 135.198 139.698 143.98199 153.468 162.918 171.918 178.2 182.34 186.786 193.73399 198.23399 202.37399 210.996 219.06 225.09 234.53999 243.504 247.644 251.694 260.65799 264.87 273.14999 281.772 291.22198 295.362"
             y="0"
             sodipodi:role="line"
             id="tspan2632">= vorherige Zahl ‘*‘ oder ‘/‘ aktuelle Zahl;</tspan></text></g></g><path
       d="m 87.72,365.4 h 415.32 v 35.04 H 87.72 Z"
       style="fill:#d9d9d9;fill-opacity:1;fill-rule:evenodd;stroke:none"
       id="path2636" /><g
       id="g2638"><g
         id="g2640"
         clip-path="url(#clipPath2644)"><text
           transform="matrix(1,0,0,-1,94.944,376.87)"
           style="font-variant:normal;font-weight:normal;font-size:18px;font-family:Calibri;-inkscape-font-specification:Calibri;writing-mode:lr-tb;fill:#000000;fill-opacity:1;fill-rule:nonzero;stroke:none"
           id="text2648"><tspan
             x="0 9.4860001 18.972 25.254 34.703999 43.667999 49.950001 54 62.405998 71.370003 75.582001 83.862 92.484001 101.934 106.074 110.25 119.214"
             y="0"
             sodipodi:role="line"
             id="tspan2646">Vorherige Zahl = </tspan></text></g></g><g
       id="g2650"><g
         id="g2652"
         clip-path="url(#clipPath2656)"><text
           transform="matrix(1,0,0,-1,218.33,376.87)"
           style="font-variant:normal;font-weight:normal;font-size:18px;font-family:Calibri;-inkscape-font-specification:Calibri;writing-mode:lr-tb;fill:#f4b183;fill-opacity:1;fill-rule:nonzero;stroke:none"
           id="text2660"><tspan
             x="0 8.7840004 14.76 23.166 32.130001 41.633999 51.084 55.223999"
             y="0"
             sodipodi:role="line"
             id="tspan2658">Ergebnis</tspan></text></g></g><g
       id="g2662"><g
         id="g2664"
         clip-path="url(#clipPath2668)"><text
           transform="matrix(1,0,0,-1,280.61,376.87)"
           style="font-variant:normal;font-weight:normal;font-size:18px;font-family:Calibri;-inkscape-font-specification:Calibri;writing-mode:lr-tb;fill:#000000;fill-opacity:1;fill-rule:nonzero;stroke:none"
           id="text2672"><tspan
             x="0"
             y="0"
             id="tspan2670">;</tspan></text></g></g><path
       d="m 87.72,327.48 h 415.32 v 35.04 H 87.72 Z"
       style="fill:#d9d9d9;fill-opacity:1;fill-rule:evenodd;stroke:none"
       id="path2674" /><g
       id="g2676"><g
         id="g2678"
         clip-path="url(#clipPath2682)"><text
           transform="matrix(1,0,0,-1,94.944,339)"
           style="font-variant:normal;font-weight:normal;font-size:18px;font-family:Calibri;-inkscape-font-specification:Calibri;writing-mode:lr-tb;fill:#000000;fill-opacity:1;fill-rule:nonzero;stroke:none"
           id="text2686"><tspan
             x="0 9.7740002 19.224001 26.766001 34.326 43.290001 47.501999 56.952 65.573997 72.683998 76.751999 87.174004 93.456001 99.323997 107.604 115.758 119.826 129.276 143.71201 147.78 156.744 160.884 170.334 174.528 183.312 187.362 196.326 210.70799 219.744 229.104 235.134 239.202 247.82401 257.27399 262.79999"
             y="0"
             sodipodi:role="line"
             id="tspan2684">Rücke das Array um ein Element auf;</tspan></text></g></g><path
       d="m 87.72,289.68 h 415.32 v 35.04 H 87.72 Z"
       style="fill:#d9d9d9;fill-opacity:1;fill-rule:evenodd;stroke:none"
       id="path2688" /><g
       id="g2690"><g
         id="g2692"
         clip-path="url(#clipPath2696)"><text
           transform="matrix(1,0,0,-1,94.944,301.13)"
           style="font-variant:normal;font-weight:normal;font-size:18.024px;font-family:Calibri;-inkscape-font-specification:Calibri;writing-mode:lr-tb;fill:#000000;fill-opacity:1;fill-rule:nonzero;stroke:none"
           id="text2700"><tspan
             x="0 10.435896 16.726273 22.566048 30.839064 39.003937 43.077358 52.539959 62.00256 68.040604 75.592659 85.05526 93.472466 102.44842 111.91102 120.94104 130.40364 134.60323 147.49039 151.52777 160.50372 169.96632 178.99634 185.28671 189.41422 197.45293 206.95157 216.41417 220.48759 228.52629 238.02495 244.24323 253.70583 262.68176 266.75519 277.1911 286.65369 291.75449 300.38797 309.85059 318.26779 327.24374 336.70633"
             y="0"
             sodipodi:role="line"
             id="tspan2698">Array durchgehen wieder von vorne Anfangen;</tspan></text></g></g><g
       id="g2702"><g
         id="g2704"
         clip-path="url(#clipPath2708)"><path
           d="M 29.16,289.68 H 41.52 V 524.16 H 29.16 Z"
           style="fill:#ffd966;fill-opacity:1;fill-rule:evenodd;stroke:none"
           id="path2710" /></g></g><path
       d="m 29.16,499.92 h 473.88 v 24.24 H 29.16 Z"
       style="fill:#ffd966;fill-opacity:1;fill-rule:evenodd;stroke:none"
       id="path2712" /><g
       id="g2714"><g
         id="g2716"
         clip-path="url(#clipPath2720)"><text
           transform="matrix(1,0,0,-1,36.336,506.04)"
           style="font-variant:normal;font-weight:normal;font-size:18px;font-family:Calibri;-inkscape-font-specification:Calibri;writing-mode:lr-tb;fill:#000000;fill-opacity:1;fill-rule:nonzero;stroke:none"
           id="text2724"><tspan
             x="0 5.994 14.958 22.572001 32.021999 41.472 50.490002"
             y="0"
             sodipodi:role="line"
             id="tspan2722">rechner</tspan></text></g></g><g
       id="g2726"><g
         id="g2728"
         clip-path="url(#clipPath2732)"><text
           transform="matrix(1,0,0,-1,93.12,506.04)"
           style="font-variant:normal;font-weight:normal;font-size:18px;font-family:Calibri;-inkscape-font-specification:Calibri;writing-mode:lr-tb;fill:#000000;fill-opacity:1;fill-rule:nonzero;stroke:none"
           id="text2736"><tspan
             x="0 5.4000001"
             y="0"
             sodipodi:role="line"
             id="tspan2734">()</tspan></text></g></g></g></svg>
