<?xml version="1.0" encoding="UTF-8" standalone="no"?>
<svg
   xmlns:dc="http://purl.org/dc/elements/1.1/"
   xmlns:cc="http://creativecommons.org/ns#"
   xmlns:rdf="http://www.w3.org/1999/02/22-rdf-syntax-ns#"
   xmlns:svg="http://www.w3.org/2000/svg"
   xmlns="http://www.w3.org/2000/svg"
   xmlns:sodipodi="http://sodipodi.sourceforge.net/DTD/sodipodi-0.dtd"
   xmlns:inkscape="http://www.inkscape.org/namespaces/inkscape"
   version="1.1"
   id="svg833"
   xml:space="preserve"
   width="616.32001"
   height="563.83997"
   viewBox="0 0 616.32001 563.83997"
   sodipodi:docname="CalculateArray.svg"
   inkscape:version="1.0.1 (3bc2e813f5, 2020-09-07)"><metadata
     id="metadata839"><rdf:RDF><cc:Work
         rdf:about=""><dc:format>image/svg+xml</dc:format><dc:type
           rdf:resource="http://purl.org/dc/dcmitype/StillImage" /><dc:title></dc:title></cc:Work></rdf:RDF></metadata><defs
     id="defs837"><clipPath
       clipPathUnits="userSpaceOnUse"
       id="clipPath849"><path
         d="M 0,1.2207e-4 H 960 V 540.00012 H 0 Z"
         clip-rule="evenodd"
         id="path847" /></clipPath><clipPath
       clipPathUnits="userSpaceOnUse"
       id="clipPath859"><path
         d="M 7.629e-6,540 H 960 V 2.4414e-4 L 1.1444e-5,1.8311e-4"
         clip-rule="evenodd"
         id="path857" /></clipPath><clipPath
       clipPathUnits="userSpaceOnUse"
       id="clipPath871"><path
         d="M 1.4305e-5,0 H 960.00001 V 540 H 1.4305e-5 Z"
         clip-rule="evenodd"
         id="path869" /></clipPath><clipPath
       clipPathUnits="userSpaceOnUse"
       id="clipPath883"><path
         d="M 0,540 H 960 V 2.4414e-4 L 7.629e-6,1.8311e-4"
         clip-rule="evenodd"
         id="path881" /></clipPath><clipPath
       clipPathUnits="userSpaceOnUse"
       id="clipPath895"><path
         d="M 1.4305e-5,0 H 960.00001 V 540 H 1.4305e-5 Z"
         clip-rule="evenodd"
         id="path893" /></clipPath><clipPath
       clipPathUnits="userSpaceOnUse"
       id="clipPath907"><path
         d="M 1.4305e-5,0 H 960.00001 V 540 H 1.4305e-5 Z"
         clip-rule="evenodd"
         id="path905" /></clipPath><clipPath
       clipPathUnits="userSpaceOnUse"
       id="clipPath919"><path
         d="M 1.4305e-5,0 H 960.00001 V 540 H 1.4305e-5 Z"
         clip-rule="evenodd"
         id="path917" /></clipPath><clipPath
       clipPathUnits="userSpaceOnUse"
       id="clipPath933"><path
         d="M 1.4305e-5,0 H 960.00001 V 540 H 1.4305e-5 Z"
         clip-rule="evenodd"
         id="path931" /></clipPath><clipPath
       clipPathUnits="userSpaceOnUse"
       id="clipPath945"><path
         d="M 1.4305e-5,0 H 960.00001 V 540 H 1.4305e-5 Z"
         clip-rule="evenodd"
         id="path943" /></clipPath><clipPath
       clipPathUnits="userSpaceOnUse"
       id="clipPath959"><path
         d="M 1.4305e-5,0 H 960.00001 V 540 H 1.4305e-5 Z"
         clip-rule="evenodd"
         id="path957" /></clipPath><clipPath
       clipPathUnits="userSpaceOnUse"
       id="clipPath971"><path
         d="M 1.4305e-5,0 H 960.00001 V 540 H 1.4305e-5 Z"
         clip-rule="evenodd"
         id="path969" /></clipPath><clipPath
       clipPathUnits="userSpaceOnUse"
       id="clipPath983"><path
         d="M 1.4305e-5,0 H 960.00001 V 540 H 1.4305e-5 Z"
         clip-rule="evenodd"
         id="path981" /></clipPath><clipPath
       clipPathUnits="userSpaceOnUse"
       id="clipPath997"><path
         d="M 1.4305e-5,0 H 960.00001 V 540 H 1.4305e-5 Z"
         clip-rule="evenodd"
         id="path995" /></clipPath><clipPath
       clipPathUnits="userSpaceOnUse"
       id="clipPath1011"><path
         d="M 1.4305e-5,0 H 960.00001 V 540 H 1.4305e-5 Z"
         clip-rule="evenodd"
         id="path1009" /></clipPath><clipPath
       clipPathUnits="userSpaceOnUse"
       id="clipPath1023"><path
         d="M 7.629e-6,540 H 960 V 1.8311e-4 H 1.1444e-5"
         clip-rule="evenodd"
         id="path1021" /></clipPath><clipPath
       clipPathUnits="userSpaceOnUse"
       id="clipPath1035"><path
         d="M 1.4305e-5,0 H 960.00001 V 540 H 1.4305e-5 Z"
         clip-rule="evenodd"
         id="path1033" /></clipPath><clipPath
       clipPathUnits="userSpaceOnUse"
       id="clipPath1047"><path
         d="M 0,540 H 960 V 1.8311e-4 H 7.629e-6"
         clip-rule="evenodd"
         id="path1045" /></clipPath><clipPath
       clipPathUnits="userSpaceOnUse"
       id="clipPath1059"><path
         d="M 1.4305e-5,0 H 960.00001 V 540 H 1.4305e-5 Z"
         clip-rule="evenodd"
         id="path1057" /></clipPath><clipPath
       clipPathUnits="userSpaceOnUse"
       id="clipPath1071"><path
         d="M 1.4305e-5,0 H 960.00001 V 540 H 1.4305e-5 Z"
         clip-rule="evenodd"
         id="path1069" /></clipPath><clipPath
       clipPathUnits="userSpaceOnUse"
       id="clipPath1083"><path
         d="M 1.4305e-5,0 H 960.00001 V 540 H 1.4305e-5 Z"
         clip-rule="evenodd"
         id="path1081" /></clipPath><clipPath
       clipPathUnits="userSpaceOnUse"
       id="clipPath1095"><path
         d="M 1.4305e-5,0 H 960.00001 V 540 H 1.4305e-5 Z"
         clip-rule="evenodd"
         id="path1093" /></clipPath><clipPath
       clipPathUnits="userSpaceOnUse"
       id="clipPath1107"><path
         d="M 1.4305e-5,0 H 960.00001 V 540 H 1.4305e-5 Z"
         clip-rule="evenodd"
         id="path1105" /></clipPath><clipPath
       clipPathUnits="userSpaceOnUse"
       id="clipPath1121"><path
         d="M 1.4305e-5,0 H 960.00001 V 540 H 1.4305e-5 Z"
         clip-rule="evenodd"
         id="path1119" /></clipPath><clipPath
       clipPathUnits="userSpaceOnUse"
       id="clipPath1133"><path
         d="M 1.4305e-5,0 H 960.00001 V 540 H 1.4305e-5 Z"
         clip-rule="evenodd"
         id="path1131" /></clipPath><clipPath
       clipPathUnits="userSpaceOnUse"
       id="clipPath1145"><path
         d="M 1.4305e-5,0 H 960.00001 V 540 H 1.4305e-5 Z"
         clip-rule="evenodd"
         id="path1143" /></clipPath><clipPath
       clipPathUnits="userSpaceOnUse"
       id="clipPath1157"><path
         d="M 1.4305e-5,0 H 960.00001 V 540 H 1.4305e-5 Z"
         clip-rule="evenodd"
         id="path1155" /></clipPath><clipPath
       clipPathUnits="userSpaceOnUse"
       id="clipPath1171"><path
         d="M 1.4305e-5,0 H 960.00001 V 540 H 1.4305e-5 Z"
         clip-rule="evenodd"
         id="path1169" /></clipPath><clipPath
       clipPathUnits="userSpaceOnUse"
       id="clipPath1183"><path
         d="M 1.4305e-5,0 H 960.00001 V 540 H 1.4305e-5 Z"
         clip-rule="evenodd"
         id="path1181" /></clipPath><clipPath
       clipPathUnits="userSpaceOnUse"
       id="clipPath1195"><path
         d="M 1.4305e-5,0 H 960.00001 V 540 H 1.4305e-5 Z"
         clip-rule="evenodd"
         id="path1193" /></clipPath><clipPath
       clipPathUnits="userSpaceOnUse"
       id="clipPath1209"><path
         d="M 1.4305e-5,0 H 960.00001 V 540 H 1.4305e-5 Z"
         clip-rule="evenodd"
         id="path1207" /></clipPath><clipPath
       clipPathUnits="userSpaceOnUse"
       id="clipPath1223"><path
         d="M 1.4305e-5,0 H 960.00001 V 540 H 1.4305e-5 Z"
         clip-rule="evenodd"
         id="path1221" /></clipPath></defs><sodipodi:namedview
     pagecolor="#ffffff"
     bordercolor="#666666"
     borderopacity="1"
     objecttolerance="10"
     gridtolerance="10"
     guidetolerance="10"
     inkscape:pageopacity="0"
     inkscape:pageshadow="2"
     inkscape:window-width="2560"
     inkscape:window-height="1377"
     id="namedview835"
     showgrid="false"
     fit-margin-top="0"
     fit-margin-left="0"
     fit-margin-right="0"
     fit-margin-bottom="0"
     inkscape:zoom="0.7234375"
     inkscape:cx="375.38729"
     inkscape:cy="565.25932"
     inkscape:window-x="-8"
     inkscape:window-y="-8"
     inkscape:window-maximized="1"
     inkscape:current-layer="g841" /><g
     id="g841"
     inkscape:groupmode="layer"
     inkscape:label="CalculateArray"
     transform="matrix(1.3333333,0,0,-1.3333333,-54.399999,666.87998)"><g
       id="g853"><g
         id="g855"
         clip-path="url(#clipPath859)"><path
           d="M 40.8,289.68 H 61.92 V 500.16 H 40.8 Z"
           style="fill:#ed7d31;fill-opacity:1;fill-rule:evenodd;stroke:none"
           id="path861" /></g></g><path
       d="m 40.8,471.36 h 462.24 v 28.8 H 40.8 Z"
       style="fill:#ed7d31;fill-opacity:1;fill-rule:evenodd;stroke:none"
       id="path863" /><g
       id="g865"><g
         id="g867"
         clip-path="url(#clipPath871)"><text
           transform="matrix(1,0,0,-1,48.024,479.74)"
           style="font-variant:normal;font-weight:normal;font-size:18px;font-family:Calibri;-inkscape-font-specification:Calibri;writing-mode:lr-tb;fill:#000000;fill-opacity:1;fill-rule:nonzero;stroke:none"
           id="text875"><tspan
             x="0 10.422 16.704 22.554001 30.834 38.987999 43.056 52.506001 62.009998 68.003998 75.564003 85.014 93.491997 102.456 111.906 120.906"
             y="0"
             sodipodi:role="line"
             id="tspan873">Array durchgehen</tspan></text></g></g><g
       id="g877"><g
         id="g879"
         clip-path="url(#clipPath883)"><path
           d="M 64.32,289.68 H 85.44 V 466.56 H 64.32 Z"
           style="fill:#4472c4;fill-opacity:1;fill-rule:evenodd;stroke:none"
           id="path885" /></g></g><path
       d="m 64.32,440.16 h 438.72 v 28.8 H 64.32 Z"
       style="fill:#4472c4;fill-opacity:1;fill-rule:evenodd;stroke:none"
       id="path887" /><g
       id="g889"><g
         id="g891"
         clip-path="url(#clipPath895)"><text
           transform="matrix(1,0,0,-1,71.496,448.58)"
           style="font-variant:normal;font-weight:normal;font-size:18.024px;font-family:Calibri;-inkscape-font-specification:Calibri;writing-mode:lr-tb;fill:#000000;fill-opacity:1;fill-rule:nonzero;stroke:none"
           id="text899"><tspan
             x="0 12.724944 21.700895 31.163496"
             y="0"
             sodipodi:role="line"
             id="tspan897">wenn</tspan></text></g></g><g
       id="g901"><g
         id="g903"
         clip-path="url(#clipPath907)"><text
           transform="matrix(1,0,0,-1,116.38,448.58)"
           style="font-variant:normal;font-weight:normal;font-size:18.024px;font-family:Calibri;-inkscape-font-specification:Calibri;writing-mode:lr-tb;fill:#000000;fill-opacity:1;fill-rule:nonzero;stroke:none"
           id="text911"><tspan
             x="0 8.6334963 16.672199 22.710239 32.17284 41.148792 45.240238 49.313663 58.289616"
             y="0"
             sodipodi:role="line"
             id="tspan909">aktuelles</tspan></text></g></g><g
       id="g913"><g
         id="g915"
         clip-path="url(#clipPath919)"><text
           transform="matrix(1,0,0,-1,185.86,448.58)"
           style="font-variant:normal;font-weight:normal;font-size:18.024px;font-family:Calibri;-inkscape-font-specification:Calibri;writing-mode:lr-tb;fill:#000000;fill-opacity:1;fill-rule:nonzero;stroke:none"
           id="text923"><tspan
             x="0 8.7957125 12.833088 21.80904 36.210217 45.186169 54.594696 60.632736 64.706161 69.12204 78.097992 82.603989 86.857658 96.3563 105.8189 114.79485 121.08524 125.23075 129.66466 136.62192 141.05582 145.2374 149.31082 156.14191"
             y="0"
             sodipodi:role="line"
             id="tspan921">Element ‘*‘ oder ‘/‘ ist</tspan></text></g></g><path
       d="M 87.72,402.36 H 503.04 V 437.4 H 87.72 Z"
       style="fill:#d9d9d9;fill-opacity:1;fill-rule:evenodd;stroke:none"
       id="path925" /><g
       id="g927"><g
         id="g929"
         clip-path="url(#clipPath933)"><text
           transform="matrix(1,0,0,-1,94.944,413.81)"
           style="font-variant:normal;font-weight:normal;font-size:18px;font-family:Calibri;-inkscape-font-specification:Calibri;writing-mode:lr-tb;fill:#f4b183;fill-opacity:1;fill-rule:nonzero;stroke:none"
           id="text937"><tspan
             x="0 8.7840004 14.76 23.166 32.130001 41.633999 51.084 55.223999"
             y="0"
             sodipodi:role="line"
             id="tspan935">Ergebnis</tspan></text></g></g><g
       id="g939"><g
         id="g941"
         clip-path="url(#clipPath945)"><text
           transform="matrix(1,0,0,-1,161.33,413.81)"
           style="font-variant:normal;font-weight:normal;font-size:18px;font-family:Calibri;-inkscape-font-specification:Calibri;writing-mode:lr-tb;fill:#000000;fill-opacity:1;fill-rule:nonzero;stroke:none"
           id="text949"><tspan
             x="0 8.9639997 13.032 21.167999 30.6 36.882 46.332001 55.296001 61.577999 65.646004 74.052002 83.015999 87.227997 95.508003 104.13 113.58 117.72 121.788 126.234 135.198 139.698 143.98199 153.468 162.918 171.918 178.2 182.34 186.786 193.73399 198.23399 202.37399 210.996 219.06 225.09 234.53999 243.504 247.644 251.694 260.65799 264.87 273.14999 281.772 291.22198 295.362"
             y="0"
             sodipodi:role="line"
             id="tspan947">= vorherige Zahl ‘*‘ oder ‘/‘ aktuelle Zahl;</tspan></text></g></g><path
       d="m 87.72,365.4 h 415.32 v 35.04 H 87.72 Z"
       style="fill:#d9d9d9;fill-opacity:1;fill-rule:evenodd;stroke:none"
       id="path951" /><g
       id="g953"><g
         id="g955"
         clip-path="url(#clipPath959)"><text
           transform="matrix(1,0,0,-1,94.944,376.87)"
           style="font-variant:normal;font-weight:normal;font-size:18px;font-family:Calibri;-inkscape-font-specification:Calibri;writing-mode:lr-tb;fill:#000000;fill-opacity:1;fill-rule:nonzero;stroke:none"
           id="text963"><tspan
             x="0 9.4860001 18.972 25.254 34.703999 43.667999 49.950001 54 62.405998 71.370003 75.582001 83.862 92.484001 101.934 106.074 110.25 119.214"
             y="0"
             sodipodi:role="line"
             id="tspan961">Vorherige Zahl = </tspan></text></g></g><g
       id="g965"><g
         id="g967"
         clip-path="url(#clipPath971)"><text
           transform="matrix(1,0,0,-1,218.33,376.87)"
           style="font-variant:normal;font-weight:normal;font-size:18px;font-family:Calibri;-inkscape-font-specification:Calibri;writing-mode:lr-tb;fill:#f4b183;fill-opacity:1;fill-rule:nonzero;stroke:none"
           id="text975"><tspan
             x="0 8.7840004 14.76 23.166 32.130001 41.633999 51.084 55.223999"
             y="0"
             sodipodi:role="line"
             id="tspan973">Ergebnis</tspan></text></g></g><g
       id="g977"><g
         id="g979"
         clip-path="url(#clipPath983)"><text
           transform="matrix(1,0,0,-1,280.61,376.87)"
           style="font-variant:normal;font-weight:normal;font-size:18px;font-family:Calibri;-inkscape-font-specification:Calibri;writing-mode:lr-tb;fill:#000000;fill-opacity:1;fill-rule:nonzero;stroke:none"
           id="text987"><tspan
             x="0"
             y="0"
             id="tspan985">;</tspan></text></g></g><path
       d="m 87.72,327.48 h 415.32 v 35.04 H 87.72 Z"
       style="fill:#d9d9d9;fill-opacity:1;fill-rule:evenodd;stroke:none"
       id="path989" /><g
       id="g991"><g
         id="g993"
         clip-path="url(#clipPath997)"><text
           transform="matrix(1,0,0,-1,94.944,339)"
           style="font-variant:normal;font-weight:normal;font-size:18.024px;font-family:Calibri;-inkscape-font-specification:Calibri;writing-mode:lr-tb;fill:#000000;fill-opacity:1;fill-rule:nonzero;stroke:none"
           id="text1001"><tspan
             x="0 9.7149363 19.177536 26.801687 34.317696 43.293648 47.49324 56.955841 65.589333 72.672768 76.746193 87.182091 93.472466 99.312241 107.58526 115.75013 119.82355 129.28615 143.68733 147.76076 156.73671 160.88222 170.34482 174.5264 183.3221 187.35948 196.33543 210.7366 219.71255 229.12109 235.15913 239.23256 247.86604 257.32864 262.82596"
             y="0"
             sodipodi:role="line"
             id="tspan999">Rücke das Array um ein Element auf;</tspan></text></g></g><path
       d="m 87.72,289.68 h 415.32 v 35.04 H 87.72 Z"
       style="fill:#d9d9d9;fill-opacity:1;fill-rule:evenodd;stroke:none"
       id="path1003" /><g
       id="g1005"><g
         id="g1007"
         clip-path="url(#clipPath1011)"><text
           transform="matrix(1,0,0,-1,94.944,301.1)"
           style="font-variant:normal;font-weight:normal;font-size:18px;font-family:Calibri;-inkscape-font-specification:Calibri;writing-mode:lr-tb;fill:#000000;fill-opacity:1;fill-rule:nonzero;stroke:none"
           id="text1015"><tspan
             x="0 10.422 16.704 22.554001 30.834 38.987999 43.056 52.506001 62.009998 68.003998 75.564003 85.014 93.491997 102.456 111.906 120.906 130.356 134.56799 147.438 151.48801 160.452 169.95599 178.92 185.202 189.37801 197.424 206.91 216.36 220.42799 228.50999 237.996 244.278 253.728 262.69199 266.76001 277.18201 286.63199 291.74399 300.366 309.81601 318.29401 327.258 336.70801"
             y="0"
             sodipodi:role="line"
             id="tspan1013">Array durchgehen wieder von vorne Anfangen;</tspan></text></g></g><g
       id="g1017"><g
         id="g1019"
         clip-path="url(#clipPath1023)"><path
           d="M 40.8,77.28 H 61.92 V 287.76 H 40.8 Z"
           style="fill:#ed7d31;fill-opacity:1;fill-rule:evenodd;stroke:none"
           id="path1025" /></g></g><path
       d="m 40.8,258.96 h 462.24 v 28.8 H 40.8 Z"
       style="fill:#ed7d31;fill-opacity:1;fill-rule:evenodd;stroke:none"
       id="path1027" /><g
       id="g1029"><g
         id="g1031"
         clip-path="url(#clipPath1035)"><text
           transform="matrix(1,0,0,-1,48.024,267.29)"
           style="font-variant:normal;font-weight:normal;font-size:18px;font-family:Calibri;-inkscape-font-specification:Calibri;writing-mode:lr-tb;fill:#000000;fill-opacity:1;fill-rule:nonzero;stroke:none"
           id="text1039"><tspan
             x="0 10.422 16.704 22.554001 30.834 38.987999 43.056 52.506001 62.009998 68.003998 75.564003 85.014 93.491997 102.456 111.906 120.906"
             y="0"
             sodipodi:role="line"
             id="tspan1037">Array durchgehen</tspan></text></g></g><g
       id="g1041"><g
         id="g1043"
         clip-path="url(#clipPath1047)"><path
           d="M 64.32,77.28 H 85.44 V 254.16 H 64.32 Z"
           style="fill:#4472c4;fill-opacity:1;fill-rule:evenodd;stroke:none"
           id="path1049" /></g></g><path
       d="m 64.32,227.76 h 438.72 v 28.8 H 64.32 Z"
       style="fill:#4472c4;fill-opacity:1;fill-rule:evenodd;stroke:none"
       id="path1051" /><g
       id="g1053"><g
         id="g1055"
         clip-path="url(#clipPath1059)"><text
           transform="matrix(1,0,0,-1,71.496,236.11)"
           style="font-variant:normal;font-weight:normal;font-size:18px;font-family:Calibri;-inkscape-font-specification:Calibri;writing-mode:lr-tb;fill:#000000;fill-opacity:1;fill-rule:nonzero;stroke:none"
           id="text1063"><tspan
             x="0 12.726 21.690001 31.194"
             y="0"
             sodipodi:role="line"
             id="tspan1061">wenn</tspan></text></g></g><g
       id="g1065"><g
         id="g1067"
         clip-path="url(#clipPath1071)"><text
           transform="matrix(1,0,0,-1,116.38,236.11)"
           style="font-variant:normal;font-weight:normal;font-size:18px;font-family:Calibri;-inkscape-font-specification:Calibri;writing-mode:lr-tb;fill:#000000;fill-opacity:1;fill-rule:nonzero;stroke:none"
           id="text1075"><tspan
             x="0 8.6219997 16.686001 22.716 32.166 41.130001 45.27 49.32 58.284"
             y="0"
             sodipodi:role="line"
             id="tspan1073">aktuelles</tspan></text></g></g><g
       id="g1077"><g
         id="g1079"
         clip-path="url(#clipPath1083)"><text
           transform="matrix(1,0,0,-1,185.86,236.11)"
           style="font-variant:normal;font-weight:normal;font-size:18px;font-family:Calibri;-inkscape-font-specification:Calibri;writing-mode:lr-tb;fill:#000000;fill-opacity:1;fill-rule:nonzero;stroke:none"
           id="text1087"><tspan
             x="0 8.7840004 12.834 21.798 36.18 45.216 54.576 60.605999 64.674004 69.101997 78.066002 82.566002 86.849998 96.335999 105.786 114.786 121.068 125.208"
             y="0"
             sodipodi:role="line"
             id="tspan1085">Element ‘+‘ oder ‘</tspan></text></g></g><g
       id="g1089"><g
         id="g1091"
         clip-path="url(#clipPath1095)"><text
           transform="matrix(1,0,0,-1,315.6,236.11)"
           style="font-variant:normal;font-weight:normal;font-size:18px;font-family:Calibri;-inkscape-font-specification:Calibri;writing-mode:lr-tb;fill:#000000;fill-opacity:1;fill-rule:nonzero;stroke:none"
           id="text1099"><tspan
             x="0"
             y="0"
             id="tspan1097">-</tspan></text></g></g><g
       id="g1101"><g
         id="g1103"
         clip-path="url(#clipPath1107)"><text
           transform="matrix(1,0,0,-1,321.12,236.11)"
           style="font-variant:normal;font-weight:normal;font-size:18px;font-family:Calibri;-inkscape-font-specification:Calibri;writing-mode:lr-tb;fill:#000000;fill-opacity:1;fill-rule:nonzero;stroke:none"
           id="text1111"><tspan
             x="0 4.4460001 8.6219997 12.708 19.548"
             y="0"
             sodipodi:role="line"
             id="tspan1109">‘ ist</tspan></text></g></g><path
       d="M 87.72,189.96 H 503.04 V 225 H 87.72 Z"
       style="fill:#d9d9d9;fill-opacity:1;fill-rule:evenodd;stroke:none"
       id="path1113" /><g
       id="g1115"><g
         id="g1117"
         clip-path="url(#clipPath1121)"><text
           transform="matrix(1,0,0,-1,94.944,201.36)"
           style="font-variant:normal;font-weight:normal;font-size:18px;font-family:Calibri;-inkscape-font-specification:Calibri;writing-mode:lr-tb;fill:#f4b183;fill-opacity:1;fill-rule:nonzero;stroke:none"
           id="text1125"><tspan
             x="0 8.7840004 14.76 23.166 32.130001 41.633999 51.084 55.223999"
             y="0"
             sodipodi:role="line"
             id="tspan1123">Ergebnis</tspan></text></g></g><g
       id="g1127"><g
         id="g1129"
         clip-path="url(#clipPath1133)"><text
           transform="matrix(1,0,0,-1,161.33,201.36)"
           style="font-variant:normal;font-weight:normal;font-size:18px;font-family:Calibri;-inkscape-font-specification:Calibri;writing-mode:lr-tb;fill:#000000;fill-opacity:1;fill-rule:nonzero;stroke:none"
           id="text1137"><tspan
             x="0 8.9639997 13.032 21.167999 30.6 36.882 46.332001 55.296001 61.577999 65.646004 74.052002 83.015999 87.227997 95.508003 104.13 113.58 117.72 121.788 126.234 135.198 139.698 143.98199 153.468 162.918 171.918 178.2 182.34"
             y="0"
             sodipodi:role="line"
             id="tspan1135">= vorherige Zahl ‘+‘ oder ‘</tspan></text></g></g><g
       id="g1139"><g
         id="g1141"
         clip-path="url(#clipPath1145)"><text
           transform="matrix(1,0,0,-1,348.19,201.36)"
           style="font-variant:normal;font-weight:normal;font-size:18px;font-family:Calibri;-inkscape-font-specification:Calibri;writing-mode:lr-tb;fill:#000000;fill-opacity:1;fill-rule:nonzero;stroke:none"
           id="text1149"><tspan
             x="0"
             y="0"
             id="tspan1147">-</tspan></text></g></g><g
       id="g1151"><g
         id="g1153"
         clip-path="url(#clipPath1157)"><text
           transform="matrix(1,0,0,-1,353.71,201.36)"
           style="font-variant:normal;font-weight:normal;font-size:18px;font-family:Calibri;-inkscape-font-specification:Calibri;writing-mode:lr-tb;fill:#000000;fill-opacity:1;fill-rule:nonzero;stroke:none"
           id="text1161"><tspan
             x="0 4.4460001 8.6219997 17.243999 25.308001 31.337999 40.787998 49.751999 53.891998 57.942001 66.905998 71.117996 79.398003 88.019997 97.470001 101.61"
             y="0"
             sodipodi:role="line"
             id="tspan1159">‘ aktuelle Zahl;</tspan></text></g></g><path
       d="m 87.72,153 h 415.32 v 35.04 H 87.72 Z"
       style="fill:#d9d9d9;fill-opacity:1;fill-rule:evenodd;stroke:none"
       id="path1163" /><g
       id="g1165"><g
         id="g1167"
         clip-path="url(#clipPath1171)"><text
           transform="matrix(1,0,0,-1,94.944,164.42)"
           style="font-variant:normal;font-weight:normal;font-size:18px;font-family:Calibri;-inkscape-font-specification:Calibri;writing-mode:lr-tb;fill:#000000;fill-opacity:1;fill-rule:nonzero;stroke:none"
           id="text1175"><tspan
             x="0 9.4860001 18.972 25.254 34.703999 43.667999 49.950001 54 62.405998 71.370003 75.582001 83.862 92.484001 101.934 106.074 110.25 119.214"
             y="0"
             sodipodi:role="line"
             id="tspan1173">Vorherige Zahl = </tspan></text></g></g><g
       id="g1177"><g
         id="g1179"
         clip-path="url(#clipPath1183)"><text
           transform="matrix(1,0,0,-1,218.33,164.42)"
           style="font-variant:normal;font-weight:normal;font-size:18px;font-family:Calibri;-inkscape-font-specification:Calibri;writing-mode:lr-tb;fill:#f4b183;fill-opacity:1;fill-rule:nonzero;stroke:none"
           id="text1187"><tspan
             x="0 8.7840004 14.76 23.166 32.130001 41.633999 51.084 55.223999"
             y="0"
             sodipodi:role="line"
             id="tspan1185">Ergebnis</tspan></text></g></g><g
       id="g1189"><g
         id="g1191"
         clip-path="url(#clipPath1195)"><text
           transform="matrix(1,0,0,-1,280.61,164.42)"
           style="font-variant:normal;font-weight:normal;font-size:18px;font-family:Calibri;-inkscape-font-specification:Calibri;writing-mode:lr-tb;fill:#000000;fill-opacity:1;fill-rule:nonzero;stroke:none"
           id="text1199"><tspan
             x="0"
             y="0"
             id="tspan1197">;</tspan></text></g></g><path
       d="m 87.72,115.08 h 415.32 v 35.04 H 87.72 Z"
       style="fill:#d9d9d9;fill-opacity:1;fill-rule:evenodd;stroke:none"
       id="path1201" /><g
       id="g1203"><g
         id="g1205"
         clip-path="url(#clipPath1209)"><text
           transform="matrix(1,0,0,-1,94.944,126.53)"
           style="font-variant:normal;font-weight:normal;font-size:18px;font-family:Calibri;-inkscape-font-specification:Calibri;writing-mode:lr-tb;fill:#000000;fill-opacity:1;fill-rule:nonzero;stroke:none"
           id="text1213"><tspan
             x="0 9.7740002 19.224001 26.766001 34.326 43.290001 47.501999 56.952 65.573997 72.683998 76.751999 87.174004 93.456001 99.323997 107.604 115.758 119.826 129.276 143.71201 147.78 156.744 160.884 170.334 174.528 183.312 187.362 196.326 210.70799 219.744 229.104 235.134 239.202 247.82401 257.27399 262.79999"
             y="0"
             sodipodi:role="line"
             id="tspan1211">Rücke das Array um ein Element auf;</tspan></text></g></g><path
       d="m 87.72,77.28 h 415.32 v 35.04 H 87.72 Z"
       style="fill:#d9d9d9;fill-opacity:1;fill-rule:evenodd;stroke:none"
       id="path1215" /><g
       id="g1217"><g
         id="g1219"
         clip-path="url(#clipPath1223)"><text
           transform="matrix(1,0,0,-1,94.944,88.656)"
           style="font-variant:normal;font-weight:normal;font-size:18px;font-family:Calibri;-inkscape-font-specification:Calibri;writing-mode:lr-tb;fill:#000000;fill-opacity:1;fill-rule:nonzero;stroke:none"
           id="text1227"><tspan
             x="0 10.422 16.704 22.554001 30.834 38.987999 43.056 52.506001 62.009998 68.003998 75.564003 85.014 93.491997 102.456 111.906 120.906 130.356 134.56799 147.438 151.48801 160.452 169.95599 178.92 185.202 189.37801 197.424 206.91 216.36 220.42799 228.50999 237.996 244.278 253.728 262.69199 266.76001 277.18201 286.63199 291.74399 300.366 309.81601 318.29401 327.258 336.70801"
             y="0"
             sodipodi:role="line"
             id="tspan1225">Array durchgehen wieder von vorne Anfangen;</tspan></text></g></g></g></svg>
