<?xml version="1.0" encoding="UTF-8" standalone="no"?>
<svg
   xmlns:dc="http://purl.org/dc/elements/1.1/"
   xmlns:cc="http://creativecommons.org/ns#"
   xmlns:rdf="http://www.w3.org/1999/02/22-rdf-syntax-ns#"
   xmlns:svg="http://www.w3.org/2000/svg"
   xmlns="http://www.w3.org/2000/svg"
   xmlns:sodipodi="http://sodipodi.sourceforge.net/DTD/sodipodi-0.dtd"
   xmlns:inkscape="http://www.inkscape.org/namespaces/inkscape"
   version="1.1"
   id="svg833"
   xml:space="preserve"
   width="632.15997"
   height="547.03998"
   viewBox="0 0 632.15997 547.03998"
   sodipodi:docname="durchgehen().svg"
   inkscape:version="1.0.1 (3bc2e813f5, 2020-09-07)"><metadata
     id="metadata839"><rdf:RDF><cc:Work
         rdf:about=""><dc:format>image/svg+xml</dc:format><dc:type
           rdf:resource="http://purl.org/dc/dcmitype/StillImage" /><dc:title></dc:title></cc:Work></rdf:RDF></metadata><defs
     id="defs837"><clipPath
       clipPathUnits="userSpaceOnUse"
       id="clipPath849"><path
         d="M 0,1.2207e-4 H 960 V 540.00012 H 0 Z"
         clip-rule="evenodd"
         id="path847" /></clipPath><clipPath
       clipPathUnits="userSpaceOnUse"
       id="clipPath859"><path
         d="M 1.5259e-5,540 H 960 V 1.8311e-4 H 3.0518e-5"
         clip-rule="evenodd"
         id="path857" /></clipPath><clipPath
       clipPathUnits="userSpaceOnUse"
       id="clipPath871"><path
         d="M 1.4305e-5,0 H 960.00001 V 540 H 1.4305e-5 Z"
         clip-rule="evenodd"
         id="path869" /></clipPath><clipPath
       clipPathUnits="userSpaceOnUse"
       id="clipPath883"><path
         d="M 1.4305e-5,0 H 960.00001 V 540 H 1.4305e-5 Z"
         clip-rule="evenodd"
         id="path881" /></clipPath><clipPath
       clipPathUnits="userSpaceOnUse"
       id="clipPath895"><path
         d="M 1.4305e-5,0 H 960.00001 V 540 H 1.4305e-5 Z"
         clip-rule="evenodd"
         id="path893" /></clipPath><clipPath
       clipPathUnits="userSpaceOnUse"
       id="clipPath907"><path
         d="M 0,540 H 960 V 2.4414e-4 L 3.0518e-5,1.8311e-4"
         clip-rule="evenodd"
         id="path905" /></clipPath><clipPath
       clipPathUnits="userSpaceOnUse"
       id="clipPath919"><path
         d="M 1.4305e-5,0 H 960.00001 V 540 H 1.4305e-5 Z"
         clip-rule="evenodd"
         id="path917" /></clipPath><clipPath
       clipPathUnits="userSpaceOnUse"
       id="clipPath933"><path
         d="M 1.4305e-5,0 H 960.00001 V 540 H 1.4305e-5 Z"
         clip-rule="evenodd"
         id="path931" /></clipPath><clipPath
       clipPathUnits="userSpaceOnUse"
       id="clipPath945"><path
         d="M 1.4305e-5,0 H 960.00001 V 540 H 1.4305e-5 Z"
         clip-rule="evenodd"
         id="path943" /></clipPath><clipPath
       clipPathUnits="userSpaceOnUse"
       id="clipPath957"><path
         d="M 1.4305e-5,0 H 960.00001 V 540 H 1.4305e-5 Z"
         clip-rule="evenodd"
         id="path955" /></clipPath><clipPath
       clipPathUnits="userSpaceOnUse"
       id="clipPath969"><path
         d="M 1.4305e-5,0 H 960.00001 V 540 H 1.4305e-5 Z"
         clip-rule="evenodd"
         id="path967" /></clipPath><clipPath
       clipPathUnits="userSpaceOnUse"
       id="clipPath981"><path
         d="M 0,540 H 960 V 2.4414e-4 L 3.0518e-5,1.8311e-4"
         clip-rule="evenodd"
         id="path979" /></clipPath><clipPath
       clipPathUnits="userSpaceOnUse"
       id="clipPath993"><path
         d="M 1.4305e-5,0 H 960.00001 V 540 H 1.4305e-5 Z"
         clip-rule="evenodd"
         id="path991" /></clipPath><clipPath
       clipPathUnits="userSpaceOnUse"
       id="clipPath1005"><path
         d="M 1.4305e-5,0 H 960.00001 V 540 H 1.4305e-5 Z"
         clip-rule="evenodd"
         id="path1003" /></clipPath><clipPath
       clipPathUnits="userSpaceOnUse"
       id="clipPath1017"><path
         d="M 1.4305e-5,0 H 960.00001 V 540 H 1.4305e-5 Z"
         clip-rule="evenodd"
         id="path1015" /></clipPath><clipPath
       clipPathUnits="userSpaceOnUse"
       id="clipPath1029"><path
         d="M 1.4305e-5,0 H 960.00001 V 540 H 1.4305e-5 Z"
         clip-rule="evenodd"
         id="path1027" /></clipPath><clipPath
       clipPathUnits="userSpaceOnUse"
       id="clipPath1041"><path
         d="M 1.4305e-5,0 H 960.00001 V 540 H 1.4305e-5 Z"
         clip-rule="evenodd"
         id="path1039" /></clipPath><clipPath
       clipPathUnits="userSpaceOnUse"
       id="clipPath1053"><path
         d="M 1.4305e-5,0 H 960.00001 V 540 H 1.4305e-5 Z"
         clip-rule="evenodd"
         id="path1051" /></clipPath><clipPath
       clipPathUnits="userSpaceOnUse"
       id="clipPath1065"><path
         d="M 1.4305e-5,0 H 960.00001 V 540 H 1.4305e-5 Z"
         clip-rule="evenodd"
         id="path1063" /></clipPath><clipPath
       clipPathUnits="userSpaceOnUse"
       id="clipPath1077"><path
         d="M 1.4305e-5,0 H 960.00001 V 540 H 1.4305e-5 Z"
         clip-rule="evenodd"
         id="path1075" /></clipPath><clipPath
       clipPathUnits="userSpaceOnUse"
       id="clipPath1091"><path
         d="M 1.4305e-5,0 H 960.00001 V 540 H 1.4305e-5 Z"
         clip-rule="evenodd"
         id="path1089" /></clipPath><clipPath
       clipPathUnits="userSpaceOnUse"
       id="clipPath1105"><path
         d="M 1.4305e-5,0 H 960.00001 V 540 H 1.4305e-5 Z"
         clip-rule="evenodd"
         id="path1103" /></clipPath><clipPath
       clipPathUnits="userSpaceOnUse"
       id="clipPath1117"><path
         d="M 1.4305e-5,0 H 960.00001 V 540 H 1.4305e-5 Z"
         clip-rule="evenodd"
         id="path1115" /></clipPath><clipPath
       clipPathUnits="userSpaceOnUse"
       id="clipPath1129"><path
         d="M 1.4305e-5,0 H 960.00001 V 540 H 1.4305e-5 Z"
         clip-rule="evenodd"
         id="path1127" /></clipPath><clipPath
       clipPathUnits="userSpaceOnUse"
       id="clipPath1141"><path
         d="M 1.4305e-5,0 H 960.00001 V 540 H 1.4305e-5 Z"
         clip-rule="evenodd"
         id="path1139" /></clipPath><clipPath
       clipPathUnits="userSpaceOnUse"
       id="clipPath1153"><path
         d="M 1.4305e-5,0 H 960.00001 V 540 H 1.4305e-5 Z"
         clip-rule="evenodd"
         id="path1151" /></clipPath><clipPath
       clipPathUnits="userSpaceOnUse"
       id="clipPath1167"><path
         d="M 1.4305e-5,0 H 960.00001 V 540 H 1.4305e-5 Z"
         clip-rule="evenodd"
         id="path1165" /></clipPath><clipPath
       clipPathUnits="userSpaceOnUse"
       id="clipPath1179"><path
         d="M 1.4305e-5,0 H 960.00001 V 540 H 1.4305e-5 Z"
         clip-rule="evenodd"
         id="path1177" /></clipPath><clipPath
       clipPathUnits="userSpaceOnUse"
       id="clipPath1191"><path
         d="M 1.4305e-5,0 H 960.00001 V 540 H 1.4305e-5 Z"
         clip-rule="evenodd"
         id="path1189" /></clipPath><clipPath
       clipPathUnits="userSpaceOnUse"
       id="clipPath1203"><path
         d="M 0,540 H 960 V 1.8311e-4 H 3.0518e-5"
         clip-rule="evenodd"
         id="path1201" /></clipPath><clipPath
       clipPathUnits="userSpaceOnUse"
       id="clipPath1215"><path
         d="M 1.4305e-5,0 H 960.00001 V 540 H 1.4305e-5 Z"
         clip-rule="evenodd"
         id="path1213" /></clipPath><clipPath
       clipPathUnits="userSpaceOnUse"
       id="clipPath1227"><path
         d="M 1.4305e-5,0 H 960.00001 V 540 H 1.4305e-5 Z"
         clip-rule="evenodd"
         id="path1225" /></clipPath><clipPath
       clipPathUnits="userSpaceOnUse"
       id="clipPath1239"><path
         d="M 1.4305e-5,0 H 960.00001 V 540 H 1.4305e-5 Z"
         clip-rule="evenodd"
         id="path1237" /></clipPath><clipPath
       clipPathUnits="userSpaceOnUse"
       id="clipPath1251"><path
         d="M 1.4305e-5,0 H 960.00001 V 540 H 1.4305e-5 Z"
         clip-rule="evenodd"
         id="path1249" /></clipPath><clipPath
       clipPathUnits="userSpaceOnUse"
       id="clipPath1263"><path
         d="M 1.4305e-5,0 H 960.00001 V 540 H 1.4305e-5 Z"
         clip-rule="evenodd"
         id="path1261" /></clipPath><clipPath
       clipPathUnits="userSpaceOnUse"
       id="clipPath1275"><path
         d="M 1.4305e-5,0 H 960.00001 V 540 H 1.4305e-5 Z"
         clip-rule="evenodd"
         id="path1273" /></clipPath><clipPath
       clipPathUnits="userSpaceOnUse"
       id="clipPath1289"><path
         d="M 1.4305e-5,0 H 960.00001 V 540 H 1.4305e-5 Z"
         clip-rule="evenodd"
         id="path1287" /></clipPath><clipPath
       clipPathUnits="userSpaceOnUse"
       id="clipPath1301"><path
         d="M 1.4305e-5,0 H 960.00001 V 540 H 1.4305e-5 Z"
         clip-rule="evenodd"
         id="path1299" /></clipPath><clipPath
       clipPathUnits="userSpaceOnUse"
       id="clipPath1313"><path
         d="M 1.4305e-5,0 H 960.00001 V 540 H 1.4305e-5 Z"
         clip-rule="evenodd"
         id="path1311" /></clipPath><clipPath
       clipPathUnits="userSpaceOnUse"
       id="clipPath1327"><path
         d="M 1.4305e-5,0 H 960.00001 V 540 H 1.4305e-5 Z"
         clip-rule="evenodd"
         id="path1325" /></clipPath><clipPath
       clipPathUnits="userSpaceOnUse"
       id="clipPath1341"><path
         d="M 1.4305e-5,0 H 960.00001 V 540 H 1.4305e-5 Z"
         clip-rule="evenodd"
         id="path1339" /></clipPath><clipPath
       clipPathUnits="userSpaceOnUse"
       id="clipPath1353"><path
         d="M 1.4305e-5,0 H 960.00001 V 540 H 1.4305e-5 Z"
         clip-rule="evenodd"
         id="path1351" /></clipPath><clipPath
       clipPathUnits="userSpaceOnUse"
       id="clipPath1365"><path
         d="M 1.4305e-5,0 H 960.00001 V 540 H 1.4305e-5 Z"
         clip-rule="evenodd"
         id="path1363" /></clipPath><clipPath
       clipPathUnits="userSpaceOnUse"
       id="clipPath1377"><path
         d="M 4.5776e-5,540 H 960 V 1.8311e-4 H 6.1035e-5"
         clip-rule="evenodd"
         id="path1375" /></clipPath><clipPath
       clipPathUnits="userSpaceOnUse"
       id="clipPath1389"><path
         d="M 1.4305e-5,0 H 960.00001 V 540 H 1.4305e-5 Z"
         clip-rule="evenodd"
         id="path1387" /></clipPath><clipPath
       clipPathUnits="userSpaceOnUse"
       id="clipPath1401"><path
         d="M 1.4305e-5,0 H 960.00001 V 540 H 1.4305e-5 Z"
         clip-rule="evenodd"
         id="path1399" /></clipPath><clipPath
       clipPathUnits="userSpaceOnUse"
       id="clipPath1413"><path
         d="M 1.4305e-5,0 H 960.00001 V 540 H 1.4305e-5 Z"
         clip-rule="evenodd"
         id="path1411" /></clipPath></defs><sodipodi:namedview
     pagecolor="#ffffff"
     bordercolor="#666666"
     borderopacity="1"
     objecttolerance="10"
     gridtolerance="10"
     guidetolerance="10"
     inkscape:pageopacity="0"
     inkscape:pageshadow="2"
     inkscape:window-width="2053"
     inkscape:window-height="1091"
     id="namedview835"
     showgrid="false"
     fit-margin-top="0"
     fit-margin-left="0"
     fit-margin-right="0"
     fit-margin-bottom="0"
     inkscape:zoom="0.58203125"
     inkscape:cx="372.48001"
     inkscape:cy="316.47998"
     inkscape:window-x="0"
     inkscape:window-y="0"
     inkscape:window-maximized="0"
     inkscape:current-layer="g841" /><g
     id="g841"
     inkscape:groupmode="layer"
     inkscape:label="durchgehen()"
     transform="matrix(1.3333333,0,0,-1.3333333,-267.51999,676.47998)"><g
       id="g853"><g
         id="g855"
         clip-path="url(#clipPath859)"><path
           d="m 212.52,97.08 h 21.12 v 386.4 h -21.12 z"
           style="fill:#ed7d31;fill-opacity:1;fill-rule:evenodd;stroke:none"
           id="path861" /></g></g><path
       d="m 212.52,454.68 h 462.24 v 28.8 H 212.52 Z"
       style="fill:#ed7d31;fill-opacity:1;fill-rule:evenodd;stroke:none"
       id="path863" /><g
       id="g865"><g
         id="g867"
         clip-path="url(#clipPath871)"><text
           transform="matrix(1,0,0,-1,219.72,463.08)"
           style="font-variant:normal;font-weight:normal;font-size:18px;font-family:Calibri;-inkscape-font-specification:Calibri;writing-mode:lr-tb;fill:#000000;fill-opacity:1;fill-rule:nonzero;stroke:none"
           id="text875"><tspan
             x="0 11.358 20.664 25.200001"
             y="0"
             sodipodi:role="line"
             id="tspan873">GPIO</tspan></text></g></g><g
       id="g877"><g
         id="g879"
         clip-path="url(#clipPath883)"><text
           transform="matrix(1,0,0,-1,260.9,463.08)"
           style="font-variant:normal;font-weight:normal;font-size:18px;font-family:Calibri;-inkscape-font-specification:Calibri;writing-mode:lr-tb;fill:#000000;fill-opacity:1;fill-rule:nonzero;stroke:none"
           id="text887"><tspan
             x="0 9.2340002 13.32 22.77 29.862 33.93 43.380001 52.397999 58.68 62.82 71.082001 80.531998 89.208 93.293999 99.054001 108.018 117.522 121.698 131.14799 140.634 146.62801 154.188 163.638 172.116 181.08 190.53"
             y="0"
             sodipodi:role="line"
             id="tspan885">Pins der Spalten durchgehe</tspan></text></g></g><g
       id="g889"><g
         id="g891"
         clip-path="url(#clipPath895)"><text
           transform="matrix(1,0,0,-1,460.61,463.08)"
           style="font-variant:normal;font-weight:normal;font-size:18px;font-family:Calibri;-inkscape-font-specification:Calibri;writing-mode:lr-tb;fill:#000000;fill-opacity:1;fill-rule:nonzero;stroke:none"
           id="text899"><tspan
             x="0"
             y="0"
             id="tspan897">n</tspan></text></g></g><g
       id="g901"><g
         id="g903"
         clip-path="url(#clipPath907)"><path
           d="m 235.92,134.64 h 21.12 v 280.32 h -21.12 z"
           style="fill:#ed7d31;fill-opacity:1;fill-rule:evenodd;stroke:none"
           id="path909" /></g></g><path
       d="m 235.92,386.16 h 438.84 v 28.8 H 235.92 Z"
       style="fill:#ed7d31;fill-opacity:1;fill-rule:evenodd;stroke:none"
       id="path911" /><g
       id="g913"><g
         id="g915"
         clip-path="url(#clipPath919)"><text
           transform="matrix(1,0,0,-1,243.19,394.49)"
           style="font-variant:normal;font-weight:normal;font-size:18px;font-family:Calibri;-inkscape-font-specification:Calibri;writing-mode:lr-tb;fill:#000000;fill-opacity:1;fill-rule:nonzero;stroke:none"
           id="text923"><tspan
             x="0 11.358 20.664 25.200001 37.116001 41.183998 50.400002 54.486 63.936001 71.028 75.096001 84.545998 93.564003 99.846001 103.986 113.346 122.31 126.45 135.89999 144.864 154.368 158.54401 167.994 177.48 183.474 191.034 200.48399 208.96201 217.92599 227.37601 236.37601"
             y="0"
             sodipodi:role="line"
             id="tspan921">GPIO Pins der Reihen durchgehen</tspan></text></g></g><path
       d="m 235.92,417.24 h 438.84 v 35.04 H 235.92 Z"
       style="fill:#d9d9d9;fill-opacity:1;fill-rule:evenodd;stroke:none"
       id="path925" /><g
       id="g927"><g
         id="g929"
         clip-path="url(#clipPath933)"><text
           transform="matrix(1,0,0,-1,243.19,428.66)"
           style="font-variant:normal;font-weight:normal;font-size:18px;font-family:Calibri;-inkscape-font-specification:Calibri;writing-mode:lr-tb;fill:#000000;fill-opacity:1;fill-rule:nonzero;stroke:none"
           id="text937"><tspan
             x="0 10.422 18.486 24.516001 33.966 42.93 47.07 51.119999 60.084 64.295998 72.557999 82.008003 90.683998 94.769997 100.53 109.494 113.706 126.576 130.62601 136.62 146.07001 150.282 158.90401 168.354 173.89799"
             y="0"
             sodipodi:role="line"
             id="tspan935">Aktuelle Spalte wird auf </tspan></text></g></g><g
       id="g939"><g
         id="g941"
         clip-path="url(#clipPath945)"><text
           transform="matrix(1,0,0,-1,421.3,428.66)"
           style="font-variant:normal;font-weight:normal;font-size:18px;font-family:Consolas;-inkscape-font-specification:Consolas;writing-mode:lr-tb;fill:#7030a0;fill-opacity:1;fill-rule:nonzero;stroke:none"
           id="text949"><tspan
             x="0"
             y="0"
             id="tspan947">l</tspan></text></g></g><g
       id="g951"><g
         id="g953"
         clip-path="url(#clipPath957)"><text
           transform="matrix(1,0,0,-1,431.14,428.66)"
           style="font-variant:normal;font-weight:normal;font-size:18px;font-family:Consolas;-inkscape-font-specification:Consolas;writing-mode:lr-tb;fill:#7030a0;fill-opacity:1;fill-rule:nonzero;stroke:none"
           id="text961"><tspan
             x="0 9.8400002"
             y="0"
             sodipodi:role="line"
             id="tspan959">ow</tspan></text></g></g><g
       id="g963"><g
         id="g965"
         clip-path="url(#clipPath969)"><text
           transform="matrix(1,0,0,-1,455.02,428.66)"
           style="font-variant:normal;font-weight:normal;font-size:18px;font-family:Calibri;-inkscape-font-specification:Calibri;writing-mode:lr-tb;fill:#000000;fill-opacity:1;fill-rule:nonzero;stroke:none"
           id="text973"><tspan
             x="0 8.4060001 17.370001 24.462 33.335999 39.366001 46.422001"
             y="0"
             sodipodi:role="line"
             id="tspan971">gesetzt</tspan></text></g></g><g
       id="g975"><g
         id="g977"
         clip-path="url(#clipPath981)"><path
           d="m 259.44,240.96 h 21.12 v 140.4 h -21.12 z"
           style="fill:#4472c4;fill-opacity:1;fill-rule:evenodd;stroke:none"
           id="path983" /></g></g><path
       d="m 259.44,354.96 h 415.32 v 28.8 H 259.44 Z"
       style="fill:#4472c4;fill-opacity:1;fill-rule:evenodd;stroke:none"
       id="path985" /><g
       id="g987"><g
         id="g989"
         clip-path="url(#clipPath993)"><text
           transform="matrix(1,0,0,-1,266.66,363.22)"
           style="font-variant:normal;font-weight:normal;font-size:18.024px;font-family:Calibri;-inkscape-font-specification:Calibri;writing-mode:lr-tb;fill:#000000;fill-opacity:1;fill-rule:nonzero;stroke:none"
           id="text997"><tspan
             x="0 12.724944 21.700895 31.163496"
             y="0"
             sodipodi:role="line"
             id="tspan995">wenn</tspan></text></g></g><g
       id="g999"><g
         id="g1001"
         clip-path="url(#clipPath1005)"><text
           transform="matrix(1,0,0,-1,311.54,363.22)"
           style="font-variant:normal;font-weight:normal;font-size:18.024px;font-family:Calibri;-inkscape-font-specification:Calibri;writing-mode:lr-tb;fill:#000000;fill-opacity:1;fill-rule:nonzero;stroke:none"
           id="text1009"><tspan
             x="0 9.4625998 13.60812"
             y="0"
             sodipodi:role="line"
             id="tspan1007">die</tspan></text></g></g><g
       id="g1011"><g
         id="g1013"
         clip-path="url(#clipPath1017)"><text
           transform="matrix(1,0,0,-1,338.3,363.22)"
           style="font-variant:normal;font-weight:normal;font-size:18.024px;font-family:Calibri;-inkscape-font-specification:Calibri;writing-mode:lr-tb;fill:#000000;fill-opacity:1;fill-rule:nonzero;stroke:none"
           id="text1021"><tspan
             x="0 9.3544559 18.330408 22.475927 31.938528"
             y="0"
             sodipodi:role="line"
             id="tspan1019">Reihe</tspan></text></g></g><g
       id="g1023"><g
         id="g1025"
         clip-path="url(#clipPath1029)"><text
           transform="matrix(1,0,0,-1,383.42,363.22)"
           style="font-variant:normal;font-weight:normal;font-size:18.024px;font-family:Consolas;-inkscape-font-specification:Consolas;writing-mode:lr-tb;fill:#7030a0;fill-opacity:1;fill-rule:nonzero;stroke:none"
           id="text1033"><tspan
             x="0"
             y="0"
             id="tspan1031">l</tspan></text></g></g><g
       id="g1035"><g
         id="g1037"
         clip-path="url(#clipPath1041)"><text
           transform="matrix(1,0,0,-1,393.26,363.22)"
           style="font-variant:normal;font-weight:normal;font-size:18.024px;font-family:Consolas;-inkscape-font-specification:Consolas;writing-mode:lr-tb;fill:#7030a0;fill-opacity:1;fill-rule:nonzero;stroke:none"
           id="text1045"><tspan
             x="0 9.8400002"
             y="0"
             sodipodi:role="line"
             id="tspan1043">ow</tspan></text></g></g><g
       id="g1047"><g
         id="g1049"
         clip-path="url(#clipPath1053)"><text
           transform="matrix(1,0,0,-1,417.17,363.22)"
           style="font-variant:normal;font-weight:normal;font-size:18.024px;font-family:Calibri;-inkscape-font-specification:Calibri;writing-mode:lr-tb;fill:#000000;fill-opacity:1;fill-rule:nonzero;stroke:none"
           id="text1057"><tspan
             x="0 4.0734239 10.90452 16.94256"
             y="0"
             sodipodi:role="line"
             id="tspan1055">ist </tspan></text></g></g><g
       id="g1059"><g
         id="g1061"
         clip-path="url(#clipPath1065)"><text
           transform="matrix(1,0,0,-1,438.29,363.22)"
           style="font-variant:normal;font-weight:normal;font-size:18.024px;font-family:Calibri;-inkscape-font-specification:Calibri;writing-mode:lr-tb;fill:#afabab;fill-opacity:1;fill-rule:nonzero;stroke:none"
           id="text1069"><tspan
             x="0 12.239968"
             y="0"
             sodipodi:role="line"
             id="tspan1067">&amp;&amp;</tspan></text></g></g><g
       id="g1071"><g
         id="g1073"
         clip-path="url(#clipPath1077)"><text
           transform="matrix(1,0,0,-1,466.85,363.22)"
           style="font-variant:normal;font-weight:normal;font-size:18.024px;font-family:Calibri;-inkscape-font-specification:Calibri;writing-mode:lr-tb;fill:#000000;fill-opacity:1;fill-rule:nonzero;stroke:none"
           id="text1081"><tspan
             x="0 9.1201439 18.582745 28.081392 37.435848 42.933167 47.132759 56.59536 65.571312 71.609352 80.585304 84.730827 90.69677 97.744148 101.81757 110.30688 119.28283 128.74544 134.98174 144.44434 152.06848 160.05312"
             y="0"
             sodipodi:role="line"
             id="tspan1079">Knopf bereits gedrückt</tspan></text></g></g><path
       d="M 282.84,317.16 H 674.76 V 352.2 H 282.84 Z"
       style="fill:#d9d9d9;fill-opacity:1;fill-rule:evenodd;stroke:none"
       id="path1083" /><g
       id="g1085"><g
         id="g1087"
         clip-path="url(#clipPath1091)"><text
           transform="matrix(1,0,0,-1,290.11,328.63)"
           style="font-variant:normal;font-weight:normal;font-size:18px;font-family:Calibri;-inkscape-font-specification:Calibri;writing-mode:lr-tb;fill:#000000;fill-opacity:1;fill-rule:nonzero;stroke:none"
           id="text1095"><tspan
             x="0 9.1260004 18.576 28.062 37.439999 42.93 46.998001 59.868 64.008003 69.966003 79.416 83.627998 90.666 94.806 109.188 118.638 122.778 126.828 135.79201 142.07401"
             y="0"
             sodipodi:role="line"
             id="tspan1093">Knopf wird simuliert</tspan></text></g></g><path
       d="m 282.72,279 h 391.8 v 35.04 h -391.8 z"
       style="fill:#d9d9d9;fill-opacity:1;fill-rule:evenodd;stroke:none"
       id="path1097" /><g
       id="g1099"><g
         id="g1101"
         clip-path="url(#clipPath1105)"><text
           transform="matrix(1,0,0,-1,289.94,290.5)"
           style="font-variant:normal;font-weight:normal;font-size:18.024px;font-family:Calibri;-inkscape-font-specification:Calibri;writing-mode:lr-tb;fill:#000000;fill-opacity:1;fill-rule:nonzero;stroke:none"
           id="text1109"><tspan
             x="0"
             y="0"
             id="tspan1107">a</tspan></text></g></g><g
       id="g1111"><g
         id="g1113"
         clip-path="url(#clipPath1117)"><text
           transform="matrix(1,0,0,-1,298.58,290.5)"
           style="font-variant:normal;font-weight:normal;font-size:18.024px;font-family:Calibri;-inkscape-font-specification:Calibri;writing-mode:lr-tb;fill:#000000;fill-opacity:1;fill-rule:nonzero;stroke:none"
           id="text1121"><tspan
             x="0 7.0473838 14.14884 18.222263 26.711569"
             y="0"
             sodipodi:role="line"
             id="tspan1119">ssign</tspan></text></g></g><g
       id="g1123"><g
         id="g1125"
         clip-path="url(#clipPath1129)"><text
           transform="matrix(1,0,0,-1,334.82,290.5)"
           style="font-variant:normal;font-weight:normal;font-size:18.024px;font-family:Calibri;-inkscape-font-specification:Calibri;writing-mode:lr-tb;fill:#000000;fill-opacity:1;fill-rule:nonzero;stroke:none"
           id="text1133"><tspan
             x="0 5.4071999 13.680216 23.142817 31.776312 35.921833 41.653465 50.629417"
             y="0"
             sodipodi:role="line"
             id="tspan1131">(Spalte,</tspan></text></g></g><g
       id="g1135"><g
         id="g1137"
         clip-path="url(#clipPath1141)"><text
           transform="matrix(1,0,0,-1,394.1,290.5)"
           style="font-variant:normal;font-weight:normal;font-size:18.024px;font-family:Calibri;-inkscape-font-specification:Calibri;writing-mode:lr-tb;fill:#000000;fill-opacity:1;fill-rule:nonzero;stroke:none"
           id="text1145"><tspan
             x="0 9.3544559 18.330408 22.475927 31.938528 40.914478"
             y="0"
             sodipodi:role="line"
             id="tspan1143">Reihe)</tspan></text></g></g><g
       id="g1147"><g
         id="g1149"
         clip-path="url(#clipPath1153)"><text
           transform="matrix(1,0,0,-1,440.45,290.5)"
           style="font-variant:normal;font-weight:normal;font-size:18.024px;font-family:Calibri;-inkscape-font-specification:Calibri;writing-mode:lr-tb;fill:#000000;fill-opacity:1;fill-rule:nonzero;stroke:none"
           id="text1157"><tspan
             x="0"
             y="0"
             id="tspan1155">;</tspan></text></g></g><path
       d="m 282.72,240.96 h 391.8 V 276 h -391.8 z"
       style="fill:#d9d9d9;fill-opacity:1;fill-rule:evenodd;stroke:none"
       id="path1159" /><g
       id="g1161"><g
         id="g1163"
         clip-path="url(#clipPath1167)"><text
           transform="matrix(1,0,0,-1,289.94,252.43)"
           style="font-variant:normal;font-weight:normal;font-size:18px;font-family:Calibri;-inkscape-font-specification:Calibri;writing-mode:lr-tb;fill:#000000;fill-opacity:1;fill-rule:nonzero;stroke:none"
           id="text1171"><tspan
             x="0 9.1260004 18.576 28.062 37.439999 42.93 46.998001 55.476002 64.440002 73.889999 80.171997 89.622002 97.236 105.246 111.276 115.434 124.056 133.506 139.05"
             y="0"
             sodipodi:role="line"
             id="tspan1169">Knopf gedrückt auf </tspan></text></g></g><g
       id="g1173"><g
         id="g1175"
         clip-path="url(#clipPath1179)"><text
           transform="matrix(1,0,0,-1,433.13,252.43)"
           style="font-variant:normal;font-weight:normal;font-size:18px;font-family:Calibri;-inkscape-font-specification:Calibri;writing-mode:lr-tb;fill:#7030a0;fill-opacity:1;fill-rule:nonzero;stroke:none"
           id="text1183"><tspan
             x="0 6.0300002 12.24 21.690001"
             y="0"
             sodipodi:role="line"
             id="tspan1181">true</tspan></text></g></g><g
       id="g1185"><g
         id="g1187"
         clip-path="url(#clipPath1191)"><text
           transform="matrix(1,0,0,-1,468.05,252.43)"
           style="font-variant:normal;font-weight:normal;font-size:18px;font-family:Calibri;-inkscape-font-specification:Calibri;writing-mode:lr-tb;fill:#000000;fill-opacity:1;fill-rule:nonzero;stroke:none"
           id="text1195"><tspan
             x="0 7.0380001 16.002001 21.959999 29.07 34.793999 43.757999"
             y="0"
             sodipodi:role="line"
             id="tspan1193">setzten</tspan></text></g></g><g
       id="g1197"><g
         id="g1199"
         clip-path="url(#clipPath1203)"><path
           d="m 259.2,172.08 h 21.12 v 64.08 H 259.2 Z"
           style="fill:#4472c4;fill-opacity:1;fill-rule:evenodd;stroke:none"
           id="path1205" /></g></g><path
       d="m 259.2,209.76 h 415.32 v 28.8 H 259.2 Z"
       style="fill:#4472c4;fill-opacity:1;fill-rule:evenodd;stroke:none"
       id="path1207" /><g
       id="g1209"><g
         id="g1211"
         clip-path="url(#clipPath1215)"><text
           transform="matrix(1,0,0,-1,266.47,218.06)"
           style="font-variant:normal;font-weight:normal;font-size:18px;font-family:Calibri;-inkscape-font-specification:Calibri;writing-mode:lr-tb;fill:#000000;fill-opacity:1;fill-rule:nonzero;stroke:none"
           id="text1219"><tspan
             x="0 12.726 21.690001 31.194"
             y="0"
             sodipodi:role="line"
             id="tspan1217">wenn</tspan></text></g></g><g
       id="g1221"><g
         id="g1223"
         clip-path="url(#clipPath1227)"><text
           transform="matrix(1,0,0,-1,315.43,218.06)"
           style="font-variant:normal;font-weight:normal;font-size:18px;font-family:Calibri;-inkscape-font-specification:Calibri;writing-mode:lr-tb;fill:#000000;fill-opacity:1;fill-rule:nonzero;stroke:none"
           id="text1231"><tspan
             x="0 9.4860001 13.572"
             y="0"
             sodipodi:role="line"
             id="tspan1229">die</tspan></text></g></g><g
       id="g1233"><g
         id="g1235"
         clip-path="url(#clipPath1239)"><text
           transform="matrix(1,0,0,-1,342.22,218.06)"
           style="font-variant:normal;font-weight:normal;font-size:18px;font-family:Calibri;-inkscape-font-specification:Calibri;writing-mode:lr-tb;fill:#000000;fill-opacity:1;fill-rule:nonzero;stroke:none"
           id="text1243"><tspan
             x="0 9.3599997 18.323999 22.464001 31.914"
             y="0"
             sodipodi:role="line"
             id="tspan1241">Reihe</tspan></text></g></g><g
       id="g1245"><g
         id="g1247"
         clip-path="url(#clipPath1251)"><text
           transform="matrix(1,0,0,-1,387.34,218.06)"
           style="font-variant:normal;font-weight:normal;font-size:18px;font-family:Calibri;-inkscape-font-specification:Calibri;writing-mode:lr-tb;fill:#7030a0;fill-opacity:1;fill-rule:nonzero;stroke:none"
           id="text1255"><tspan
             x="0 9.4499998 13.59 22.068001"
             y="0"
             sodipodi:role="line"
             id="tspan1253">high</tspan></text></g></g><g
       id="g1257"><g
         id="g1259"
         clip-path="url(#clipPath1263)"><text
           transform="matrix(1,0,0,-1,423.1,218.06)"
           style="font-variant:normal;font-weight:normal;font-size:18px;font-family:Calibri;-inkscape-font-specification:Calibri;writing-mode:lr-tb;fill:#000000;fill-opacity:1;fill-rule:nonzero;stroke:none"
           id="text1267"><tspan
             x="0 4.0799999"
             y="0"
             sodipodi:role="line"
             id="tspan1265">is</tspan></text></g></g><g
       id="g1269"><g
         id="g1271"
         clip-path="url(#clipPath1275)"><text
           transform="matrix(1,0,0,-1,434.02,218.06)"
           style="font-variant:normal;font-weight:normal;font-size:18px;font-family:Calibri;-inkscape-font-specification:Calibri;writing-mode:lr-tb;fill:#000000;fill-opacity:1;fill-rule:nonzero;stroke:none"
           id="text1279"><tspan
             x="0"
             y="0"
             id="tspan1277">t</tspan></text></g></g><path
       d="m 282.72,172.08 h 391.8 v 35.04 h -391.8 z"
       style="fill:#d9d9d9;fill-opacity:1;fill-rule:evenodd;stroke:none"
       id="path1281" /><g
       id="g1283"><g
         id="g1285"
         clip-path="url(#clipPath1289)"><text
           transform="matrix(1,0,0,-1,289.94,183.5)"
           style="font-variant:normal;font-weight:normal;font-size:18.024px;font-family:Calibri;-inkscape-font-specification:Calibri;writing-mode:lr-tb;fill:#000000;fill-opacity:1;fill-rule:nonzero;stroke:none"
           id="text1293"><tspan
             x="0 9.1201439 18.582745 28.081392 37.435848 42.933167 47.006592 55.441826 64.417778 73.880379 80.170753 89.633354 97.20343 105.24213 111.28017 115.4257 124.05919 133.52179 139.01912"
             y="0"
             sodipodi:role="line"
             id="tspan1291">Knopf gedrückt auf </tspan></text></g></g><g
       id="g1295"><g
         id="g1297"
         clip-path="url(#clipPath1301)"><text
           transform="matrix(1,0,0,-1,433.13,183.5)"
           style="font-variant:normal;font-weight:normal;font-size:18.024px;font-family:Calibri;-inkscape-font-specification:Calibri;writing-mode:lr-tb;fill:#7030a0;fill-opacity:1;fill-rule:nonzero;stroke:none"
           id="text1305"><tspan
             x="0 5.1548638 13.78836 17.879808 24.927193"
             y="0"
             sodipodi:role="line"
             id="tspan1303">false</tspan></text></g></g><g
       id="g1307"><g
         id="g1309"
         clip-path="url(#clipPath1313)"><text
           transform="matrix(1,0,0,-1,471.17,183.5)"
           style="font-variant:normal;font-weight:normal;font-size:18.024px;font-family:Calibri;-inkscape-font-specification:Calibri;writing-mode:lr-tb;fill:#000000;fill-opacity:1;fill-rule:nonzero;stroke:none"
           id="text1317"><tspan
             x="0 7.0473838 15.95124 21.989281 29.036663 34.804344 43.780296"
             y="0"
             sodipodi:role="line"
             id="tspan1315">setzten</tspan></text></g></g><path
       d="m 259.2,134.64 h 415.32 v 35.04 H 259.2 Z"
       style="fill:#d9d9d9;fill-opacity:1;fill-rule:evenodd;stroke:none"
       id="path1319" /><g
       id="g1321"><g
         id="g1323"
         clip-path="url(#clipPath1327)"><text
           transform="matrix(1,0,0,-1,266.47,146.02)"
           style="font-variant:normal;font-weight:normal;font-size:18px;font-family:Calibri;-inkscape-font-specification:Calibri;writing-mode:lr-tb;fill:#000000;fill-opacity:1;fill-rule:nonzero;stroke:none"
           id="text1331"><tspan
             x="0 11.07 15.12 24.084 28.296 39.366001 43.416 50.453999 59.958 64.043999 72.323997 80.370003 87.407997 91.638 104.364 113.328 119.358 128.808 137.826 147.276 151.34399 160.002 169.452 177.92999 186.76801 193.48199 202.446 206.586 214.84801"
             y="0"
             sodipodi:role="line"
             id="tspan1329">Die Displays werden angezeigt</tspan></text></g></g><path
       d="m 235.8,97.08 h 438.72 v 35.04 H 235.8 Z"
       style="fill:#d9d9d9;fill-opacity:1;fill-rule:evenodd;stroke:none"
       id="path1333" /><g
       id="g1335"><g
         id="g1337"
         clip-path="url(#clipPath1341)"><text
           transform="matrix(1,0,0,-1,243.02,108.36)"
           style="font-variant:normal;font-weight:normal;font-size:18px;font-family:Calibri;-inkscape-font-specification:Calibri;writing-mode:lr-tb;fill:#000000;fill-opacity:1;fill-rule:nonzero;stroke:none"
           id="text1345"><tspan
             x="0 10.422 18.486 24.516001 33.966 42.93 47.07 51.119999 60.084 64.295998 72.557999 82.008003 90.683998 94.769997 100.53 109.494 113.706 126.576 130.62601 136.62 146.07001 150.282 158.90401 168.354 173.89799"
             y="0"
             sodipodi:role="line"
             id="tspan1343">Aktuelle Spalte wird auf </tspan></text></g></g><g
       id="g1347"><g
         id="g1349"
         clip-path="url(#clipPath1353)"><text
           transform="matrix(1,0,0,-1,421.13,108.36)"
           style="font-variant:normal;font-weight:normal;font-size:18px;font-family:Consolas;-inkscape-font-specification:Consolas;writing-mode:lr-tb;fill:#7030a0;fill-opacity:1;fill-rule:nonzero;stroke:none"
           id="text1357"><tspan
             x="0 9.8400002 19.68 29.52"
             y="0"
             sodipodi:role="line"
             id="tspan1355">high</tspan></text></g></g><g
       id="g1359"><g
         id="g1361"
         clip-path="url(#clipPath1365)"><text
           transform="matrix(1,0,0,-1,464.81,108.36)"
           style="font-variant:normal;font-weight:normal;font-size:18px;font-family:Calibri;-inkscape-font-specification:Calibri;writing-mode:lr-tb;fill:#000000;fill-opacity:1;fill-rule:nonzero;stroke:none"
           id="text1369"><tspan
             x="0 8.4060001 17.370001 24.462 33.335999 39.366001 46.422001"
             y="0"
             sodipodi:role="line"
             id="tspan1367">gesetzt</tspan></text></g></g><g
       id="g1371"><g
         id="g1373"
         clip-path="url(#clipPath1377)"><path
           d="m 200.64,97.08 h 12.48 v 410.28 h -12.48 z"
           style="fill:#ffd966;fill-opacity:1;fill-rule:evenodd;stroke:none"
           id="path1379" /></g></g><path
       d="m 200.64,483.12 h 473.88 v 24.24 H 200.64 Z"
       style="fill:#ffd966;fill-opacity:1;fill-rule:evenodd;stroke:none"
       id="path1381" /><g
       id="g1383"><g
         id="g1385"
         clip-path="url(#clipPath1389)"><text
           transform="matrix(1,0,0,-1,207.86,489.24)"
           style="font-variant:normal;font-weight:normal;font-size:18px;font-family:Calibri;-inkscape-font-specification:Calibri;writing-mode:lr-tb;fill:#000000;fill-opacity:1;fill-rule:nonzero;stroke:none"
           id="text1393"><tspan
             x="0"
             y="0"
             id="tspan1391">d</tspan></text></g></g><g
       id="g1395"><g
         id="g1397"
         clip-path="url(#clipPath1401)"><text
           transform="matrix(1,0,0,-1,217.34,489.24)"
           style="font-variant:normal;font-weight:normal;font-size:18px;font-family:Calibri;-inkscape-font-specification:Calibri;writing-mode:lr-tb;fill:#000000;fill-opacity:1;fill-rule:nonzero;stroke:none"
           id="text1405"><tspan
             x="0 9.4499998 15.48 23.040001 32.490002 40.967999 49.931999 59.382 68.382004 77.832001"
             y="0"
             sodipodi:role="line"
             id="tspan1403">urchgehen(</tspan></text></g></g><g
       id="g1407"><g
         id="g1409"
         clip-path="url(#clipPath1413)"><text
           transform="matrix(1,0,0,-1,300.65,489.24)"
           style="font-variant:normal;font-weight:normal;font-size:18px;font-family:Calibri;-inkscape-font-specification:Calibri;writing-mode:lr-tb;fill:#000000;fill-opacity:1;fill-rule:nonzero;stroke:none"
           id="text1417"><tspan
             x="0"
             y="0"
             id="tspan1415">)</tspan></text></g></g></g></svg>
