<?xml version="1.0" encoding="UTF-8" standalone="no"?>
<svg
   xmlns:dc="http://purl.org/dc/elements/1.1/"
   xmlns:cc="http://creativecommons.org/ns#"
   xmlns:rdf="http://www.w3.org/1999/02/22-rdf-syntax-ns#"
   xmlns:svg="http://www.w3.org/2000/svg"
   xmlns="http://www.w3.org/2000/svg"
   xmlns:sodipodi="http://sodipodi.sourceforge.net/DTD/sodipodi-0.dtd"
   xmlns:inkscape="http://www.inkscape.org/namespaces/inkscape"
   version="1.1"
   id="svg833"
   xml:space="preserve"
   width="163.06799mm"
   height="161.54399mm"
   viewBox="0 0 616.31997 610.55997"
   sodipodi:docname="InputToArrayAlgorythmus.svg"
   inkscape:version="1.0.1 (3bc2e813f5, 2020-09-07)"><metadata
     id="metadata839"><rdf:RDF><cc:Work
         rdf:about=""><dc:format>image/svg+xml</dc:format><dc:type
           rdf:resource="http://purl.org/dc/dcmitype/StillImage" /><dc:title></dc:title></cc:Work></rdf:RDF></metadata><defs
     id="defs837"><clipPath
       clipPathUnits="userSpaceOnUse"
       id="clipPath849"><path
         d="M 0,1.2207e-4 H 960 V 540.00012 H 0 Z"
         clip-rule="evenodd"
         id="path847" /></clipPath><clipPath
       clipPathUnits="userSpaceOnUse"
       id="clipPath859"><path
         d="M 0,540 H 960 V 1.8311e-4 H 3.0518e-5"
         clip-rule="evenodd"
         id="path857" /></clipPath><clipPath
       clipPathUnits="userSpaceOnUse"
       id="clipPath871"><path
         d="M 1.4305e-5,0 H 960.00001 V 540 H 1.4305e-5 Z"
         clip-rule="evenodd"
         id="path869" /></clipPath><clipPath
       clipPathUnits="userSpaceOnUse"
       id="clipPath883"><path
         d="M 1.4305e-5,0 H 960.00001 V 540 H 1.4305e-5 Z"
         clip-rule="evenodd"
         id="path881" /></clipPath><clipPath
       clipPathUnits="userSpaceOnUse"
       id="clipPath895"><path
         d="M 1.4305e-5,0 H 960.00001 V 540 H 1.4305e-5 Z"
         clip-rule="evenodd"
         id="path893" /></clipPath><clipPath
       clipPathUnits="userSpaceOnUse"
       id="clipPath907"><path
         d="M 1.4305e-5,0 H 960.00001 V 540 H 1.4305e-5 Z"
         clip-rule="evenodd"
         id="path905" /></clipPath><clipPath
       clipPathUnits="userSpaceOnUse"
       id="clipPath921"><path
         d="M 1.4305e-5,0 H 960.00001 V 540 H 1.4305e-5 Z"
         clip-rule="evenodd"
         id="path919" /></clipPath><clipPath
       clipPathUnits="userSpaceOnUse"
       id="clipPath933"><path
         d="M 1.4305e-5,0 H 960.00001 V 540 H 1.4305e-5 Z"
         clip-rule="evenodd"
         id="path931" /></clipPath><clipPath
       clipPathUnits="userSpaceOnUse"
       id="clipPath945"><path
         d="M 1.4305e-5,0 H 960.00001 V 540 H 1.4305e-5 Z"
         clip-rule="evenodd"
         id="path943" /></clipPath><clipPath
       clipPathUnits="userSpaceOnUse"
       id="clipPath957"><path
         d="M 1.4305e-5,0 H 960.00001 V 540 H 1.4305e-5 Z"
         clip-rule="evenodd"
         id="path955" /></clipPath><clipPath
       clipPathUnits="userSpaceOnUse"
       id="clipPath969"><path
         d="M 1.4305e-5,0 H 960.00001 V 540 H 1.4305e-5 Z"
         clip-rule="evenodd"
         id="path967" /></clipPath><clipPath
       clipPathUnits="userSpaceOnUse"
       id="clipPath981"><path
         d="M 0,540 H 960 V 2.4414e-4 L 3.0518e-5,1.8311e-4"
         clip-rule="evenodd"
         id="path979" /></clipPath><clipPath
       clipPathUnits="userSpaceOnUse"
       id="clipPath993"><path
         d="M 1.4305e-5,0 H 960.00001 V 540 H 1.4305e-5 Z"
         clip-rule="evenodd"
         id="path991" /></clipPath><clipPath
       clipPathUnits="userSpaceOnUse"
       id="clipPath1005"><path
         d="M 1.4305e-5,0 H 960.00001 V 540 H 1.4305e-5 Z"
         clip-rule="evenodd"
         id="path1003" /></clipPath><clipPath
       clipPathUnits="userSpaceOnUse"
       id="clipPath1017"><path
         d="M 1.4305e-5,0 H 960.00001 V 540 H 1.4305e-5 Z"
         clip-rule="evenodd"
         id="path1015" /></clipPath><clipPath
       clipPathUnits="userSpaceOnUse"
       id="clipPath1029"><path
         d="M 1.4305e-5,0 H 960.00001 V 540 H 1.4305e-5 Z"
         clip-rule="evenodd"
         id="path1027" /></clipPath><clipPath
       clipPathUnits="userSpaceOnUse"
       id="clipPath1041"><path
         d="M 1.4305e-5,0 H 960.00001 V 540 H 1.4305e-5 Z"
         clip-rule="evenodd"
         id="path1039" /></clipPath><clipPath
       clipPathUnits="userSpaceOnUse"
       id="clipPath1053"><path
         d="M 1.4305e-5,0 H 960.00001 V 540 H 1.4305e-5 Z"
         clip-rule="evenodd"
         id="path1051" /></clipPath><clipPath
       clipPathUnits="userSpaceOnUse"
       id="clipPath1065"><path
         d="M 1.4305e-5,0 H 960.00001 V 540 H 1.4305e-5 Z"
         clip-rule="evenodd"
         id="path1063" /></clipPath><clipPath
       clipPathUnits="userSpaceOnUse"
       id="clipPath1077"><path
         d="M 1.4305e-5,0 H 960.00001 V 540 H 1.4305e-5 Z"
         clip-rule="evenodd"
         id="path1075" /></clipPath><clipPath
       clipPathUnits="userSpaceOnUse"
       id="clipPath1091"><path
         d="M 1.4305e-5,0 H 960.00001 V 540 H 1.4305e-5 Z"
         clip-rule="evenodd"
         id="path1089" /></clipPath><clipPath
       clipPathUnits="userSpaceOnUse"
       id="clipPath1103"><path
         d="M 1.4305e-5,0 H 960.00001 V 540 H 1.4305e-5 Z"
         clip-rule="evenodd"
         id="path1101" /></clipPath><clipPath
       clipPathUnits="userSpaceOnUse"
       id="clipPath1115"><path
         d="M 1.4305e-5,0 H 960.00001 V 540 H 1.4305e-5 Z"
         clip-rule="evenodd"
         id="path1113" /></clipPath><clipPath
       clipPathUnits="userSpaceOnUse"
       id="clipPath1127"><path
         d="M 1.4305e-5,0 H 960.00001 V 540 H 1.4305e-5 Z"
         clip-rule="evenodd"
         id="path1125" /></clipPath><clipPath
       clipPathUnits="userSpaceOnUse"
       id="clipPath1139"><path
         d="M 1.4305e-5,0 H 960.00001 V 540 H 1.4305e-5 Z"
         clip-rule="evenodd"
         id="path1137" /></clipPath><clipPath
       clipPathUnits="userSpaceOnUse"
       id="clipPath1151"><path
         d="M 0,540 H 960 V 2.4414e-4 L 3.0518e-5,1.8311e-4"
         clip-rule="evenodd"
         id="path1149" /></clipPath><clipPath
       clipPathUnits="userSpaceOnUse"
       id="clipPath1163"><path
         d="M 1.4305e-5,0 H 960.00001 V 540 H 1.4305e-5 Z"
         clip-rule="evenodd"
         id="path1161" /></clipPath><clipPath
       clipPathUnits="userSpaceOnUse"
       id="clipPath1177"><path
         d="M 1.4305e-5,0 H 960.00001 V 540 H 1.4305e-5 Z"
         clip-rule="evenodd"
         id="path1175" /></clipPath><clipPath
       clipPathUnits="userSpaceOnUse"
       id="clipPath1189"><path
         d="M 1.4305e-5,0 H 960.00001 V 540 H 1.4305e-5 Z"
         clip-rule="evenodd"
         id="path1187" /></clipPath><clipPath
       clipPathUnits="userSpaceOnUse"
       id="clipPath1201"><path
         d="M 1.4305e-5,0 H 960.00001 V 540 H 1.4305e-5 Z"
         clip-rule="evenodd"
         id="path1199" /></clipPath><clipPath
       clipPathUnits="userSpaceOnUse"
       id="clipPath1213"><path
         d="M 1.4305e-5,0 H 960.00001 V 540 H 1.4305e-5 Z"
         clip-rule="evenodd"
         id="path1211" /></clipPath><clipPath
       clipPathUnits="userSpaceOnUse"
       id="clipPath1225"><path
         d="M 0,540 H 960 V 1.8311e-4 H 3.0518e-5"
         clip-rule="evenodd"
         id="path1223" /></clipPath><clipPath
       clipPathUnits="userSpaceOnUse"
       id="clipPath1237"><path
         d="M 1.4305e-5,0 H 960.00001 V 540 H 1.4305e-5 Z"
         clip-rule="evenodd"
         id="path1235" /></clipPath><clipPath
       clipPathUnits="userSpaceOnUse"
       id="clipPath1249"><path
         d="M 1.4305e-5,0 H 960.00001 V 540 H 1.4305e-5 Z"
         clip-rule="evenodd"
         id="path1247" /></clipPath><clipPath
       clipPathUnits="userSpaceOnUse"
       id="clipPath1261"><path
         d="M 1.4305e-5,0 H 960.00001 V 540 H 1.4305e-5 Z"
         clip-rule="evenodd"
         id="path1259" /></clipPath><clipPath
       clipPathUnits="userSpaceOnUse"
       id="clipPath1273"><path
         d="M 1.4305e-5,0 H 960.00001 V 540 H 1.4305e-5 Z"
         clip-rule="evenodd"
         id="path1271" /></clipPath><clipPath
       clipPathUnits="userSpaceOnUse"
       id="clipPath1285"><path
         d="M 1.4305e-5,0 H 960.00001 V 540 H 1.4305e-5 Z"
         clip-rule="evenodd"
         id="path1283" /></clipPath><clipPath
       clipPathUnits="userSpaceOnUse"
       id="clipPath1297"><path
         d="M 0,540 H 960 V 1.8311e-4 H 3.0518e-5"
         clip-rule="evenodd"
         id="path1295" /></clipPath><clipPath
       clipPathUnits="userSpaceOnUse"
       id="clipPath1309"><path
         d="M 1.4305e-5,0 H 960.00001 V 540 H 1.4305e-5 Z"
         clip-rule="evenodd"
         id="path1307" /></clipPath><clipPath
       clipPathUnits="userSpaceOnUse"
       id="clipPath1321"><path
         d="M 1.4305e-5,0 H 960.00001 V 540 H 1.4305e-5 Z"
         clip-rule="evenodd"
         id="path1319" /></clipPath><clipPath
       clipPathUnits="userSpaceOnUse"
       id="clipPath1333"><path
         d="M 1.4305e-5,0 H 960.00001 V 540 H 1.4305e-5 Z"
         clip-rule="evenodd"
         id="path1331" /></clipPath><clipPath
       clipPathUnits="userSpaceOnUse"
       id="clipPath1345"><path
         d="M 1.4305e-5,0 H 960.00001 V 540 H 1.4305e-5 Z"
         clip-rule="evenodd"
         id="path1343" /></clipPath><clipPath
       clipPathUnits="userSpaceOnUse"
       id="clipPath1357"><path
         d="M 1.4305e-5,0 H 960.00001 V 540 H 1.4305e-5 Z"
         clip-rule="evenodd"
         id="path1355" /></clipPath><clipPath
       clipPathUnits="userSpaceOnUse"
       id="clipPath1369"><path
         d="M 1.4305e-5,0 H 960.00001 V 540 H 1.4305e-5 Z"
         clip-rule="evenodd"
         id="path1367" /></clipPath><clipPath
       clipPathUnits="userSpaceOnUse"
       id="clipPath1381"><path
         d="M 1.4305e-5,0 H 960.00001 V 540 H 1.4305e-5 Z"
         clip-rule="evenodd"
         id="path1379" /></clipPath><clipPath
       clipPathUnits="userSpaceOnUse"
       id="clipPath1395"><path
         d="M 1.4305e-5,0 H 960.00001 V 540 H 1.4305e-5 Z"
         clip-rule="evenodd"
         id="path1393" /></clipPath><clipPath
       clipPathUnits="userSpaceOnUse"
       id="clipPath1409"><path
         d="M 1.4305e-5,0 H 960.00001 V 540 H 1.4305e-5 Z"
         clip-rule="evenodd"
         id="path1407" /></clipPath><clipPath
       clipPathUnits="userSpaceOnUse"
       id="clipPath1423"><path
         d="M 1.4305e-5,0 H 960.00001 V 540 H 1.4305e-5 Z"
         clip-rule="evenodd"
         id="path1421" /></clipPath><clipPath
       clipPathUnits="userSpaceOnUse"
       id="clipPath1435"><path
         d="M 1.4305e-5,0 H 960.00001 V 540 H 1.4305e-5 Z"
         clip-rule="evenodd"
         id="path1433" /></clipPath><clipPath
       clipPathUnits="userSpaceOnUse"
       id="clipPath1447"><path
         d="M 1.4305e-5,0 H 960.00001 V 540 H 1.4305e-5 Z"
         clip-rule="evenodd"
         id="path1445" /></clipPath><clipPath
       clipPathUnits="userSpaceOnUse"
       id="clipPath1459"><path
         d="M 1.4305e-5,0 H 960.00001 V 540 H 1.4305e-5 Z"
         clip-rule="evenodd"
         id="path1457" /></clipPath><clipPath
       clipPathUnits="userSpaceOnUse"
       id="clipPath1471"><path
         d="M 0,540 H 960 V 1.8311e-4 H 3.0518e-5"
         clip-rule="evenodd"
         id="path1469" /></clipPath><clipPath
       clipPathUnits="userSpaceOnUse"
       id="clipPath1483"><path
         d="M 1.4305e-5,0 H 960.00001 V 540 H 1.4305e-5 Z"
         clip-rule="evenodd"
         id="path1481" /></clipPath><clipPath
       clipPathUnits="userSpaceOnUse"
       id="clipPath1497"><path
         d="M 1.4305e-5,0 H 960.00001 V 540 H 1.4305e-5 Z"
         clip-rule="evenodd"
         id="path1495" /></clipPath></defs><sodipodi:namedview
     pagecolor="#ffffff"
     bordercolor="#666666"
     borderopacity="1"
     objecttolerance="10"
     gridtolerance="10"
     guidetolerance="10"
     inkscape:pageopacity="0"
     inkscape:pageshadow="2"
     inkscape:window-width="2560"
     inkscape:window-height="1377"
     id="namedview835"
     showgrid="false"
     inkscape:pagecheckerboard="false"
     units="mm"
     fit-margin-top="0"
     fit-margin-left="0"
     fit-margin-right="0"
     fit-margin-bottom="0"
     inkscape:zoom="0.7234375"
     inkscape:cx="124.09949"
     inkscape:cy="297.5453"
     inkscape:window-x="-8"
     inkscape:window-y="-8"
     inkscape:window-maximized="1"
     inkscape:current-layer="g841" /><g
     id="g841"
     inkscape:groupmode="layer"
     inkscape:label="Facharbeit Informatik"
     transform="matrix(1.3333333,0,0,-1.3333333,-346.23999,656.63998)"><g
       id="g853"><g
         id="g855"
         clip-path="url(#clipPath859)"><path
           d="M 259.68,34.56 H 280.8 V 452.64 H 259.68 Z"
           style="fill:#ed7d31;fill-opacity:1;fill-rule:evenodd;stroke:none"
           id="path861" /></g></g><path
       d="m 259.68,423.84 h 462.24 v 28.8 H 259.68 Z"
       style="fill:#ed7d31;fill-opacity:1;fill-rule:evenodd;stroke:none"
       id="path863" /><g
       id="g865"><g
         id="g867"
         clip-path="url(#clipPath871)"><text
           transform="matrix(1,0,0,-1,266.93,432.22)"
           style="font-variant:normal;font-weight:normal;font-size:18px;font-family:Calibri;-inkscape-font-specification:Calibri;writing-mode:lr-tb;fill:#000000;fill-opacity:1;fill-rule:nonzero;stroke:none"
           id="text875"><tspan
             x="0 10.422 16.704 22.554001"
             y="0"
             sodipodi:role="line"
             id="tspan873">Arra</tspan></text></g></g><g
       id="g877"><g
         id="g879"
         clip-path="url(#clipPath883)"><text
           transform="matrix(1,0,0,-1,297.77,432.22)"
           style="font-variant:normal;font-weight:normal;font-size:18px;font-family:Calibri;-inkscape-font-specification:Calibri;writing-mode:lr-tb;fill:#000000;fill-opacity:1;fill-rule:nonzero;stroke:none"
           id="text887"><tspan
             x="0"
             y="0"
             id="tspan885">y</tspan></text></g></g><g
       id="g889"><g
         id="g891"
         clip-path="url(#clipPath895)"><text
           transform="matrix(1,0,0,-1,310.01,432.22)"
           style="font-variant:normal;font-weight:normal;font-size:18px;font-family:Calibri;-inkscape-font-specification:Calibri;writing-mode:lr-tb;fill:#000000;fill-opacity:1;fill-rule:nonzero;stroke:none"
           id="text899"><tspan
             x="0 9.4499998 18.936001 24.93 32.490002 41.939999 50.417999 59.382 68.832001"
             y="0"
             sodipodi:role="line"
             id="tspan897">durchgehe</tspan></text></g></g><g
       id="g901"><g
         id="g903"
         clip-path="url(#clipPath907)"><text
           transform="matrix(1,0,0,-1,387.89,432.22)"
           style="font-variant:normal;font-weight:normal;font-size:18px;font-family:Calibri;-inkscape-font-specification:Calibri;writing-mode:lr-tb;fill:#000000;fill-opacity:1;fill-rule:nonzero;stroke:none"
           id="text911"><tspan
             x="0"
             y="0"
             id="tspan909">n</tspan></text></g></g><path
       d="m 259.68,457.44 h 462.24 v 35.04 H 259.68 Z"
       style="fill:#d9d9d9;fill-opacity:1;fill-rule:evenodd;stroke:none"
       id="path913" /><g
       id="g915"><g
         id="g917"
         clip-path="url(#clipPath921)"><text
           transform="matrix(1,0,0,-1,266.93,468.94)"
           style="font-variant:normal;font-weight:normal;font-size:18px;font-family:Calibri;-inkscape-font-specification:Calibri;writing-mode:lr-tb;fill:#7030a0;fill-opacity:1;fill-rule:nonzero;stroke:none"
           id="text925"><tspan
             x="0 9.4499998 18.936001 28.422001 32.562 41.526001 50.147999"
             y="0"
             sodipodi:role="line"
             id="tspan923">boolean</tspan></text></g></g><g
       id="g927"><g
         id="g929"
         clip-path="url(#clipPath933)"><text
           transform="matrix(1,0,0,-1,330.77,468.94)"
           style="font-variant:normal;font-weight:normal;font-size:18px;font-family:Calibri;-inkscape-font-specification:Calibri;writing-mode:lr-tb;fill:#f4b183;fill-opacity:1;fill-rule:nonzero;stroke:none"
           id="text937"><tspan
             x="0 4.086 11.124 26.514 30.653999 40.104 49.554001"
             y="0"
             sodipodi:role="line"
             id="tspan935">isMinus</tspan></text></g></g><g
       id="g939"><g
         id="g941"
         clip-path="url(#clipPath945)"><text
           transform="matrix(1,0,0,-1,391.61,468.94)"
           style="font-variant:normal;font-weight:normal;font-size:18px;font-family:Calibri;-inkscape-font-specification:Calibri;writing-mode:lr-tb;fill:#000000;fill-opacity:1;fill-rule:nonzero;stroke:none"
           id="text949"><tspan
             x="0 9"
             y="0"
             sodipodi:role="line"
             id="tspan947">= </tspan></text></g></g><g
       id="g951"><g
         id="g953"
         clip-path="url(#clipPath957)"><text
           transform="matrix(1,0,0,-1,404.69,468.94)"
           style="font-variant:normal;font-weight:normal;font-size:18px;font-family:Calibri;-inkscape-font-specification:Calibri;writing-mode:lr-tb;fill:#7030a0;fill-opacity:1;fill-rule:nonzero;stroke:none"
           id="text961"><tspan
             x="0 6.0300002 12.24 21.690001"
             y="0"
             sodipodi:role="line"
             id="tspan959">true</tspan></text></g></g><g
       id="g963"><g
         id="g965"
         clip-path="url(#clipPath969)"><text
           transform="matrix(1,0,0,-1,435.41,468.94)"
           style="font-variant:normal;font-weight:normal;font-size:18px;font-family:Calibri;-inkscape-font-specification:Calibri;writing-mode:lr-tb;fill:#000000;fill-opacity:1;fill-rule:nonzero;stroke:none"
           id="text973"><tspan
             x="0"
             y="0"
             id="tspan971">;</tspan></text></g></g><g
       id="g975"><g
         id="g977"
         clip-path="url(#clipPath981)"><path
           d="m 283.2,283.32 h 21.12 V 419.04 H 283.2 Z"
           style="fill:#4472c4;fill-opacity:1;fill-rule:evenodd;stroke:none"
           id="path983" /></g></g><path
       d="m 283.2,392.64 h 438.72 v 28.8 H 283.2 Z"
       style="fill:#4472c4;fill-opacity:1;fill-rule:evenodd;stroke:none"
       id="path985" /><g
       id="g987"><g
         id="g989"
         clip-path="url(#clipPath993)"><text
           transform="matrix(1,0,0,-1,290.38,401.04)"
           style="font-variant:normal;font-weight:normal;font-size:18px;font-family:Calibri;-inkscape-font-specification:Calibri;writing-mode:lr-tb;fill:#000000;fill-opacity:1;fill-rule:nonzero;stroke:none"
           id="text997"><tspan
             x="0 12.726 21.690001 31.194"
             y="0"
             sodipodi:role="line"
             id="tspan995">wenn</tspan></text></g></g><g
       id="g999"><g
         id="g1001"
         clip-path="url(#clipPath1005)"><text
           transform="matrix(1,0,0,-1,335.26,401.04)"
           style="font-variant:normal;font-weight:normal;font-size:18px;font-family:Calibri;-inkscape-font-specification:Calibri;writing-mode:lr-tb;fill:#f4b183;fill-opacity:1;fill-rule:nonzero;stroke:none"
           id="text1009"><tspan
             x="0 4.086 11.124 26.514 30.653999 40.104 49.554001"
             y="0"
             sodipodi:role="line"
             id="tspan1007">isMinus</tspan></text></g></g><g
       id="g1011"><g
         id="g1013"
         clip-path="url(#clipPath1017)"><text
           transform="matrix(1,0,0,-1,396,401.04)"
           style="font-variant:normal;font-weight:normal;font-size:18px;font-family:Calibri;-inkscape-font-specification:Calibri;writing-mode:lr-tb;fill:#000000;fill-opacity:1;fill-rule:nonzero;stroke:none"
           id="text1021"><tspan
             x="0 9 18"
             y="0"
             sodipodi:role="line"
             id="tspan1019">== </tspan></text></g></g><g
       id="g1023"><g
         id="g1025"
         clip-path="url(#clipPath1029)"><text
           transform="matrix(1,0,0,-1,418.08,401.04)"
           style="font-variant:normal;font-weight:normal;font-size:18px;font-family:Calibri;-inkscape-font-specification:Calibri;writing-mode:lr-tb;fill:#7030a0;fill-opacity:1;fill-rule:nonzero;stroke:none"
           id="text1033"><tspan
             x="0 6.0300002 12.24 21.690001"
             y="0"
             sodipodi:role="line"
             id="tspan1031">true</tspan></text></g></g><g
       id="g1035"><g
         id="g1037"
         clip-path="url(#clipPath1041)"><text
           transform="matrix(1,0,0,-1,453,401.04)"
           style="font-variant:normal;font-weight:normal;font-size:18px;font-family:Calibri;-inkscape-font-specification:Calibri;writing-mode:lr-tb;fill:#000000;fill-opacity:1;fill-rule:nonzero;stroke:none"
           id="text1045"><tspan
             x="0 12.276 24.48 28.548 37.169998 45.234001 51.264 60.714001 69.678001 73.818001 77.867996 86.832001 93.924004 98.099998 106.884 110.934 119.898 134.28 143.31599 152.67599 158.70599 162.774 171.73801 180.702"
             y="0"
             sodipodi:role="line"
             id="tspan1043">&amp;&amp; aktuelles Element == </tspan></text></g></g><g
       id="g1047"><g
         id="g1049"
         clip-path="url(#clipPath1053)"><text
           transform="matrix(1,0,0,-1,638.06,401.04)"
           style="font-variant:normal;font-weight:normal;font-size:18px;font-family:Calibri;-inkscape-font-specification:Calibri;writing-mode:lr-tb;fill:#70ad47;fill-opacity:1;fill-rule:nonzero;stroke:none"
           id="text1057"><tspan
             x="0"
             y="0"
             id="tspan1055">‘</tspan></text></g></g><g
       id="g1059"><g
         id="g1061"
         clip-path="url(#clipPath1065)"><text
           transform="matrix(1,0,0,-1,642.5,401.04)"
           style="font-variant:normal;font-weight:normal;font-size:18px;font-family:Calibri;-inkscape-font-specification:Calibri;writing-mode:lr-tb;fill:#70ad47;fill-opacity:1;fill-rule:nonzero;stroke:none"
           id="text1069"><tspan
             x="0"
             y="0"
             id="tspan1067">-</tspan></text></g></g><g
       id="g1071"><g
         id="g1073"
         clip-path="url(#clipPath1077)"><text
           transform="matrix(1,0,0,-1,648.02,401.04)"
           style="font-variant:normal;font-weight:normal;font-size:18px;font-family:Calibri;-inkscape-font-specification:Calibri;writing-mode:lr-tb;fill:#70ad47;fill-opacity:1;fill-rule:nonzero;stroke:none"
           id="text1081"><tspan
             x="0"
             y="0"
             id="tspan1079">‘</tspan></text></g></g><path
       d="m 306.6,355.32 h 415.32 v 35.04 H 306.6 Z"
       style="fill:#d9d9d9;fill-opacity:1;fill-rule:evenodd;stroke:none"
       id="path1083" /><g
       id="g1085"><g
         id="g1087"
         clip-path="url(#clipPath1091)"><text
           transform="matrix(1,0,0,-1,313.85,366.74)"
           style="font-variant:normal;font-weight:normal;font-size:18px;font-family:Calibri;-inkscape-font-specification:Calibri;writing-mode:lr-tb;fill:#000000;fill-opacity:1;fill-rule:nonzero;stroke:none"
           id="text1095"><tspan
             x="0 11.07 20.034 34.416 38.627998 44.622002 53.585999 61.200001 70.650002 79.613998 89.117996 93.293999 103.716 109.998 115.848 124.128 132.282 136.35001 149.22 153.28799 159.282 168.73199 172.944 179.91 189.36 195.642 199.81799 208.09801 216.72 226.17 230.31 234.48599 243.45 247.59 257.04001"
             y="0"
             sodipodi:role="line"
             id="tspan1093">Dem rechen Array wird zur Zahl ein </tspan></text></g></g><g
       id="g1097"><g
         id="g1099"
         clip-path="url(#clipPath1103)"><text
           transform="matrix(1,0,0,-1,575.23,366.74)"
           style="font-variant:normal;font-weight:normal;font-size:18px;font-family:Calibri;-inkscape-font-specification:Calibri;writing-mode:lr-tb;fill:#70ad47;fill-opacity:1;fill-rule:nonzero;stroke:none"
           id="text1107"><tspan
             x="0"
             y="0"
             id="tspan1105">‘</tspan></text></g></g><g
       id="g1109"><g
         id="g1111"
         clip-path="url(#clipPath1115)"><text
           transform="matrix(1,0,0,-1,579.67,366.74)"
           style="font-variant:normal;font-weight:normal;font-size:18px;font-family:Calibri;-inkscape-font-specification:Calibri;writing-mode:lr-tb;fill:#70ad47;fill-opacity:1;fill-rule:nonzero;stroke:none"
           id="text1119"><tspan
             x="0"
             y="0"
             id="tspan1117">-</tspan></text></g></g><g
       id="g1121"><g
         id="g1123"
         clip-path="url(#clipPath1127)"><text
           transform="matrix(1,0,0,-1,585.19,366.74)"
           style="font-variant:normal;font-weight:normal;font-size:18px;font-family:Calibri;-inkscape-font-specification:Calibri;writing-mode:lr-tb;fill:#70ad47;fill-opacity:1;fill-rule:nonzero;stroke:none"
           id="text1131"><tspan
             x="0"
             y="0"
             id="tspan1129">‘</tspan></text></g></g><g
       id="g1133"><g
         id="g1135"
         clip-path="url(#clipPath1139)"><text
           transform="matrix(1,0,0,-1,593.83,366.74)"
           style="font-variant:normal;font-weight:normal;font-size:18px;font-family:Calibri;-inkscape-font-specification:Calibri;writing-mode:lr-tb;fill:#000000;fill-opacity:1;fill-rule:nonzero;stroke:none"
           id="text1143"><tspan
             x="0 9.4499998 13.59 23.040001 30.006001 39.456001 47.933998 56.771999 62.262001 71.748001 80.028 86.057999"
             y="0"
             sodipodi:role="line"
             id="tspan1141">hinzugefügt;</tspan></text></g></g><g
       id="g1145"><g
         id="g1147"
         clip-path="url(#clipPath1151)"><path
           d="m 304.32,283.32 h 21.12 v 61.32 h -21.12 z"
           style="fill:#333f50;fill-opacity:1;fill-rule:evenodd;stroke:none"
           id="path1153" /></g></g><path
       d="m 304.32,324.12 h 417.6 v 28.8 h -417.6 z"
       style="fill:#333f50;fill-opacity:1;fill-rule:evenodd;stroke:none"
       id="path1155" /><g
       id="g1157"><g
         id="g1159"
         clip-path="url(#clipPath1163)"><text
           transform="matrix(1,0,0,-1,311.5,332.47)"
           style="font-variant:normal;font-weight:normal;font-size:18.024px;font-family:Calibri;-inkscape-font-specification:Calibri;writing-mode:lr-tb;fill:#000000;fill-opacity:1;fill-rule:nonzero;stroke:none"
           id="text1167"><tspan
             x="0 7.0473838 16.546032 26.008633 35.471233 42.3564"
             y="0"
             sodipodi:role="line"
             id="tspan1165">sonnst</tspan></text></g></g><path
       d="m 327.72,286.68 h 394.2 v 35.04 h -394.2 z"
       style="fill:#d9d9d9;fill-opacity:1;fill-rule:evenodd;stroke:none"
       id="path1169" /><g
       id="g1171"><g
         id="g1173"
         clip-path="url(#clipPath1177)"><text
           transform="matrix(1,0,0,-1,334.97,298.18)"
           style="font-variant:normal;font-weight:normal;font-size:18px;font-family:Calibri;-inkscape-font-specification:Calibri;writing-mode:lr-tb;fill:#f4b183;fill-opacity:1;fill-rule:nonzero;stroke:none"
           id="text1181"><tspan
             x="0 4.086 11.124 26.514 30.653999 40.104 49.554001"
             y="0"
             sodipodi:role="line"
             id="tspan1179">isMinus</tspan></text></g></g><g
       id="g1183"><g
         id="g1185"
         clip-path="url(#clipPath1189)"><text
           transform="matrix(1,0,0,-1,395.69,298.18)"
           style="font-variant:normal;font-weight:normal;font-size:18px;font-family:Calibri;-inkscape-font-specification:Calibri;writing-mode:lr-tb;fill:#000000;fill-opacity:1;fill-rule:nonzero;stroke:none"
           id="text1193"><tspan
             x="0 9"
             y="0"
             sodipodi:role="line"
             id="tspan1191">= </tspan></text></g></g><g
       id="g1195"><g
         id="g1197"
         clip-path="url(#clipPath1201)"><text
           transform="matrix(1,0,0,-1,408.89,298.18)"
           style="font-variant:normal;font-weight:normal;font-size:18px;font-family:Calibri;-inkscape-font-specification:Calibri;writing-mode:lr-tb;fill:#7030a0;fill-opacity:1;fill-rule:nonzero;stroke:none"
           id="text1205"><tspan
             x="0 5.1659999 13.788 17.927999 24.966"
             y="0"
             sodipodi:role="line"
             id="tspan1203">false</tspan></text></g></g><g
       id="g1207"><g
         id="g1209"
         clip-path="url(#clipPath1213)"><text
           transform="matrix(1,0,0,-1,442.87,298.18)"
           style="font-variant:normal;font-weight:normal;font-size:18px;font-family:Calibri;-inkscape-font-specification:Calibri;writing-mode:lr-tb;fill:#000000;fill-opacity:1;fill-rule:nonzero;stroke:none"
           id="text1217"><tspan
             x="0"
             y="0"
             id="tspan1215">;</tspan></text></g></g><g
       id="g1219"><g
         id="g1221"
         clip-path="url(#clipPath1225)"><path
           d="m 283.2,36.96 h 21.12 V 278.52 H 283.2 Z"
           style="fill:#4472c4;fill-opacity:1;fill-rule:evenodd;stroke:none"
           id="path1227" /></g></g><path
       d="m 283.2,252.24 h 438.72 v 28.8 H 283.2 Z"
       style="fill:#4472c4;fill-opacity:1;fill-rule:evenodd;stroke:none"
       id="path1229" /><g
       id="g1231"><g
         id="g1233"
         clip-path="url(#clipPath1237)"><text
           transform="matrix(1,0,0,-1,290.38,260.54)"
           style="font-variant:normal;font-weight:normal;font-size:18px;font-family:Calibri;-inkscape-font-specification:Calibri;writing-mode:lr-tb;fill:#000000;fill-opacity:1;fill-rule:nonzero;stroke:none"
           id="text1241"><tspan
             x="0 12.726 21.690001 31.194"
             y="0"
             sodipodi:role="line"
             id="tspan1239">wenn</tspan></text></g></g><g
       id="g1243"><g
         id="g1245"
         clip-path="url(#clipPath1249)"><text
           transform="matrix(1,0,0,-1,335.26,260.54)"
           style="font-variant:normal;font-weight:normal;font-size:18px;font-family:Calibri;-inkscape-font-specification:Calibri;writing-mode:lr-tb;fill:#f4b183;fill-opacity:1;fill-rule:nonzero;stroke:none"
           id="text1253"><tspan
             x="0 4.086 11.124 26.514 30.653999 40.104 49.554001"
             y="0"
             sodipodi:role="line"
             id="tspan1251">isMinus</tspan></text></g></g><g
       id="g1255"><g
         id="g1257"
         clip-path="url(#clipPath1261)"><text
           transform="matrix(1,0,0,-1,396,260.54)"
           style="font-variant:normal;font-weight:normal;font-size:18px;font-family:Calibri;-inkscape-font-specification:Calibri;writing-mode:lr-tb;fill:#000000;fill-opacity:1;fill-rule:nonzero;stroke:none"
           id="text1265"><tspan
             x="0 9 18"
             y="0"
             sodipodi:role="line"
             id="tspan1263">== </tspan></text></g></g><g
       id="g1267"><g
         id="g1269"
         clip-path="url(#clipPath1273)"><text
           transform="matrix(1,0,0,-1,418.08,260.54)"
           style="font-variant:normal;font-weight:normal;font-size:18px;font-family:Calibri;-inkscape-font-specification:Calibri;writing-mode:lr-tb;fill:#7030a0;fill-opacity:1;fill-rule:nonzero;stroke:none"
           id="text1277"><tspan
             x="0 5.1659999 13.788 17.927999"
             y="0"
             sodipodi:role="line"
             id="tspan1275">fals</tspan></text></g></g><g
       id="g1279"><g
         id="g1281"
         clip-path="url(#clipPath1285)"><text
           transform="matrix(1,0,0,-1,443.04,260.54)"
           style="font-variant:normal;font-weight:normal;font-size:18px;font-family:Calibri;-inkscape-font-specification:Calibri;writing-mode:lr-tb;fill:#7030a0;fill-opacity:1;fill-rule:nonzero;stroke:none"
           id="text1289"><tspan
             x="0"
             y="0"
             id="tspan1287">e</tspan></text></g></g><g
       id="g1291"><g
         id="g1293"
         clip-path="url(#clipPath1297)"><path
           d="m 306.6,36.96 h 21.12 V 247.44 H 306.6 Z"
           style="fill:#4472c4;fill-opacity:1;fill-rule:evenodd;stroke:none"
           id="path1299" /></g></g><path
       d="m 306.6,221.04 h 415.32 v 28.8 H 306.6 Z"
       style="fill:#4472c4;fill-opacity:1;fill-rule:evenodd;stroke:none"
       id="path1301" /><g
       id="g1303"><g
         id="g1305"
         clip-path="url(#clipPath1309)"><text
           transform="matrix(1,0,0,-1,313.85,229.39)"
           style="font-variant:normal;font-weight:normal;font-size:18px;font-family:Calibri;-inkscape-font-specification:Calibri;writing-mode:lr-tb;fill:#000000;fill-opacity:1;fill-rule:nonzero;stroke:none"
           id="text1313"><tspan
             x="0 12.726 21.690001 31.194"
             y="0"
             sodipodi:role="line"
             id="tspan1311">wenn</tspan></text></g></g><g
       id="g1315"><g
         id="g1317"
         clip-path="url(#clipPath1321)"><text
           transform="matrix(1,0,0,-1,358.73,229.39)"
           style="font-variant:normal;font-weight:normal;font-size:18px;font-family:Calibri;-inkscape-font-specification:Calibri;writing-mode:lr-tb;fill:#000000;fill-opacity:1;fill-rule:nonzero;stroke:none"
           id="text1325"><tspan
             x="0 8.6219997 16.686001 22.716 32.166 41.130001 45.27 49.32 58.284"
             y="0"
             sodipodi:role="line"
             id="tspan1323">aktuelles</tspan></text></g></g><g
       id="g1327"><g
         id="g1329"
         clip-path="url(#clipPath1333)"><text
           transform="matrix(1,0,0,-1,428.21,229.39)"
           style="font-variant:normal;font-weight:normal;font-size:18px;font-family:Calibri;-inkscape-font-specification:Calibri;writing-mode:lr-tb;fill:#000000;fill-opacity:1;fill-rule:nonzero;stroke:none"
           id="text1337"><tspan
             x="0 8.7840004 12.87 21.870001 36.251999 45.306 54.683998"
             y="0"
             sodipodi:role="line"
             id="tspan1335">Element</tspan></text></g></g><g
       id="g1339"><g
         id="g1341"
         clip-path="url(#clipPath1345)"><text
           transform="matrix(1,0,0,-1,492.91,229.39)"
           style="font-variant:normal;font-weight:normal;font-size:18px;font-family:Calibri;-inkscape-font-specification:Calibri;writing-mode:lr-tb;fill:#000000;fill-opacity:1;fill-rule:nonzero;stroke:none"
           id="text1349"><tspan
             x="0 8.9639997 13.104"
             y="0"
             sodipodi:role="line"
             id="tspan1347">ein</tspan></text></g></g><g
       id="g1351"><g
         id="g1353"
         clip-path="url(#clipPath1357)"><text
           transform="matrix(1,0,0,-1,519.67,229.39)"
           style="font-variant:normal;font-weight:normal;font-size:18px;font-family:Calibri;-inkscape-font-specification:Calibri;writing-mode:lr-tb;fill:#000000;fill-opacity:1;fill-rule:nonzero;stroke:none"
           id="text1361"><tspan
             x="0 11.916 21.365999 30.33 36.234001 44.748001 50.633999 60.119999"
             y="0"
             sodipodi:role="line"
             id="tspan1359">Operator</tspan></text></g></g><g
       id="g1363"><g
         id="g1365"
         clip-path="url(#clipPath1369)"><text
           transform="matrix(1,0,0,-1,590.11,229.39)"
           style="font-variant:normal;font-weight:normal;font-size:18px;font-family:Calibri;-inkscape-font-specification:Calibri;writing-mode:lr-tb;fill:#000000;fill-opacity:1;fill-rule:nonzero;stroke:none"
           id="text1373"><tspan
             x="0 4.0799999"
             y="0"
             sodipodi:role="line"
             id="tspan1371">is</tspan></text></g></g><g
       id="g1375"><g
         id="g1377"
         clip-path="url(#clipPath1381)"><text
           transform="matrix(1,0,0,-1,601.03,229.39)"
           style="font-variant:normal;font-weight:normal;font-size:18px;font-family:Calibri;-inkscape-font-specification:Calibri;writing-mode:lr-tb;fill:#000000;fill-opacity:1;fill-rule:nonzero;stroke:none"
           id="text1385"><tspan
             x="0"
             y="0"
             id="tspan1383">t</tspan></text></g></g><path
       d="m 330,183.72 h 391.92 v 35.04 H 330 Z"
       style="fill:#d9d9d9;fill-opacity:1;fill-rule:evenodd;stroke:none"
       id="path1387" /><g
       id="g1389"><g
         id="g1391"
         clip-path="url(#clipPath1395)"><text
           transform="matrix(1,0,0,-1,337.3,195.1)"
           style="font-variant:normal;font-weight:normal;font-size:18px;font-family:Calibri;-inkscape-font-specification:Calibri;writing-mode:lr-tb;fill:#000000;fill-opacity:1;fill-rule:nonzero;stroke:none"
           id="text1399"><tspan
             x="0 8.7840004 15.822 19.889999 32.759998 36.846001 42.84 52.290001 56.501999 65.466003 69.606003 79.056 83.25 92.699997 101.718 111.168 120.186 127.224 131.328 140.112 144.162 153.12601 167.508 176.54401 185.90401 191.93401 196.002 200.07001 214.452 218.646 224.64 233.604 241.218 250.668 259.63199 269.13599 273.31201 283.73401 290.01599 295.866 304.146 312.29999 316.36801 325.332 331.61401 338.34601 347.31 356.814 365.09399 371.12399"
             y="0"
             sodipodi:role="line"
             id="tspan1397">Es wird ein neues Element im rechen Array erzeugt;</tspan></text></g></g><path
       d="m 330,146.28 h 391.92 v 35.04 H 330 Z"
       style="fill:#d9d9d9;fill-opacity:1;fill-rule:evenodd;stroke:none"
       id="path1401" /><g
       id="g1403"><g
         id="g1405"
         clip-path="url(#clipPath1409)"><text
           transform="matrix(1,0,0,-1,337.3,157.7)"
           style="font-variant:normal;font-weight:normal;font-size:18px;font-family:Calibri;-inkscape-font-specification:Calibri;writing-mode:lr-tb;fill:#000000;fill-opacity:1;fill-rule:nonzero;stroke:none"
           id="text1413"><tspan
             x="0 11.07 15.12 24.084 31.176001 40.139999 54.521999 58.751999 71.622002 75.671997 81.666 91.115997 95.328003 104.778 113.796 120.078 124.146 135.99001 145.44 154.45799 160.34399 168.858 174.744 184.23 190.51199 194.58 201.50999 210.96001 219.438 228.276 241.146 245.196 254.16 261.25201 270.216 279.72"
             y="0"
             sodipodi:role="line"
             id="tspan1411">Diesem wird der Operator zugewiesen;</tspan></text></g></g><path
       d="m 330,108.84 h 391.92 v 35.04 H 330 Z"
       style="fill:#d9d9d9;fill-opacity:1;fill-rule:evenodd;stroke:none"
       id="path1415" /><g
       id="g1417"><g
         id="g1419"
         clip-path="url(#clipPath1423)"><text
           transform="matrix(1,0,0,-1,337.3,120.29)"
           style="font-variant:normal;font-weight:normal;font-size:18px;font-family:Calibri;-inkscape-font-specification:Calibri;writing-mode:lr-tb;fill:#f4b183;fill-opacity:1;fill-rule:nonzero;stroke:none"
           id="text1427"><tspan
             x="0 4.086 11.124 26.514 30.653999 40.104 49.554001"
             y="0"
             sodipodi:role="line"
             id="tspan1425">isMinus</tspan></text></g></g><g
       id="g1429"><g
         id="g1431"
         clip-path="url(#clipPath1435)"><text
           transform="matrix(1,0,0,-1,398.04,120.29)"
           style="font-variant:normal;font-weight:normal;font-size:18px;font-family:Calibri;-inkscape-font-specification:Calibri;writing-mode:lr-tb;fill:#000000;fill-opacity:1;fill-rule:nonzero;stroke:none"
           id="text1439"><tspan
             x="0 9"
             y="0"
             sodipodi:role="line"
             id="tspan1437">= </tspan></text></g></g><g
       id="g1441"><g
         id="g1443"
         clip-path="url(#clipPath1447)"><text
           transform="matrix(1,0,0,-1,411.24,120.29)"
           style="font-variant:normal;font-weight:normal;font-size:18px;font-family:Calibri;-inkscape-font-specification:Calibri;writing-mode:lr-tb;fill:#7030a0;fill-opacity:1;fill-rule:nonzero;stroke:none"
           id="text1451"><tspan
             x="0 6.0300002 12.24 21.690001"
             y="0"
             sodipodi:role="line"
             id="tspan1449">true</tspan></text></g></g><g
       id="g1453"><g
         id="g1455"
         clip-path="url(#clipPath1459)"><text
           transform="matrix(1,0,0,-1,441.96,120.29)"
           style="font-variant:normal;font-weight:normal;font-size:18px;font-family:Calibri;-inkscape-font-specification:Calibri;writing-mode:lr-tb;fill:#000000;fill-opacity:1;fill-rule:nonzero;stroke:none"
           id="text1463"><tspan
             x="0"
             y="0"
             id="tspan1461">;</tspan></text></g></g><g
       id="g1465"><g
         id="g1467"
         clip-path="url(#clipPath1471)"><path
           d="m 327.72,36.96 h 21.12 v 61.32 h -21.12 z"
           style="fill:#333f50;fill-opacity:1;fill-rule:evenodd;stroke:none"
           id="path1473" /></g></g><path
       d="m 327.72,77.76 h 394.2 v 28.8 h -394.2 z"
       style="fill:#333f50;fill-opacity:1;fill-rule:evenodd;stroke:none"
       id="path1475" /><g
       id="g1477"><g
         id="g1479"
         clip-path="url(#clipPath1483)"><text
           transform="matrix(1,0,0,-1,334.97,86.016)"
           style="font-variant:normal;font-weight:normal;font-size:18.024px;font-family:Calibri;-inkscape-font-specification:Calibri;writing-mode:lr-tb;fill:#000000;fill-opacity:1;fill-rule:nonzero;stroke:none"
           id="text1487"><tspan
             x="0 7.0473838 16.546032 26.008633 35.471233 42.3564"
             y="0"
             sodipodi:role="line"
             id="tspan1485">sonnst</tspan></text></g></g><path
       d="m 351.12,40.32 h 370.8 v 35.04 h -370.8 z"
       style="fill:#d9d9d9;fill-opacity:1;fill-rule:evenodd;stroke:none"
       id="path1489" /><g
       id="g1491"><g
         id="g1493"
         clip-path="url(#clipPath1497)"><text
           transform="matrix(1,0,0,-1,358.42,51.72)"
           style="font-variant:normal;font-weight:normal;font-size:18px;font-family:Calibri;-inkscape-font-specification:Calibri;writing-mode:lr-tb;fill:#000000;fill-opacity:1;fill-rule:nonzero;stroke:none"
           id="text1501"><tspan
             x="0 8.2620001 17.712 26.190001 35.153999 39.222 47.844002 55.925999 61.956001 71.405998 80.370003 84.510002 88.559998 97.524002 104.616 108.684 117.468 121.536 130.5 144.882 153.918 163.278 169.308 173.466 182.916 191.93401 206.31599 210.384 216.414 225.37801 232.992 242.442 251.40601 260.91 265.086 275.508 281.79001 287.64001 295.92001 304.07401 308.142 317.59201 321.73199 331.18201 338.16599 347.616"
             y="0"
             sodipodi:role="line"
             id="tspan1499">Füge aktuelles Element dem rechen Array hinzu;</tspan></text></g></g></g></svg>
