<?xml version="1.0" encoding="UTF-8" standalone="no"?>
<svg
   xmlns:dc="http://purl.org/dc/elements/1.1/"
   xmlns:cc="http://creativecommons.org/ns#"
   xmlns:rdf="http://www.w3.org/1999/02/22-rdf-syntax-ns#"
   xmlns:svg="http://www.w3.org/2000/svg"
   xmlns="http://www.w3.org/2000/svg"
   xmlns:sodipodi="http://sodipodi.sourceforge.net/DTD/sodipodi-0.dtd"
   xmlns:inkscape="http://www.inkscape.org/namespaces/inkscape"
   version="1.1"
   id="svg1395"
   xml:space="preserve"
   width="631.83997"
   height="629.91998"
   viewBox="0 0 631.83997 629.91998"
   sodipodi:docname="InputToArrayAlgorythmus.svg"
   inkscape:version="1.0.1 (3bc2e813f5, 2020-09-07)"><metadata
     id="metadata1401"><rdf:RDF><cc:Work
         rdf:about=""><dc:format>image/svg+xml</dc:format><dc:type
           rdf:resource="http://purl.org/dc/dcmitype/StillImage" /><dc:title></dc:title></cc:Work></rdf:RDF></metadata><defs
     id="defs1399"><clipPath
       clipPathUnits="userSpaceOnUse"
       id="clipPath1411"><path
         d="M 0,1.2207e-4 H 960 V 540.00012 H 0 Z"
         clip-rule="evenodd"
         id="path1409" /></clipPath><clipPath
       clipPathUnits="userSpaceOnUse"
       id="clipPath1421"><path
         d="M 0,540 H 960 V 1.8311e-4 H 3.0518e-5"
         clip-rule="evenodd"
         id="path1419" /></clipPath><clipPath
       clipPathUnits="userSpaceOnUse"
       id="clipPath1433"><path
         d="M 1.4305e-5,0 H 960.00001 V 540 H 1.4305e-5 Z"
         clip-rule="evenodd"
         id="path1431" /></clipPath><clipPath
       clipPathUnits="userSpaceOnUse"
       id="clipPath1447"><path
         d="M 1.4305e-5,0 H 960.00001 V 540 H 1.4305e-5 Z"
         clip-rule="evenodd"
         id="path1445" /></clipPath><clipPath
       clipPathUnits="userSpaceOnUse"
       id="clipPath1459"><path
         d="M 1.4305e-5,0 H 960.00001 V 540 H 1.4305e-5 Z"
         clip-rule="evenodd"
         id="path1457" /></clipPath><clipPath
       clipPathUnits="userSpaceOnUse"
       id="clipPath1471"><path
         d="M 1.4305e-5,0 H 960.00001 V 540 H 1.4305e-5 Z"
         clip-rule="evenodd"
         id="path1469" /></clipPath><clipPath
       clipPathUnits="userSpaceOnUse"
       id="clipPath1483"><path
         d="M 1.4305e-5,0 H 960.00001 V 540 H 1.4305e-5 Z"
         clip-rule="evenodd"
         id="path1481" /></clipPath><clipPath
       clipPathUnits="userSpaceOnUse"
       id="clipPath1495"><path
         d="M 1.4305e-5,0 H 960.00001 V 540 H 1.4305e-5 Z"
         clip-rule="evenodd"
         id="path1493" /></clipPath><clipPath
       clipPathUnits="userSpaceOnUse"
       id="clipPath1507"><path
         d="M 0,540 H 960 V 2.4414e-4 L 3.0518e-5,1.8311e-4"
         clip-rule="evenodd"
         id="path1505" /></clipPath><clipPath
       clipPathUnits="userSpaceOnUse"
       id="clipPath1519"><path
         d="M 1.4305e-5,0 H 960.00001 V 540 H 1.4305e-5 Z"
         clip-rule="evenodd"
         id="path1517" /></clipPath><clipPath
       clipPathUnits="userSpaceOnUse"
       id="clipPath1531"><path
         d="M 1.4305e-5,0 H 960.00001 V 540 H 1.4305e-5 Z"
         clip-rule="evenodd"
         id="path1529" /></clipPath><clipPath
       clipPathUnits="userSpaceOnUse"
       id="clipPath1543"><path
         d="M 1.4305e-5,0 H 960.00001 V 540 H 1.4305e-5 Z"
         clip-rule="evenodd"
         id="path1541" /></clipPath><clipPath
       clipPathUnits="userSpaceOnUse"
       id="clipPath1555"><path
         d="M 1.4305e-5,0 H 960.00001 V 540 H 1.4305e-5 Z"
         clip-rule="evenodd"
         id="path1553" /></clipPath><clipPath
       clipPathUnits="userSpaceOnUse"
       id="clipPath1567"><path
         d="M 1.4305e-5,0 H 960.00001 V 540 H 1.4305e-5 Z"
         clip-rule="evenodd"
         id="path1565" /></clipPath><clipPath
       clipPathUnits="userSpaceOnUse"
       id="clipPath1579"><path
         d="M 1.4305e-5,0 H 960.00001 V 540 H 1.4305e-5 Z"
         clip-rule="evenodd"
         id="path1577" /></clipPath><clipPath
       clipPathUnits="userSpaceOnUse"
       id="clipPath1591"><path
         d="M 1.4305e-5,0 H 960.00001 V 540 H 1.4305e-5 Z"
         clip-rule="evenodd"
         id="path1589" /></clipPath><clipPath
       clipPathUnits="userSpaceOnUse"
       id="clipPath1603"><path
         d="M 1.4305e-5,0 H 960.00001 V 540 H 1.4305e-5 Z"
         clip-rule="evenodd"
         id="path1601" /></clipPath><clipPath
       clipPathUnits="userSpaceOnUse"
       id="clipPath1617"><path
         d="M 1.4305e-5,0 H 960.00001 V 540 H 1.4305e-5 Z"
         clip-rule="evenodd"
         id="path1615" /></clipPath><clipPath
       clipPathUnits="userSpaceOnUse"
       id="clipPath1629"><path
         d="M 1.4305e-5,0 H 960.00001 V 540 H 1.4305e-5 Z"
         clip-rule="evenodd"
         id="path1627" /></clipPath><clipPath
       clipPathUnits="userSpaceOnUse"
       id="clipPath1641"><path
         d="M 1.4305e-5,0 H 960.00001 V 540 H 1.4305e-5 Z"
         clip-rule="evenodd"
         id="path1639" /></clipPath><clipPath
       clipPathUnits="userSpaceOnUse"
       id="clipPath1653"><path
         d="M 1.4305e-5,0 H 960.00001 V 540 H 1.4305e-5 Z"
         clip-rule="evenodd"
         id="path1651" /></clipPath><clipPath
       clipPathUnits="userSpaceOnUse"
       id="clipPath1665"><path
         d="M 1.4305e-5,0 H 960.00001 V 540 H 1.4305e-5 Z"
         clip-rule="evenodd"
         id="path1663" /></clipPath><clipPath
       clipPathUnits="userSpaceOnUse"
       id="clipPath1677"><path
         d="M 0,540 H 960 V 2.4414e-4 L 3.0518e-5,1.8311e-4"
         clip-rule="evenodd"
         id="path1675" /></clipPath><clipPath
       clipPathUnits="userSpaceOnUse"
       id="clipPath1689"><path
         d="M 1.4305e-5,0 H 960.00001 V 540 H 1.4305e-5 Z"
         clip-rule="evenodd"
         id="path1687" /></clipPath><clipPath
       clipPathUnits="userSpaceOnUse"
       id="clipPath1703"><path
         d="M 1.4305e-5,0 H 960.00001 V 540 H 1.4305e-5 Z"
         clip-rule="evenodd"
         id="path1701" /></clipPath><clipPath
       clipPathUnits="userSpaceOnUse"
       id="clipPath1715"><path
         d="M 1.4305e-5,0 H 960.00001 V 540 H 1.4305e-5 Z"
         clip-rule="evenodd"
         id="path1713" /></clipPath><clipPath
       clipPathUnits="userSpaceOnUse"
       id="clipPath1727"><path
         d="M 1.4305e-5,0 H 960.00001 V 540 H 1.4305e-5 Z"
         clip-rule="evenodd"
         id="path1725" /></clipPath><clipPath
       clipPathUnits="userSpaceOnUse"
       id="clipPath1739"><path
         d="M 1.4305e-5,0 H 960.00001 V 540 H 1.4305e-5 Z"
         clip-rule="evenodd"
         id="path1737" /></clipPath><clipPath
       clipPathUnits="userSpaceOnUse"
       id="clipPath1751"><path
         d="M 0,540 H 960 V 1.8311e-4 H 3.0518e-5"
         clip-rule="evenodd"
         id="path1749" /></clipPath><clipPath
       clipPathUnits="userSpaceOnUse"
       id="clipPath1763"><path
         d="M 1.4305e-5,0 H 960.00001 V 540 H 1.4305e-5 Z"
         clip-rule="evenodd"
         id="path1761" /></clipPath><clipPath
       clipPathUnits="userSpaceOnUse"
       id="clipPath1775"><path
         d="M 1.4305e-5,0 H 960.00001 V 540 H 1.4305e-5 Z"
         clip-rule="evenodd"
         id="path1773" /></clipPath><clipPath
       clipPathUnits="userSpaceOnUse"
       id="clipPath1787"><path
         d="M 1.4305e-5,0 H 960.00001 V 540 H 1.4305e-5 Z"
         clip-rule="evenodd"
         id="path1785" /></clipPath><clipPath
       clipPathUnits="userSpaceOnUse"
       id="clipPath1799"><path
         d="M 1.4305e-5,0 H 960.00001 V 540 H 1.4305e-5 Z"
         clip-rule="evenodd"
         id="path1797" /></clipPath><clipPath
       clipPathUnits="userSpaceOnUse"
       id="clipPath1811"><path
         d="M 0,540 H 960 V 1.8311e-4 L 3.0518e-5,1.2207e-4"
         clip-rule="evenodd"
         id="path1809" /></clipPath><clipPath
       clipPathUnits="userSpaceOnUse"
       id="clipPath1823"><path
         d="M 1.4305e-5,0 H 960.00001 V 540 H 1.4305e-5 Z"
         clip-rule="evenodd"
         id="path1821" /></clipPath><clipPath
       clipPathUnits="userSpaceOnUse"
       id="clipPath1837"><path
         d="M 1.4305e-5,0 H 960.00001 V 540 H 1.4305e-5 Z"
         clip-rule="evenodd"
         id="path1835" /></clipPath><clipPath
       clipPathUnits="userSpaceOnUse"
       id="clipPath1851"><path
         d="M 1.4305e-5,0 H 960.00001 V 540 H 1.4305e-5 Z"
         clip-rule="evenodd"
         id="path1849" /></clipPath><clipPath
       clipPathUnits="userSpaceOnUse"
       id="clipPath1865"><path
         d="M 1.4305e-5,0 H 960.00001 V 540 H 1.4305e-5 Z"
         clip-rule="evenodd"
         id="path1863" /></clipPath><clipPath
       clipPathUnits="userSpaceOnUse"
       id="clipPath1877"><path
         d="M 1.4305e-5,0 H 960.00001 V 540 H 1.4305e-5 Z"
         clip-rule="evenodd"
         id="path1875" /></clipPath><clipPath
       clipPathUnits="userSpaceOnUse"
       id="clipPath1889"><path
         d="M 1.4305e-5,0 H 960.00001 V 540 H 1.4305e-5 Z"
         clip-rule="evenodd"
         id="path1887" /></clipPath><clipPath
       clipPathUnits="userSpaceOnUse"
       id="clipPath1901"><path
         d="M 1.4305e-5,0 H 960.00001 V 540 H 1.4305e-5 Z"
         clip-rule="evenodd"
         id="path1899" /></clipPath><clipPath
       clipPathUnits="userSpaceOnUse"
       id="clipPath1913"><path
         d="M 0,540 H 960 V 1.8311e-4 H 3.0518e-5"
         clip-rule="evenodd"
         id="path1911" /></clipPath><clipPath
       clipPathUnits="userSpaceOnUse"
       id="clipPath1925"><path
         d="M 1.4305e-5,0 H 960.00001 V 540 H 1.4305e-5 Z"
         clip-rule="evenodd"
         id="path1923" /></clipPath><clipPath
       clipPathUnits="userSpaceOnUse"
       id="clipPath1939"><path
         d="M 1.4305e-5,0 H 960.00001 V 540 H 1.4305e-5 Z"
         clip-rule="evenodd"
         id="path1937" /></clipPath><clipPath
       clipPathUnits="userSpaceOnUse"
       id="clipPath1951"><path
         d="M 3.0518e-5,540 H 960 V 3.0518e-4 L 6.1035e-5,2.4414e-4"
         clip-rule="evenodd"
         id="path1949" /></clipPath><clipPath
       clipPathUnits="userSpaceOnUse"
       id="clipPath1963"><path
         d="M 1.4305e-5,0 H 960.00001 V 540 H 1.4305e-5 Z"
         clip-rule="evenodd"
         id="path1961" /></clipPath><clipPath
       clipPathUnits="userSpaceOnUse"
       id="clipPath1975"><path
         d="M 1.4305e-5,0 H 960.00001 V 540 H 1.4305e-5 Z"
         clip-rule="evenodd"
         id="path1973" /></clipPath></defs><sodipodi:namedview
     pagecolor="#ffffff"
     bordercolor="#666666"
     borderopacity="1"
     objecttolerance="10"
     gridtolerance="10"
     guidetolerance="10"
     inkscape:pageopacity="0"
     inkscape:pageshadow="2"
     inkscape:window-width="2560"
     inkscape:window-height="1377"
     id="namedview1397"
     showgrid="false"
     fit-margin-top="0"
     fit-margin-left="0"
     fit-margin-right="0"
     fit-margin-bottom="0"
     inkscape:zoom="0.9359375"
     inkscape:cx="309.28001"
     inkscape:cy="328.15998"
     inkscape:window-x="-8"
     inkscape:window-y="-8"
     inkscape:window-maximized="1"
     inkscape:current-layer="g1403" /><g
     id="g1403"
     inkscape:groupmode="layer"
     inkscape:label="InputToArrayAlgorythmus"
     transform="matrix(1.3333333,0,0,-1.3333333,-330.71999,688.15998)"><g
       id="g1415"><g
         id="g1417"
         clip-path="url(#clipPath1421)"><path
           d="M 259.68,43.68 H 280.8 V 452.64 H 259.68 Z"
           style="fill:#ed7d31;fill-opacity:1;fill-rule:evenodd;stroke:none"
           id="path1423" /></g></g><path
       d="m 259.68,423.84 h 462.24 v 28.8 H 259.68 Z"
       style="fill:#ed7d31;fill-opacity:1;fill-rule:evenodd;stroke:none"
       id="path1425" /><g
       id="g1427"><g
         id="g1429"
         clip-path="url(#clipPath1433)"><text
           transform="matrix(1,0,0,-1,266.9,432.22)"
           style="font-variant:normal;font-weight:normal;font-size:18px;font-family:Calibri;-inkscape-font-specification:Calibri;writing-mode:lr-tb;fill:#000000;fill-opacity:1;fill-rule:nonzero;stroke:none"
           id="text1437"><tspan
             x="0 10.422 16.704 22.554001 30.834 38.987999 43.056 52.506001 62.009998 68.003998 75.564003 85.014 93.491997 102.456 111.906 120.906"
             y="0"
             sodipodi:role="line"
             id="tspan1435">Array durchgehen</tspan></text></g></g><path
       d="m 259.68,457.44 h 462.24 v 35.04 H 259.68 Z"
       style="fill:#d9d9d9;fill-opacity:1;fill-rule:evenodd;stroke:none"
       id="path1439" /><g
       id="g1441"><g
         id="g1443"
         clip-path="url(#clipPath1447)"><text
           transform="matrix(1,0,0,-1,266.9,468.94)"
           style="font-variant:normal;font-weight:normal;font-size:18px;font-family:Calibri;-inkscape-font-specification:Calibri;writing-mode:lr-tb;fill:#7030a0;fill-opacity:1;fill-rule:nonzero;stroke:none"
           id="text1451"><tspan
             x="0 9.4499998 18.936001 28.422001 32.562 41.526001 50.147999"
             y="0"
             sodipodi:role="line"
             id="tspan1449">boolean</tspan></text></g></g><g
       id="g1453"><g
         id="g1455"
         clip-path="url(#clipPath1459)"><text
           transform="matrix(1,0,0,-1,330.77,468.94)"
           style="font-variant:normal;font-weight:normal;font-size:18px;font-family:Calibri;-inkscape-font-specification:Calibri;writing-mode:lr-tb;fill:#f4b183;fill-opacity:1;fill-rule:nonzero;stroke:none"
           id="text1463"><tspan
             x="0 4.086 11.124 26.514 30.653999 40.104 49.554001"
             y="0"
             sodipodi:role="line"
             id="tspan1461">isMinus</tspan></text></g></g><g
       id="g1465"><g
         id="g1467"
         clip-path="url(#clipPath1471)"><text
           transform="matrix(1,0,0,-1,391.61,468.94)"
           style="font-variant:normal;font-weight:normal;font-size:18px;font-family:Calibri;-inkscape-font-specification:Calibri;writing-mode:lr-tb;fill:#000000;fill-opacity:1;fill-rule:nonzero;stroke:none"
           id="text1475"><tspan
             x="0 9"
             y="0"
             sodipodi:role="line"
             id="tspan1473">= </tspan></text></g></g><g
       id="g1477"><g
         id="g1479"
         clip-path="url(#clipPath1483)"><text
           transform="matrix(1,0,0,-1,404.69,468.94)"
           style="font-variant:normal;font-weight:normal;font-size:18px;font-family:Calibri;-inkscape-font-specification:Calibri;writing-mode:lr-tb;fill:#7030a0;fill-opacity:1;fill-rule:nonzero;stroke:none"
           id="text1487"><tspan
             x="0 6.0300002 12.24 21.690001"
             y="0"
             sodipodi:role="line"
             id="tspan1485">true</tspan></text></g></g><g
       id="g1489"><g
         id="g1491"
         clip-path="url(#clipPath1495)"><text
           transform="matrix(1,0,0,-1,435.41,468.94)"
           style="font-variant:normal;font-weight:normal;font-size:18px;font-family:Calibri;-inkscape-font-specification:Calibri;writing-mode:lr-tb;fill:#000000;fill-opacity:1;fill-rule:nonzero;stroke:none"
           id="text1499"><tspan
             x="0"
             y="0"
             id="tspan1497">;</tspan></text></g></g><g
       id="g1501"><g
         id="g1503"
         clip-path="url(#clipPath1507)"><path
           d="m 283.2,286.68 h 21.12 V 419.04 H 283.2 Z"
           style="fill:#4472c4;fill-opacity:1;fill-rule:evenodd;stroke:none"
           id="path1509" /></g></g><path
       d="m 283.2,392.64 h 438.72 v 28.8 H 283.2 Z"
       style="fill:#4472c4;fill-opacity:1;fill-rule:evenodd;stroke:none"
       id="path1511" /><g
       id="g1513"><g
         id="g1515"
         clip-path="url(#clipPath1519)"><text
           transform="matrix(1,0,0,-1,290.38,401.04)"
           style="font-variant:normal;font-weight:normal;font-size:18px;font-family:Calibri;-inkscape-font-specification:Calibri;writing-mode:lr-tb;fill:#000000;fill-opacity:1;fill-rule:nonzero;stroke:none"
           id="text1523"><tspan
             x="0 12.726 21.690001 31.194 40.644001"
             y="0"
             sodipodi:role="line"
             id="tspan1521">wenn </tspan></text></g></g><g
       id="g1525"><g
         id="g1527"
         clip-path="url(#clipPath1531)"><text
           transform="matrix(1,0,0,-1,335.26,401.04)"
           style="font-variant:normal;font-weight:normal;font-size:18px;font-family:Calibri;-inkscape-font-specification:Calibri;writing-mode:lr-tb;fill:#f4b183;fill-opacity:1;fill-rule:nonzero;stroke:none"
           id="text1535"><tspan
             x="0 4.086 11.124 26.514 30.653999 40.104 49.554001"
             y="0"
             sodipodi:role="line"
             id="tspan1533">isMinus</tspan></text></g></g><g
       id="g1537"><g
         id="g1539"
         clip-path="url(#clipPath1543)"><text
           transform="matrix(1,0,0,-1,396,401.04)"
           style="font-variant:normal;font-weight:normal;font-size:18px;font-family:Calibri;-inkscape-font-specification:Calibri;writing-mode:lr-tb;fill:#000000;fill-opacity:1;fill-rule:nonzero;stroke:none"
           id="text1547"><tspan
             x="0 9 18"
             y="0"
             sodipodi:role="line"
             id="tspan1545">== </tspan></text></g></g><g
       id="g1549"><g
         id="g1551"
         clip-path="url(#clipPath1555)"><text
           transform="matrix(1,0,0,-1,418.08,401.04)"
           style="font-variant:normal;font-weight:normal;font-size:18px;font-family:Calibri;-inkscape-font-specification:Calibri;writing-mode:lr-tb;fill:#7030a0;fill-opacity:1;fill-rule:nonzero;stroke:none"
           id="text1559"><tspan
             x="0 6.0300002 12.24 21.690001"
             y="0"
             sodipodi:role="line"
             id="tspan1557">true</tspan></text></g></g><g
       id="g1561"><g
         id="g1563"
         clip-path="url(#clipPath1567)"><text
           transform="matrix(1,0,0,-1,453,401.04)"
           style="font-variant:normal;font-weight:normal;font-size:18px;font-family:Calibri;-inkscape-font-specification:Calibri;writing-mode:lr-tb;fill:#000000;fill-opacity:1;fill-rule:nonzero;stroke:none"
           id="text1571"><tspan
             x="0 12.276 24.48 28.548 37.169998 45.234001 51.264 60.714001 69.678001 73.818001 77.867996 86.832001 93.924004 98.099998 106.884 110.934 119.898 134.28 143.31599 152.67599 158.70599 162.774 171.73801 180.702"
             y="0"
             sodipodi:role="line"
             id="tspan1569">&amp;&amp; aktuelles Element == </tspan></text></g></g><g
       id="g1573"><g
         id="g1575"
         clip-path="url(#clipPath1579)"><text
           transform="matrix(1,0,0,-1,638.06,401.04)"
           style="font-variant:normal;font-weight:normal;font-size:18px;font-family:Calibri;-inkscape-font-specification:Calibri;writing-mode:lr-tb;fill:#70ad47;fill-opacity:1;fill-rule:nonzero;stroke:none"
           id="text1583"><tspan
             x="0"
             y="0"
             id="tspan1581">‘</tspan></text></g></g><g
       id="g1585"><g
         id="g1587"
         clip-path="url(#clipPath1591)"><text
           transform="matrix(1,0,0,-1,642.5,401.04)"
           style="font-variant:normal;font-weight:normal;font-size:18px;font-family:Calibri;-inkscape-font-specification:Calibri;writing-mode:lr-tb;fill:#70ad47;fill-opacity:1;fill-rule:nonzero;stroke:none"
           id="text1595"><tspan
             x="0"
             y="0"
             id="tspan1593">-</tspan></text></g></g><g
       id="g1597"><g
         id="g1599"
         clip-path="url(#clipPath1603)"><text
           transform="matrix(1,0,0,-1,648.02,401.04)"
           style="font-variant:normal;font-weight:normal;font-size:18px;font-family:Calibri;-inkscape-font-specification:Calibri;writing-mode:lr-tb;fill:#70ad47;fill-opacity:1;fill-rule:nonzero;stroke:none"
           id="text1607"><tspan
             x="0"
             y="0"
             id="tspan1605">‘</tspan></text></g></g><path
       d="m 306.6,355.32 h 415.32 v 35.04 H 306.6 Z"
       style="fill:#d9d9d9;fill-opacity:1;fill-rule:evenodd;stroke:none"
       id="path1609" /><g
       id="g1611"><g
         id="g1613"
         clip-path="url(#clipPath1617)"><text
           transform="matrix(1,0,0,-1,313.85,366.74)"
           style="font-variant:normal;font-weight:normal;font-size:18px;font-family:Calibri;-inkscape-font-specification:Calibri;writing-mode:lr-tb;fill:#000000;fill-opacity:1;fill-rule:nonzero;stroke:none"
           id="text1621"><tspan
             x="0 11.07 20.034 34.416 38.627998 44.622002 53.585999 61.200001 70.650002 79.613998 89.117996 93.293999 103.716 109.998 115.848 124.128 132.282 136.35001 149.22 153.28799 159.282 168.73199 172.944 179.91 189.36 195.642 199.81799 208.09801 216.72 226.17 230.31 234.48599 243.45 247.59 257.04001"
             y="0"
             sodipodi:role="line"
             id="tspan1619">Dem rechen Array wird zur Zahl ein </tspan></text></g></g><g
       id="g1623"><g
         id="g1625"
         clip-path="url(#clipPath1629)"><text
           transform="matrix(1,0,0,-1,575.23,366.74)"
           style="font-variant:normal;font-weight:normal;font-size:18px;font-family:Calibri;-inkscape-font-specification:Calibri;writing-mode:lr-tb;fill:#70ad47;fill-opacity:1;fill-rule:nonzero;stroke:none"
           id="text1633"><tspan
             x="0"
             y="0"
             id="tspan1631">‘</tspan></text></g></g><g
       id="g1635"><g
         id="g1637"
         clip-path="url(#clipPath1641)"><text
           transform="matrix(1,0,0,-1,579.67,366.74)"
           style="font-variant:normal;font-weight:normal;font-size:18px;font-family:Calibri;-inkscape-font-specification:Calibri;writing-mode:lr-tb;fill:#70ad47;fill-opacity:1;fill-rule:nonzero;stroke:none"
           id="text1645"><tspan
             x="0"
             y="0"
             id="tspan1643">-</tspan></text></g></g><g
       id="g1647"><g
         id="g1649"
         clip-path="url(#clipPath1653)"><text
           transform="matrix(1,0,0,-1,585.19,366.74)"
           style="font-variant:normal;font-weight:normal;font-size:18px;font-family:Calibri;-inkscape-font-specification:Calibri;writing-mode:lr-tb;fill:#70ad47;fill-opacity:1;fill-rule:nonzero;stroke:none"
           id="text1657"><tspan
             x="0"
             y="0"
             id="tspan1655">‘</tspan></text></g></g><g
       id="g1659"><g
         id="g1661"
         clip-path="url(#clipPath1665)"><text
           transform="matrix(1,0,0,-1,593.83,366.74)"
           style="font-variant:normal;font-weight:normal;font-size:18px;font-family:Calibri;-inkscape-font-specification:Calibri;writing-mode:lr-tb;fill:#000000;fill-opacity:1;fill-rule:nonzero;stroke:none"
           id="text1669"><tspan
             x="0 9.4499998 13.59 23.040001 30.006001 39.456001 47.933998 56.771999 62.262001 71.748001 80.028 86.057999"
             y="0"
             sodipodi:role="line"
             id="tspan1667">hinzugefügt;</tspan></text></g></g><g
       id="g1671"><g
         id="g1673"
         clip-path="url(#clipPath1677)"><path
           d="m 304.32,286.68 h 21.12 v 57.96 h -21.12 z"
           style="fill:#333f50;fill-opacity:1;fill-rule:evenodd;stroke:none"
           id="path1679" /></g></g><path
       d="m 304.32,324.12 h 417.6 v 28.8 h -417.6 z"
       style="fill:#333f50;fill-opacity:1;fill-rule:evenodd;stroke:none"
       id="path1681" /><g
       id="g1683"><g
         id="g1685"
         clip-path="url(#clipPath1689)"><text
           transform="matrix(1,0,0,-1,311.5,332.47)"
           style="font-variant:normal;font-weight:normal;font-size:18px;font-family:Calibri;-inkscape-font-specification:Calibri;writing-mode:lr-tb;fill:#000000;fill-opacity:1;fill-rule:nonzero;stroke:none"
           id="text1693"><tspan
             x="0 7.0380001 16.524 26.028 35.478001 42.354"
             y="0"
             sodipodi:role="line"
             id="tspan1691">sonnst</tspan></text></g></g><path
       d="m 327.72,286.68 h 394.2 v 35.04 h -394.2 z"
       style="fill:#d9d9d9;fill-opacity:1;fill-rule:evenodd;stroke:none"
       id="path1695" /><g
       id="g1697"><g
         id="g1699"
         clip-path="url(#clipPath1703)"><text
           transform="matrix(1,0,0,-1,334.97,298.18)"
           style="font-variant:normal;font-weight:normal;font-size:18px;font-family:Calibri;-inkscape-font-specification:Calibri;writing-mode:lr-tb;fill:#f4b183;fill-opacity:1;fill-rule:nonzero;stroke:none"
           id="text1707"><tspan
             x="0 4.086 11.124 26.514 30.653999 40.104 49.554001"
             y="0"
             sodipodi:role="line"
             id="tspan1705">isMinus</tspan></text></g></g><g
       id="g1709"><g
         id="g1711"
         clip-path="url(#clipPath1715)"><text
           transform="matrix(1,0,0,-1,395.69,298.18)"
           style="font-variant:normal;font-weight:normal;font-size:18px;font-family:Calibri;-inkscape-font-specification:Calibri;writing-mode:lr-tb;fill:#000000;fill-opacity:1;fill-rule:nonzero;stroke:none"
           id="text1719"><tspan
             x="0 9"
             y="0"
             sodipodi:role="line"
             id="tspan1717">= </tspan></text></g></g><g
       id="g1721"><g
         id="g1723"
         clip-path="url(#clipPath1727)"><text
           transform="matrix(1,0,0,-1,408.89,298.18)"
           style="font-variant:normal;font-weight:normal;font-size:18px;font-family:Calibri;-inkscape-font-specification:Calibri;writing-mode:lr-tb;fill:#7030a0;fill-opacity:1;fill-rule:nonzero;stroke:none"
           id="text1731"><tspan
             x="0 5.1659999 13.788 17.927999 24.966"
             y="0"
             sodipodi:role="line"
             id="tspan1729">false</tspan></text></g></g><g
       id="g1733"><g
         id="g1735"
         clip-path="url(#clipPath1739)"><text
           transform="matrix(1,0,0,-1,442.85,298.18)"
           style="font-variant:normal;font-weight:normal;font-size:18px;font-family:Calibri;-inkscape-font-specification:Calibri;writing-mode:lr-tb;fill:#000000;fill-opacity:1;fill-rule:nonzero;stroke:none"
           id="text1743"><tspan
             x="0"
             y="0"
             id="tspan1741">;</tspan></text></g></g><g
       id="g1745"><g
         id="g1747"
         clip-path="url(#clipPath1751)"><path
           d="m 283.2,43.68 h 21.12 V 282 H 283.2 Z"
           style="fill:#4472c4;fill-opacity:1;fill-rule:evenodd;stroke:none"
           id="path1753" /></g></g><path
       d="m 283.2,255.6 h 438.72 v 28.8 H 283.2 Z"
       style="fill:#4472c4;fill-opacity:1;fill-rule:evenodd;stroke:none"
       id="path1755" /><g
       id="g1757"><g
         id="g1759"
         clip-path="url(#clipPath1763)"><text
           transform="matrix(1,0,0,-1,290.38,263.93)"
           style="font-variant:normal;font-weight:normal;font-size:18px;font-family:Calibri;-inkscape-font-specification:Calibri;writing-mode:lr-tb;fill:#000000;fill-opacity:1;fill-rule:nonzero;stroke:none"
           id="text1767"><tspan
             x="0 12.726 21.690001 31.194 40.644001"
             y="0"
             sodipodi:role="line"
             id="tspan1765">wenn </tspan></text></g></g><g
       id="g1769"><g
         id="g1771"
         clip-path="url(#clipPath1775)"><text
           transform="matrix(1,0,0,-1,335.26,263.93)"
           style="font-variant:normal;font-weight:normal;font-size:18px;font-family:Calibri;-inkscape-font-specification:Calibri;writing-mode:lr-tb;fill:#f4b183;fill-opacity:1;fill-rule:nonzero;stroke:none"
           id="text1779"><tspan
             x="0 4.086 11.124 26.514 30.653999 40.104 49.554001"
             y="0"
             sodipodi:role="line"
             id="tspan1777">isMinus</tspan></text></g></g><g
       id="g1781"><g
         id="g1783"
         clip-path="url(#clipPath1787)"><text
           transform="matrix(1,0,0,-1,396,263.93)"
           style="font-variant:normal;font-weight:normal;font-size:18px;font-family:Calibri;-inkscape-font-specification:Calibri;writing-mode:lr-tb;fill:#000000;fill-opacity:1;fill-rule:nonzero;stroke:none"
           id="text1791"><tspan
             x="0 9 18"
             y="0"
             sodipodi:role="line"
             id="tspan1789">== </tspan></text></g></g><g
       id="g1793"><g
         id="g1795"
         clip-path="url(#clipPath1799)"><text
           transform="matrix(1,0,0,-1,418.08,263.93)"
           style="font-variant:normal;font-weight:normal;font-size:18px;font-family:Calibri;-inkscape-font-specification:Calibri;writing-mode:lr-tb;fill:#7030a0;fill-opacity:1;fill-rule:nonzero;stroke:none"
           id="text1803"><tspan
             x="0 5.1659999 13.788 17.927999 24.966"
             y="0"
             sodipodi:role="line"
             id="tspan1801">false</tspan></text></g></g><g
       id="g1805"><g
         id="g1807"
         clip-path="url(#clipPath1811)"><path
           d="m 306.6,43.68 h 21.12 V 250.8 H 306.6 Z"
           style="fill:#4472c4;fill-opacity:1;fill-rule:evenodd;stroke:none"
           id="path1813" /></g></g><path
       d="m 306.6,224.4 h 415.32 v 28.8 H 306.6 Z"
       style="fill:#4472c4;fill-opacity:1;fill-rule:evenodd;stroke:none"
       id="path1815" /><g
       id="g1817"><g
         id="g1819"
         clip-path="url(#clipPath1823)"><text
           transform="matrix(1,0,0,-1,313.85,232.78)"
           style="font-variant:normal;font-weight:normal;font-size:18.024px;font-family:Calibri;-inkscape-font-specification:Calibri;writing-mode:lr-tb;fill:#000000;fill-opacity:1;fill-rule:nonzero;stroke:none"
           id="text1827"><tspan
             x="0 12.724944 21.700895 31.163496 40.662144 44.843712 53.477207 61.515911 67.553955 77.016556 85.9925 90.083954 94.157379 103.13333 110.21676 114.29018 123.0859 127.1413 136.11725 150.51842 159.49437 168.90291 174.94095 179.01437 187.99033 192.06375 201.52634 205.72594 217.65782 227.12042 236.09637 241.9722 250.49756 256.37338 265.87201 272.0903 276.16373 280.25519 287.08627"
             y="0"
             sodipodi:role="line"
             id="tspan1825">wenn aktuelles Element ein Operator ist</tspan></text></g></g><path
       d="m 330,187.08 h 391.92 v 35.04 H 330 Z"
       style="fill:#d9d9d9;fill-opacity:1;fill-rule:evenodd;stroke:none"
       id="path1829" /><g
       id="g1831"><g
         id="g1833"
         clip-path="url(#clipPath1837)"><text
           transform="matrix(1,0,0,-1,337.3,198.48)"
           style="font-variant:normal;font-weight:normal;font-size:18px;font-family:Calibri;-inkscape-font-specification:Calibri;writing-mode:lr-tb;fill:#000000;fill-opacity:1;fill-rule:nonzero;stroke:none"
           id="text1841"><tspan
             x="0 8.7840004 15.822 19.889999 32.759998 36.846001 42.84 52.290001 56.501999 65.466003 69.606003 79.056 83.25 92.699997 101.718 111.168 120.186 127.224 131.328 140.112 144.162 153.12601 167.508 176.54401 185.90401 191.93401 196.002 200.07001 214.452 218.646 224.64 233.604 241.218 250.668 259.63199 269.13599 273.31201 283.73401 290.01599 295.866 304.146 312.29999 316.36801 325.332 331.61401 338.34601 347.31 356.814 365.09399 371.12399"
             y="0"
             sodipodi:role="line"
             id="tspan1839">Es wird ein neues Element im rechen Array erzeugt;</tspan></text></g></g><path
       d="m 330,149.64 h 391.92 v 35.04 H 330 Z"
       style="fill:#d9d9d9;fill-opacity:1;fill-rule:evenodd;stroke:none"
       id="path1843" /><g
       id="g1845"><g
         id="g1847"
         clip-path="url(#clipPath1851)"><text
           transform="matrix(1,0,0,-1,337.3,161.09)"
           style="font-variant:normal;font-weight:normal;font-size:18.024px;font-family:Calibri;-inkscape-font-specification:Calibri;writing-mode:lr-tb;fill:#000000;fill-opacity:1;fill-rule:nonzero;stroke:none"
           id="text1855"><tspan
             x="0 11.08476 15.122136 24.098087 31.18152 40.157471 54.558647 58.75824 71.645401 75.682777 81.684769 91.147369 95.346962 104.80956 113.78551 120.07589 124.14931 136.02713 145.48973 154.46568 160.39557 168.92093 174.79675 184.29539 190.51369 194.5871 201.56239 211.02499 219.4422 228.32803 241.21519 245.25256 254.22852 261.31195 270.2879 279.75052"
             y="0"
             sodipodi:role="line"
             id="tspan1853">Diesem wird der Operator zugewiesen;</tspan></text></g></g><path
       d="m 330,112.2 h 391.92 v 35.04 H 330 Z"
       style="fill:#d9d9d9;fill-opacity:1;fill-rule:evenodd;stroke:none"
       id="path1857" /><g
       id="g1859"><g
         id="g1861"
         clip-path="url(#clipPath1865)"><text
           transform="matrix(1,0,0,-1,337.3,123.67)"
           style="font-variant:normal;font-weight:normal;font-size:18px;font-family:Calibri;-inkscape-font-specification:Calibri;writing-mode:lr-tb;fill:#f4b183;fill-opacity:1;fill-rule:nonzero;stroke:none"
           id="text1869"><tspan
             x="0 4.086 11.124 26.514 30.653999 40.104 49.554001"
             y="0"
             sodipodi:role="line"
             id="tspan1867">isMinus</tspan></text></g></g><g
       id="g1871"><g
         id="g1873"
         clip-path="url(#clipPath1877)"><text
           transform="matrix(1,0,0,-1,398.04,123.67)"
           style="font-variant:normal;font-weight:normal;font-size:18px;font-family:Calibri;-inkscape-font-specification:Calibri;writing-mode:lr-tb;fill:#000000;fill-opacity:1;fill-rule:nonzero;stroke:none"
           id="text1881"><tspan
             x="0 9"
             y="0"
             sodipodi:role="line"
             id="tspan1879">= </tspan></text></g></g><g
       id="g1883"><g
         id="g1885"
         clip-path="url(#clipPath1889)"><text
           transform="matrix(1,0,0,-1,411.24,123.67)"
           style="font-variant:normal;font-weight:normal;font-size:18px;font-family:Calibri;-inkscape-font-specification:Calibri;writing-mode:lr-tb;fill:#7030a0;fill-opacity:1;fill-rule:nonzero;stroke:none"
           id="text1893"><tspan
             x="0 6.0300002 12.24 21.690001"
             y="0"
             sodipodi:role="line"
             id="tspan1891">true</tspan></text></g></g><g
       id="g1895"><g
         id="g1897"
         clip-path="url(#clipPath1901)"><text
           transform="matrix(1,0,0,-1,441.96,123.67)"
           style="font-variant:normal;font-weight:normal;font-size:18px;font-family:Calibri;-inkscape-font-specification:Calibri;writing-mode:lr-tb;fill:#000000;fill-opacity:1;fill-rule:nonzero;stroke:none"
           id="text1905"><tspan
             x="0"
             y="0"
             id="tspan1903">;</tspan></text></g></g><g
       id="g1907"><g
         id="g1909"
         clip-path="url(#clipPath1913)"><path
           d="m 327.72,43.68 h 21.12 v 57.96 h -21.12 z"
           style="fill:#333f50;fill-opacity:1;fill-rule:evenodd;stroke:none"
           id="path1915" /></g></g><path
       d="m 327.72,81.12 h 394.2 v 28.8 h -394.2 z"
       style="fill:#333f50;fill-opacity:1;fill-rule:evenodd;stroke:none"
       id="path1917" /><g
       id="g1919"><g
         id="g1921"
         clip-path="url(#clipPath1925)"><text
           transform="matrix(1,0,0,-1,334.97,89.4)"
           style="font-variant:normal;font-weight:normal;font-size:18.024px;font-family:Calibri;-inkscape-font-specification:Calibri;writing-mode:lr-tb;fill:#000000;fill-opacity:1;fill-rule:nonzero;stroke:none"
           id="text1929"><tspan
             x="0 7.0473838 16.546032 26.008633 35.471233 42.3564"
             y="0"
             sodipodi:role="line"
             id="tspan1927">sonnst</tspan></text></g></g><path
       d="m 351.12,43.68 h 370.8 v 35.04 h -370.8 z"
       style="fill:#d9d9d9;fill-opacity:1;fill-rule:evenodd;stroke:none"
       id="path1931" /><g
       id="g1933"><g
         id="g1935"
         clip-path="url(#clipPath1939)"><text
           transform="matrix(1,0,0,-1,358.39,55.104)"
           style="font-variant:normal;font-weight:normal;font-size:18px;font-family:Calibri;-inkscape-font-specification:Calibri;writing-mode:lr-tb;fill:#000000;fill-opacity:1;fill-rule:nonzero;stroke:none"
           id="text1943"><tspan
             x="0 8.2620001 17.712 26.190001 35.153999 39.222 47.844002 55.925999 61.956001 71.405998 80.370003 84.510002 88.559998 97.524002 104.616 108.684 117.468 121.536 130.5 144.882 153.918 163.278 169.308 173.466 182.916 191.93401 206.31599 210.384 216.414 225.37801 232.992 242.442 251.40601 260.91 265.086 275.508 281.79001 287.64001 295.92001 304.07401 308.142 317.59201 321.73199 331.18201 338.16599 347.616"
             y="0"
             sodipodi:role="line"
             id="tspan1941">Füge aktuelles Element dem rechen Array hinzu;</tspan></text></g></g><g
       id="g1945"><g
         id="g1947"
         clip-path="url(#clipPath1951)"><path
           d="M 248.04,43.68 H 260.4 V 516.12 H 248.04 Z"
           style="fill:#ffd966;fill-opacity:1;fill-rule:evenodd;stroke:none"
           id="path1953" /></g></g><path
       d="m 248.04,491.88 h 473.88 v 24.24 H 248.04 Z"
       style="fill:#ffd966;fill-opacity:1;fill-rule:evenodd;stroke:none"
       id="path1955" /><g
       id="g1957"><g
         id="g1959"
         clip-path="url(#clipPath1963)"><text
           transform="matrix(1,0,0,-1,255.24,497.95)"
           style="font-variant:normal;font-weight:normal;font-size:18px;font-family:Calibri;-inkscape-font-specification:Calibri;writing-mode:lr-tb;fill:#000000;fill-opacity:1;fill-rule:nonzero;stroke:none"
           id="text1967"><tspan
             x="0 9.4499998 18.072001 23.993999 31.032 40.049999"
             y="0"
             sodipodi:role="line"
             id="tspan1965">parser</tspan></text></g></g><g
       id="g1969"><g
         id="g1971"
         clip-path="url(#clipPath1975)"><text
           transform="matrix(1,0,0,-1,301.56,497.95)"
           style="font-variant:normal;font-weight:normal;font-size:18px;font-family:Calibri;-inkscape-font-specification:Calibri;writing-mode:lr-tb;fill:#000000;fill-opacity:1;fill-rule:nonzero;stroke:none"
           id="text1979"><tspan
             x="0 5.4000001"
             y="0"
             sodipodi:role="line"
             id="tspan1977">()</tspan></text></g></g></g></svg>
