<?xml version="1.0" encoding="UTF-8" standalone="no"?>
<svg
   xmlns:dc="http://purl.org/dc/elements/1.1/"
   xmlns:cc="http://creativecommons.org/ns#"
   xmlns:rdf="http://www.w3.org/1999/02/22-rdf-syntax-ns#"
   xmlns:svg="http://www.w3.org/2000/svg"
   xmlns="http://www.w3.org/2000/svg"
   xmlns:sodipodi="http://sodipodi.sourceforge.net/DTD/sodipodi-0.dtd"
   xmlns:inkscape="http://www.inkscape.org/namespaces/inkscape"
   version="1.1"
   id="svg10786"
   xml:space="preserve"
   width="952.1192"
   height="365.44"
   viewBox="0 0 952.1192 365.44"
   sodipodi:docname="PCB Board_Via.svg"
   inkscape:version="1.0.1 (3bc2e813f5, 2020-09-07)"><metadata
     id="metadata10792"><rdf:RDF><cc:Work
         rdf:about=""><dc:format>image/svg+xml</dc:format><dc:type
           rdf:resource="http://purl.org/dc/dcmitype/StillImage" /><dc:title></dc:title></cc:Work></rdf:RDF></metadata><defs
     id="defs10790"><clipPath
       clipPathUnits="userSpaceOnUse"
       id="clipPath10834"><path
         d="M -3.0518e-5,540 H 960 V 0 L -3.0518e-5,6.1035e-5"
         clip-rule="evenodd"
         id="path10832" /></clipPath><clipPath
       clipPathUnits="userSpaceOnUse"
       id="clipPath10852"><path
         d="M -3.0518e-5,540 H 960 V 0 L -3.0518e-5,6.1035e-5"
         clip-rule="evenodd"
         id="path10850" /></clipPath><clipPath
       clipPathUnits="userSpaceOnUse"
       id="clipPath10864"><path
         d="M 1.4305e-5,0 H 960.00001 V 540 H 1.4305e-5 Z"
         clip-rule="evenodd"
         id="path10862" /></clipPath><clipPath
       clipPathUnits="userSpaceOnUse"
       id="clipPath10878"><path
         d="M 1.4305e-5,0 H 960.00001 V 540 H 1.4305e-5 Z"
         clip-rule="evenodd"
         id="path10876" /></clipPath><clipPath
       clipPathUnits="userSpaceOnUse"
       id="clipPath10892"><path
         d="M 1.4305e-5,0 H 960.00001 V 540 H 1.4305e-5 Z"
         clip-rule="evenodd"
         id="path10890" /></clipPath><clipPath
       clipPathUnits="userSpaceOnUse"
       id="clipPath10904"><path
         d="M 1.4305e-5,0 H 960.00001 V 540 H 1.4305e-5 Z"
         clip-rule="evenodd"
         id="path10902" /></clipPath></defs><sodipodi:namedview
     pagecolor="#ffffff"
     bordercolor="#666666"
     borderopacity="1"
     objecttolerance="10"
     gridtolerance="10"
     guidetolerance="10"
     inkscape:pageopacity="0"
     inkscape:pageshadow="2"
     inkscape:window-width="2560"
     inkscape:window-height="1377"
     id="namedview10788"
     showgrid="false"
     fit-margin-top="0"
     fit-margin-left="0"
     fit-margin-right="0"
     fit-margin-bottom="0"
     inkscape:zoom="0.8984375"
     inkscape:cx="509.2805"
     inkscape:cy="228.31999"
     inkscape:window-x="-8"
     inkscape:window-y="-8"
     inkscape:window-maximized="1"
     inkscape:current-layer="g10794" /><g
     id="g10794"
     inkscape:groupmode="layer"
     inkscape:label="PCB Board_Via"
     transform="matrix(1.3333333,0,0,-1.3333333,-130.7195,588.31999)"><path
       d="m 234.6,395.52 h 475.8 v 45.72 H 234.6 Z"
       style="fill:#385723;fill-opacity:1;fill-rule:evenodd;stroke:none"
       id="path10806" /><path
       d="m 234.6,379.32 h 475.8 v 16.2 H 234.6 Z"
       style="fill:#ed7d31;fill-opacity:1;fill-rule:evenodd;stroke:none"
       id="path10808" /><path
       d="m 234.6,349.92 h 475.8 v 29.4 H 234.6 Z"
       style="fill:#4472c4;fill-opacity:1;fill-rule:evenodd;stroke:none"
       id="path10810" /><path
       d="m 234.6,333.6 h 475.8 v 16.32 H 234.6 Z"
       style="fill:#ed7d31;fill-opacity:1;fill-rule:evenodd;stroke:none"
       id="path10812" /><path
       d="m 234.6,304.2 h 475.8 v 29.4 H 234.6 Z"
       style="fill:#4472c4;fill-opacity:1;fill-rule:evenodd;stroke:none"
       id="path10814" /><path
       d="m 234.6,288 h 475.8 v 16.2 H 234.6 Z"
       style="fill:#ed7d31;fill-opacity:1;fill-rule:evenodd;stroke:none"
       id="path10816" /><path
       d="M 234.6,258.6 H 710.4 V 288 H 234.6 Z"
       style="fill:#4472c4;fill-opacity:1;fill-rule:evenodd;stroke:none"
       id="path10818" /><path
       d="M 234.6,242.28 H 710.4 V 258.6 H 234.6 Z"
       style="fill:#ed7d31;fill-opacity:1;fill-rule:evenodd;stroke:none"
       id="path10820" /><path
       d="m 234.6,212.88 h 475.8 v 29.4 H 234.6 Z"
       style="fill:#4472c4;fill-opacity:1;fill-rule:evenodd;stroke:none"
       id="path10822" /><path
       d="m 234.6,167.16 h 475.8 v 45.72 H 234.6 Z"
       style="fill:#385723;fill-opacity:1;fill-rule:evenodd;stroke:none"
       id="path10824" /><path
       d="m 325.08,333.6 h 41.04 v 61.92 h -41.04 z"
       style="fill:#ffffff;fill-opacity:1;fill-rule:evenodd;stroke:none"
       id="path10826" /><g
       id="g10828"><g
         id="g10830"
         clip-path="url(#clipPath10834)"><path
           d="m 363.24,333.6 h 6.6 v 61.92 h -6.6 z"
           style="fill:#ffc000;fill-opacity:1;fill-rule:evenodd;stroke:none"
           id="path10836" /></g></g><path
       d="m 309.12,379.32 h 18.24 v 16.2 h -18.24 z"
       style="fill:#ffc000;fill-opacity:1;fill-rule:evenodd;stroke:none"
       id="path10838" /><path
       d="m 365.04,379.32 h 18.24 v 16.2 h -18.24 z"
       style="fill:#ffc000;fill-opacity:1;fill-rule:evenodd;stroke:none"
       id="path10840" /><path
       d="m 309.12,333.6 h 18.24 v 16.32 h -18.24 z"
       style="fill:#ffc000;fill-opacity:1;fill-rule:evenodd;stroke:none"
       id="path10842" /><path
       d="m 365.04,333.6 h 18.24 v 16.32 h -18.24 z"
       style="fill:#ffc000;fill-opacity:1;fill-rule:evenodd;stroke:none"
       id="path10844" /><g
       id="g10846"><g
         id="g10848"
         clip-path="url(#clipPath10852)"><path
           d="m 320.88,333.6 h 6.48 v 61.92 h -6.48 z"
           style="fill:#ffc000;fill-opacity:1;fill-rule:evenodd;stroke:none"
           id="path10854" /></g></g><path
       d="m 741.05,382.53 -25.06,2.97 0.26,2.26 25.06,-2.96 z m -24.2,0.57 -6.39,4.2 7.19,2.59 z"
       style="fill:#000000;fill-opacity:1;fill-rule:nonzero;stroke:none"
       id="path10856" /><g
       id="g10858"><g
         id="g10860"
         clip-path="url(#clipPath10864)"><text
           transform="matrix(1,0,0,-1,748.42,375.86)"
           style="font-variant:normal;font-weight:normal;font-size:24px;font-family:Calibri;-inkscape-font-specification:Calibri;writing-mode:lr-tb;fill:#000000;fill-opacity:1;fill-rule:nonzero;stroke:none"
           id="text10868"><tspan
             x="0 12.12 24.719999 37.080002 43.799999 55.751999"
             y="0"
             sodipodi:role="line"
             id="tspan10866">Kupfer</tspan></text></g></g><path
       d="m 209.98,359.9 19.19,2.68 -0.31,2.26 -19.2,-2.68 z m 18.38,0.27 6.3,4.33 -7.25,2.44 z"
       style="fill:#000000;fill-opacity:1;fill-rule:nonzero;stroke:none"
       id="path10870" /><g
       id="g10872"><g
         id="g10874"
         clip-path="url(#clipPath10878)"><text
           transform="matrix(1,0,0,-1,96.024,353.18)"
           style="font-variant:normal;font-weight:normal;font-size:24px;font-family:Calibri;-inkscape-font-specification:Calibri;writing-mode:lr-tb;fill:#000000;fill-opacity:1;fill-rule:nonzero;stroke:none"
           id="text10882"><tspan
             x="0 6.0479999 15.36 28.007999 33.528 39.048 51 59.375999 71.975998 84.575996"
             y="0"
             sodipodi:role="line"
             id="tspan10880">Isolierung</tspan></text></g></g><path
       d="m 166.57,299.46 153.74,61.85 -0.85,2.12 -153.75,-61.86 z m 153.53,59.31 5.07,5.73 -7.62,0.62 z"
       style="fill:#000000;fill-opacity:1;fill-rule:nonzero;stroke:none"
       id="path10884" /><g
       id="g10886"><g
         id="g10888"
         clip-path="url(#clipPath10892)"><text
           transform="matrix(1,0,0,-1,128.18,292.66)"
           style="font-variant:normal;font-weight:normal;font-size:24.024px;font-family:Calibri;-inkscape-font-specification:Calibri;writing-mode:lr-tb;fill:#000000;fill-opacity:1;fill-rule:nonzero;stroke:none"
           id="text10896"><tspan
             x="0 13.560008"
             y="0"
             sodipodi:role="line"
             id="tspan10894">Vi</tspan></text></g></g><g
       id="g10898"><g
         id="g10900"
         clip-path="url(#clipPath10904)"><text
           transform="matrix(1,0,0,-1,147.26,292.66)"
           style="font-variant:normal;font-weight:normal;font-size:24.024px;font-family:Calibri;-inkscape-font-specification:Calibri;writing-mode:lr-tb;fill:#000000;fill-opacity:1;fill-rule:nonzero;stroke:none"
           id="text10908"><tspan
             x="0"
             y="0"
             id="tspan10906">a</tspan></text></g></g></g></svg>
