<?xml version="1.0" encoding="UTF-8" standalone="no"?>
<svg
   xmlns:dc="http://purl.org/dc/elements/1.1/"
   xmlns:cc="http://creativecommons.org/ns#"
   xmlns:rdf="http://www.w3.org/1999/02/22-rdf-syntax-ns#"
   xmlns:svg="http://www.w3.org/2000/svg"
   xmlns="http://www.w3.org/2000/svg"
   xmlns:sodipodi="http://sodipodi.sourceforge.net/DTD/sodipodi-0.dtd"
   xmlns:inkscape="http://www.inkscape.org/namespaces/inkscape"
   version="1.1"
   id="svg833"
   xml:space="preserve"
   width="279.06915"
   height="318.8111"
   viewBox="0 0 279.06915 318.8111"
   sodipodi:docname="Pullup.svg"
   inkscape:version="1.0.1 (3bc2e813f5, 2020-09-07)"><metadata
     id="metadata839"><rdf:RDF><cc:Work
         rdf:about=""><dc:format>image/svg+xml</dc:format><dc:type
           rdf:resource="http://purl.org/dc/dcmitype/StillImage" /><dc:title></dc:title></cc:Work></rdf:RDF></metadata><defs
     id="defs837"><clipPath
       clipPathUnits="userSpaceOnUse"
       id="clipPath849"><path
         d="M 0,1.2207e-4 H 960 V 540.00012 H 0 Z"
         clip-rule="evenodd"
         id="path847" /></clipPath><clipPath
       clipPathUnits="userSpaceOnUse"
       id="clipPath863"><path
         d="M -6.1035e-5,540 H 960 V 0 L 0,-6.1035e-5"
         clip-rule="evenodd"
         id="path861" /></clipPath><clipPath
       clipPathUnits="userSpaceOnUse"
       id="clipPath873"><path
         d="M 0,540 H 960 V 1.8311e-4 H 3.0518e-5"
         clip-rule="evenodd"
         id="path871" /></clipPath><clipPath
       clipPathUnits="userSpaceOnUse"
       id="clipPath887"><path
         d="M -3.0518e-5,540 H 960 V 1.2207e-4 L -6.1035e-5,6.1035e-5"
         clip-rule="evenodd"
         id="path885" /></clipPath><clipPath
       clipPathUnits="userSpaceOnUse"
       id="clipPath897"><path
         d="M -1.5259e-5,540 H 960 V 6.1035e-5 H -1.5259e-5"
         clip-rule="evenodd"
         id="path895" /></clipPath><clipPath
       clipPathUnits="userSpaceOnUse"
       id="clipPath915"><path
         d="M -1.5259e-5,540 H 960 V 0 L -1.5259e-5,6.1035e-5"
         clip-rule="evenodd"
         id="path913" /></clipPath><clipPath
       clipPathUnits="userSpaceOnUse"
       id="clipPath931"><path
         d="M 1.4305e-5,0 H 960.00001 V 540 H 1.4305e-5 Z"
         clip-rule="evenodd"
         id="path929" /></clipPath><clipPath
       clipPathUnits="userSpaceOnUse"
       id="clipPath943"><path
         d="M 1.4305e-5,0 H 960.00001 V 540 H 1.4305e-5 Z"
         clip-rule="evenodd"
         id="path941" /></clipPath><clipPath
       clipPathUnits="userSpaceOnUse"
       id="clipPath955"><path
         d="M 1.4305e-5,0 H 960.00001 V 540 H 1.4305e-5 Z"
         clip-rule="evenodd"
         id="path953" /></clipPath><clipPath
       clipPathUnits="userSpaceOnUse"
       id="clipPath967"><path
         d="M 1.4305e-5,0 H 960.00001 V 540 H 1.4305e-5 Z"
         clip-rule="evenodd"
         id="path965" /></clipPath><clipPath
       clipPathUnits="userSpaceOnUse"
       id="clipPath979"><path
         d="M 1.4305e-5,0 H 960.00001 V 540 H 1.4305e-5 Z"
         clip-rule="evenodd"
         id="path977" /></clipPath><clipPath
       clipPathUnits="userSpaceOnUse"
       id="clipPath991"><path
         d="M 1.4305e-5,0 H 960.00001 V 540 H 1.4305e-5 Z"
         clip-rule="evenodd"
         id="path989" /></clipPath><clipPath
       clipPathUnits="userSpaceOnUse"
       id="clipPath1003"><path
         d="M 1.8311e-4,540 H 960 V 1.8311e-4 H 2.4414e-4"
         clip-rule="evenodd"
         id="path1001" /></clipPath><clipPath
       clipPathUnits="userSpaceOnUse"
       id="clipPath1013"><path
         d="M -1.2207e-4,540 H 960 V 6.1035e-5 H -6.1035e-5"
         clip-rule="evenodd"
         id="path1011" /></clipPath><clipPath
       clipPathUnits="userSpaceOnUse"
       id="clipPath1035"><path
         d="M 1.4305e-5,0 H 960.00001 V 540 H 1.4305e-5 Z"
         clip-rule="evenodd"
         id="path1033" /></clipPath><clipPath
       clipPathUnits="userSpaceOnUse"
       id="clipPath1047"><path
         d="M 1.4305e-5,0 H 960.00001 V 540 H 1.4305e-5 Z"
         clip-rule="evenodd"
         id="path1045" /></clipPath><clipPath
       clipPathUnits="userSpaceOnUse"
       id="clipPath1059"><path
         d="M -6.1035e-5,540 H 960 V 0 H -6.1035e-5"
         clip-rule="evenodd"
         id="path1057" /></clipPath><clipPath
       clipPathUnits="userSpaceOnUse"
       id="clipPath1071"><path
         d="M 1.4305e-5,0 H 960.00001 V 540 H 1.4305e-5 Z"
         clip-rule="evenodd"
         id="path1069" /></clipPath><clipPath
       clipPathUnits="userSpaceOnUse"
       id="clipPath1083"><path
         d="M 1.4305e-5,0 H 960.00001 V 540 H 1.4305e-5 Z"
         clip-rule="evenodd"
         id="path1081" /></clipPath><clipPath
       clipPathUnits="userSpaceOnUse"
       id="clipPath1095"><path
         d="M 1.4305e-5,0 H 960.00001 V 540 H 1.4305e-5 Z"
         clip-rule="evenodd"
         id="path1093" /></clipPath><clipPath
       clipPathUnits="userSpaceOnUse"
       id="clipPath1107"><path
         d="M 1.4305e-5,0 H 960.00001 V 540 H 1.4305e-5 Z"
         clip-rule="evenodd"
         id="path1105" /></clipPath></defs><sodipodi:namedview
     pagecolor="#ffffff"
     bordercolor="#666666"
     borderopacity="1"
     objecttolerance="10"
     gridtolerance="10"
     guidetolerance="10"
     inkscape:pageopacity="0"
     inkscape:pageshadow="2"
     inkscape:window-width="2560"
     inkscape:window-height="1377"
     id="namedview835"
     showgrid="false"
     fit-margin-top="0"
     fit-margin-left="0"
     fit-margin-right="0"
     fit-margin-bottom="0"
     inkscape:zoom="0.85703125"
     inkscape:cx="480.64"
     inkscape:cy="185.43691"
     inkscape:window-x="-8"
     inkscape:window-y="-8"
     inkscape:window-maximized="1"
     inkscape:current-layer="g841" /><g
     id="g841"
     inkscape:groupmode="layer"
     inkscape:label="Pulldown_Pullup"
     transform="matrix(1.3333333,0,0,-1.3333333,-159.36,545.43691)"><g
       id="g867"><g
         id="g869"
         clip-path="url(#clipPath873)"><path
           d="m 134.52,283.8 h 162 v 3.6 h -162 z"
           style="fill:#000000;fill-opacity:1;fill-rule:evenodd;stroke:none"
           id="path875" /></g></g><path
       d="m 132.72,197.4 h 3.6 v 19.32 h -3.6 z"
       style="fill:#000000;fill-opacity:1;fill-rule:evenodd;stroke:none"
       id="path877" /><path
       d="m 132.72,268.2 h 3.6 v 17.76 h -3.6 z"
       style="fill:#000000;fill-opacity:1;fill-rule:evenodd;stroke:none"
       id="path879" /><g
       id="g881"><g
         id="g883"
         clip-path="url(#clipPath887)"><path
           d="m 160.67,268.21 3.16,-1.72 -27.95,-51.39 -3.16,1.72 z"
           style="fill:#000000;fill-opacity:1;fill-rule:evenodd;stroke:none"
           id="path889" /></g></g><g
       id="g891"><g
         id="g893"
         clip-path="url(#clipPath897)"><path
           d="m 136.32,385.68 h 162 v 3.6 h -162 z"
           style="fill:#000000;fill-opacity:1;fill-rule:evenodd;stroke:none"
           id="path899" /></g></g><path
       d="m 121.02,311.82 h 27.12 v 48.96 h -27.12 z"
       style="fill:none;stroke:#000000;stroke-width:3;stroke-linecap:butt;stroke-linejoin:miter;stroke-miterlimit:10;stroke-dasharray:none;stroke-opacity:1"
       id="path901" /><path
       d="m 132.72,285.96 h 3.6 v 25.92 h -3.6 z"
       style="fill:#000000;fill-opacity:1;fill-rule:evenodd;stroke:none"
       id="path903" /><path
       d="m 132.72,360.84 h 3.6 v 25.92 h -3.6 z"
       style="fill:#000000;fill-opacity:1;fill-rule:evenodd;stroke:none"
       id="path905" /><path
       d="m 291,285.96 c 0,3.05 2.47,5.52 5.52,5.52 3.05,0 5.52,-2.47 5.52,-5.52 0,-3.05 -2.47,-5.52 -5.52,-5.52 -3.05,0 -5.52,2.47 -5.52,5.52 z"
       style="fill:#bf9000;fill-opacity:1;fill-rule:evenodd;stroke:none"
       id="path907" /><g
       id="g909"><g
         id="g911"
         clip-path="url(#clipPath915)"><path
           d="m 121.56,171.48 h 25.92 v 5.16 h -25.92 z"
           style="fill:#000000;fill-opacity:1;fill-rule:evenodd;stroke:none"
           id="path917" /></g></g><path
       d="m 132.72,174 h 3.6 v 34.56 h -3.6 z"
       style="fill:#000000;fill-opacity:1;fill-rule:evenodd;stroke:none"
       id="path919" /><path
       d="m 129,387.48 c 0,3.05 2.47,5.52 5.52,5.52 3.05,0 5.52,-2.47 5.52,-5.52 0,-3.05 -2.47,-5.52 -5.52,-5.52 -3.05,0 -5.52,2.47 -5.52,5.52 z"
       style="fill:#bf9000;fill-opacity:1;fill-rule:evenodd;stroke:none"
       id="path921" /><path
       d="m 129.12,285.96 c 0,3.05 2.47,5.52 5.52,5.52 3.05,0 5.52,-2.47 5.52,-5.52 0,-3.05 -2.47,-5.52 -5.52,-5.52 -3.05,0 -5.52,2.47 -5.52,5.52 z"
       style="fill:#bf9000;fill-opacity:1;fill-rule:evenodd;stroke:none"
       id="path923" /><g
       id="g925"><g
         id="g927"
         clip-path="url(#clipPath931)"><text
           transform="matrix(1,0,0,-1,150.82,326.98)"
           style="font-variant:normal;font-weight:normal;font-size:18px;font-family:'Cambria Math';-inkscape-font-specification:CambriaMath;writing-mode:lr-tb;fill:#000000;fill-opacity:1;fill-rule:nonzero;stroke:none"
           id="text935"><tspan
             x="0"
             y="0"
             id="tspan933">R</tspan></text></g></g><g
       id="g937"><g
         id="g939"
         clip-path="url(#clipPath943)"><text
           transform="matrix(1,0,0,-1,162.7,323.26)"
           style="font-variant:normal;font-weight:normal;font-size:13.2px;font-family:'Cambria Math';-inkscape-font-specification:CambriaMath;writing-mode:lr-tb;fill:#000000;fill-opacity:1;fill-rule:nonzero;stroke:none"
           id="text947"><tspan
             x="0 8.382 16.566 20.6448 24.829201 32.881199"
             y="0"
             sodipodi:role="line"
             id="tspan945">Pullup</tspan></text></g></g><g
       id="g949"><g
         id="g951"
         clip-path="url(#clipPath955)"><text
           transform="matrix(1,0,0,-1,152.47,170.11)"
           style="font-variant:normal;font-weight:normal;font-size:18px;font-family:'Cambria Math';-inkscape-font-specification:CambriaMath;writing-mode:lr-tb;fill:#000000;fill-opacity:1;fill-rule:nonzero;stroke:none"
           id="text959"><tspan
             x="0 10.998 23.256001"
             y="0"
             sodipodi:role="line"
             id="tspan957">GND</tspan></text></g></g><g
       id="g961"><g
         id="g963"
         clip-path="url(#clipPath967)"><text
           transform="matrix(1,0,0,-1,245.81,396.94)"
           style="font-variant:normal;font-weight:normal;font-size:18px;font-family:'Cambria Math';-inkscape-font-specification:CambriaMath;writing-mode:lr-tb;fill:#000000;fill-opacity:1;fill-rule:nonzero;stroke:none"
           id="text971"><tspan
             x="0"
             y="0"
             id="tspan969">+</tspan></text></g></g><g
       id="g973"><g
         id="g975"
         clip-path="url(#clipPath979)"><text
           transform="matrix(1,0,0,-1,259.25,396.94)"
           style="font-variant:normal;font-weight:normal;font-size:18px;font-family:'Cambria Math';-inkscape-font-specification:CambriaMath;writing-mode:lr-tb;fill:#000000;fill-opacity:1;fill-rule:nonzero;stroke:none"
           id="text983"><tspan
             x="0 10.872 21.006001"
             y="0"
             sodipodi:role="line"
             id="tspan981">VCC</tspan></text></g></g><g
       id="g985"><g
         id="g987"
         clip-path="url(#clipPath991)"><text
           transform="matrix(1,0,0,-1,291,296.93)"
           style="font-variant:normal;font-weight:normal;font-size:18px;font-family:'Cambria Math';-inkscape-font-specification:CambriaMath;writing-mode:lr-tb;fill:#000000;fill-opacity:1;fill-rule:nonzero;stroke:none"
           id="text995"><tspan
             x="0 10.998 21.222 27.108"
             y="0"
             sodipodi:role="line"
             id="tspan993">GPIO</tspan></text></g></g></g></svg>
