<?xml version="1.0" encoding="UTF-8" standalone="no"?>
<svg
   xmlns:dc="http://purl.org/dc/elements/1.1/"
   xmlns:cc="http://creativecommons.org/ns#"
   xmlns:rdf="http://www.w3.org/1999/02/22-rdf-syntax-ns#"
   xmlns:svg="http://www.w3.org/2000/svg"
   xmlns="http://www.w3.org/2000/svg"
   xmlns:sodipodi="http://sodipodi.sourceforge.net/DTD/sodipodi-0.dtd"
   xmlns:inkscape="http://www.inkscape.org/namespaces/inkscape"
   version="1.1"
   id="svg833"
   xml:space="preserve"
   width="278.81583"
   height="333.77109"
   viewBox="0 0 278.81582 333.77109"
   sodipodi:docname="Pulldown.svg"
   inkscape:version="1.0.1 (3bc2e813f5, 2020-09-07)"><metadata
     id="metadata839"><rdf:RDF><cc:Work
         rdf:about=""><dc:format>image/svg+xml</dc:format><dc:type
           rdf:resource="http://purl.org/dc/dcmitype/StillImage" /><dc:title></dc:title></cc:Work></rdf:RDF></metadata><defs
     id="defs837"><clipPath
       clipPathUnits="userSpaceOnUse"
       id="clipPath849"><path
         d="M 0,1.2207e-4 H 960 V 540.00012 H 0 Z"
         clip-rule="evenodd"
         id="path847" /></clipPath><clipPath
       clipPathUnits="userSpaceOnUse"
       id="clipPath863"><path
         d="M -6.1035e-5,540 H 960 V 0 L 0,-6.1035e-5"
         clip-rule="evenodd"
         id="path861" /></clipPath><clipPath
       clipPathUnits="userSpaceOnUse"
       id="clipPath873"><path
         d="M 0,540 H 960 V 1.8311e-4 H 3.0518e-5"
         clip-rule="evenodd"
         id="path871" /></clipPath><clipPath
       clipPathUnits="userSpaceOnUse"
       id="clipPath887"><path
         d="M -3.0518e-5,540 H 960 V 1.2207e-4 L -6.1035e-5,6.1035e-5"
         clip-rule="evenodd"
         id="path885" /></clipPath><clipPath
       clipPathUnits="userSpaceOnUse"
       id="clipPath897"><path
         d="M -1.5259e-5,540 H 960 V 6.1035e-5 H -1.5259e-5"
         clip-rule="evenodd"
         id="path895" /></clipPath><clipPath
       clipPathUnits="userSpaceOnUse"
       id="clipPath915"><path
         d="M -1.5259e-5,540 H 960 V 0 L -1.5259e-5,6.1035e-5"
         clip-rule="evenodd"
         id="path913" /></clipPath><clipPath
       clipPathUnits="userSpaceOnUse"
       id="clipPath931"><path
         d="M 1.4305e-5,0 H 960.00001 V 540 H 1.4305e-5 Z"
         clip-rule="evenodd"
         id="path929" /></clipPath><clipPath
       clipPathUnits="userSpaceOnUse"
       id="clipPath943"><path
         d="M 1.4305e-5,0 H 960.00001 V 540 H 1.4305e-5 Z"
         clip-rule="evenodd"
         id="path941" /></clipPath><clipPath
       clipPathUnits="userSpaceOnUse"
       id="clipPath955"><path
         d="M 1.4305e-5,0 H 960.00001 V 540 H 1.4305e-5 Z"
         clip-rule="evenodd"
         id="path953" /></clipPath><clipPath
       clipPathUnits="userSpaceOnUse"
       id="clipPath967"><path
         d="M 1.4305e-5,0 H 960.00001 V 540 H 1.4305e-5 Z"
         clip-rule="evenodd"
         id="path965" /></clipPath><clipPath
       clipPathUnits="userSpaceOnUse"
       id="clipPath979"><path
         d="M 1.4305e-5,0 H 960.00001 V 540 H 1.4305e-5 Z"
         clip-rule="evenodd"
         id="path977" /></clipPath><clipPath
       clipPathUnits="userSpaceOnUse"
       id="clipPath991"><path
         d="M 1.4305e-5,0 H 960.00001 V 540 H 1.4305e-5 Z"
         clip-rule="evenodd"
         id="path989" /></clipPath><clipPath
       clipPathUnits="userSpaceOnUse"
       id="clipPath1003"><path
         d="M 1.8311e-4,540 H 960 V 1.8311e-4 H 2.4414e-4"
         clip-rule="evenodd"
         id="path1001" /></clipPath><clipPath
       clipPathUnits="userSpaceOnUse"
       id="clipPath1013"><path
         d="M -1.2207e-4,540 H 960 V 6.1035e-5 H -6.1035e-5"
         clip-rule="evenodd"
         id="path1011" /></clipPath><clipPath
       clipPathUnits="userSpaceOnUse"
       id="clipPath1035"><path
         d="M 1.4305e-5,0 H 960.00001 V 540 H 1.4305e-5 Z"
         clip-rule="evenodd"
         id="path1033" /></clipPath><clipPath
       clipPathUnits="userSpaceOnUse"
       id="clipPath1047"><path
         d="M 1.4305e-5,0 H 960.00001 V 540 H 1.4305e-5 Z"
         clip-rule="evenodd"
         id="path1045" /></clipPath><clipPath
       clipPathUnits="userSpaceOnUse"
       id="clipPath1059"><path
         d="M -6.1035e-5,540 H 960 V 0 H -6.1035e-5"
         clip-rule="evenodd"
         id="path1057" /></clipPath><clipPath
       clipPathUnits="userSpaceOnUse"
       id="clipPath1071"><path
         d="M 1.4305e-5,0 H 960.00001 V 540 H 1.4305e-5 Z"
         clip-rule="evenodd"
         id="path1069" /></clipPath><clipPath
       clipPathUnits="userSpaceOnUse"
       id="clipPath1083"><path
         d="M 1.4305e-5,0 H 960.00001 V 540 H 1.4305e-5 Z"
         clip-rule="evenodd"
         id="path1081" /></clipPath><clipPath
       clipPathUnits="userSpaceOnUse"
       id="clipPath1095"><path
         d="M 1.4305e-5,0 H 960.00001 V 540 H 1.4305e-5 Z"
         clip-rule="evenodd"
         id="path1093" /></clipPath><clipPath
       clipPathUnits="userSpaceOnUse"
       id="clipPath1107"><path
         d="M 1.4305e-5,0 H 960.00001 V 540 H 1.4305e-5 Z"
         clip-rule="evenodd"
         id="path1105" /></clipPath><clipPath
       clipPathUnits="userSpaceOnUse"
       id="clipPath863-8"><path
         d="M -6.1035e-5,540 H 960 V 0 L 0,-6.1035e-5"
         clip-rule="evenodd"
         id="path861-0" /></clipPath><clipPath
       clipPathUnits="userSpaceOnUse"
       id="clipPath1003-2"><path
         d="M 1.8311e-4,540 H 960 V 1.8311e-4 H 2.4414e-4"
         clip-rule="evenodd"
         id="path1001-2" /></clipPath><clipPath
       clipPathUnits="userSpaceOnUse"
       id="clipPath1013-3"><path
         d="M -1.2207e-4,540 H 960 V 6.1035e-5 H -6.1035e-5"
         clip-rule="evenodd"
         id="path1011-0" /></clipPath><clipPath
       clipPathUnits="userSpaceOnUse"
       id="clipPath1035-4"><path
         d="M 1.4305e-5,0 H 960.00001 V 540 H 1.4305e-5 Z"
         clip-rule="evenodd"
         id="path1033-9" /></clipPath><clipPath
       clipPathUnits="userSpaceOnUse"
       id="clipPath1047-6"><path
         d="M 1.4305e-5,0 H 960.00001 V 540 H 1.4305e-5 Z"
         clip-rule="evenodd"
         id="path1045-3" /></clipPath><clipPath
       clipPathUnits="userSpaceOnUse"
       id="clipPath1059-8"><path
         d="M -6.1035e-5,540 H 960 V 0 H -6.1035e-5"
         clip-rule="evenodd"
         id="path1057-3" /></clipPath><clipPath
       clipPathUnits="userSpaceOnUse"
       id="clipPath1071-5"><path
         d="M 1.4305e-5,0 H 960.00001 V 540 H 1.4305e-5 Z"
         clip-rule="evenodd"
         id="path1069-2" /></clipPath><clipPath
       clipPathUnits="userSpaceOnUse"
       id="clipPath1083-7"><path
         d="M 1.4305e-5,0 H 960.00001 V 540 H 1.4305e-5 Z"
         clip-rule="evenodd"
         id="path1081-6" /></clipPath><clipPath
       clipPathUnits="userSpaceOnUse"
       id="clipPath1095-9"><path
         d="M 1.4305e-5,0 H 960.00001 V 540 H 1.4305e-5 Z"
         clip-rule="evenodd"
         id="path1093-9" /></clipPath><clipPath
       clipPathUnits="userSpaceOnUse"
       id="clipPath1107-4"><path
         d="M 1.4305e-5,0 H 960.00001 V 540 H 1.4305e-5 Z"
         clip-rule="evenodd"
         id="path1105-2" /></clipPath></defs><sodipodi:namedview
     pagecolor="#ffffff"
     bordercolor="#666666"
     borderopacity="1"
     objecttolerance="10"
     gridtolerance="10"
     guidetolerance="10"
     inkscape:pageopacity="0"
     inkscape:pageshadow="2"
     inkscape:window-width="2560"
     inkscape:window-height="1377"
     id="namedview835"
     showgrid="false"
     fit-margin-top="0"
     fit-margin-left="0"
     fit-margin-right="0"
     fit-margin-bottom="0"
     inkscape:zoom="0.85703125"
     inkscape:cx="477.69605"
     inkscape:cy="191.30149"
     inkscape:window-x="-8"
     inkscape:window-y="-8"
     inkscape:window-maximized="1"
     inkscape:current-layer="g841" /><g
     id="g841"
     inkscape:groupmode="layer"
     inkscape:label="Pulldown_Pullup"
     transform="matrix(1.3333333,0,0,-1.3333333,-162.30396,551.30149)"><path
       d="m 134.68797,372.03843 h 3.6 v 19.44 h -3.6 z"
       style="fill:#000000;fill-opacity:1;fill-rule:evenodd;stroke:none;stroke-width:0.999998"
       id="path853" /><path
       d="m 134.68797,293.79842 h 3.6 v 26.76001 h -3.6 z"
       style="fill:#000000;fill-opacity:1;fill-rule:evenodd;stroke:none;stroke-width:0.999998"
       id="path855" /><g
       id="g857"
       transform="translate(-459.91203,1.83843)"><g
         id="g859"
         clip-path="url(#clipPath863-8)"><path
           d="m 622.6,318.77 3.16,1.72 -27.95,51.39 -3.16,-1.72 z"
           style="fill:#000000;fill-opacity:1;fill-rule:evenodd;stroke:none"
           id="path865" /></g></g><g
       id="g997"
       transform="translate(-459.91203,1.83843)"><g
         id="g999"
         clip-path="url(#clipPath1003-2)"><path
           d="m 596.4,286.32 h 162 v 3.6 h -162 z"
           style="fill:#000000;fill-opacity:1;fill-rule:evenodd;stroke:none"
           id="path1005" /></g></g><g
       id="g1007"
       transform="translate(-459.91203,1.83843)"><g
         id="g1009"
         clip-path="url(#clipPath1013-3)"><path
           d="m 598.2,388.32 h 162 v 3.6 h -162 z"
           style="fill:#000000;fill-opacity:1;fill-rule:evenodd;stroke:none"
           id="path1015" /></g></g><path
       d="m 123.22797,213.69843 h 27.12 v 48.95999 h -27.12 z"
       style="fill:none;stroke:#000000;stroke-width:3;stroke-linecap:butt;stroke-linejoin:miter;stroke-miterlimit:10;stroke-dasharray:none;stroke-opacity:1"
       id="path1017" /><path
       d="m 134.92797,187.83843 h 3.6 v 25.92 h -3.6 z"
       style="fill:#000000;fill-opacity:1;fill-rule:evenodd;stroke:none;stroke-width:0.999998"
       id="path1019" /><path
       d="m 134.92797,262.71842 h 3.6 v 25.92 h -3.6 z"
       style="fill:#000000;fill-opacity:1;fill-rule:evenodd;stroke:none;stroke-width:0.999998"
       id="path1021" /><path
       d="m 292.96797,290.31842 c 0,3.05001 2.47,5.52 5.52,5.52 3.05,0 5.52,-2.46999 5.52,-5.52 0,-3.04999 -2.47,-5.52 -5.52,-5.52 -3.05,0 -5.52,2.47001 -5.52,5.52 z"
       style="fill:#bf9000;fill-opacity:1;fill-rule:evenodd;stroke:none;stroke-width:0.999998"
       id="path1023" /><path
       d="m 130.96797,391.95843 c 0,3.05 2.47,5.52 5.52,5.52 3.05,0 5.52,-2.47 5.52,-5.52 0,-3.05 -2.47,-5.52 -5.52,-5.52 -3.05,0 -5.52,2.47 -5.52,5.52 z"
       style="fill:#bf9000;fill-opacity:1;fill-rule:evenodd;stroke:none;stroke-width:0.999998"
       id="path1025" /><path
       d="m 131.08797,290.31842 c 0,3.05001 2.47,5.52 5.52,5.52 3.05,0 5.52,-2.46999 5.52,-5.52 0,-3.04999 -2.47,-5.52 -5.52,-5.52 -3.05,0 -5.52,2.47001 -5.52,5.52 z"
       style="fill:#bf9000;fill-opacity:1;fill-rule:evenodd;stroke:none;stroke-width:0.999998"
       id="path1027" /><g
       id="g1029"
       transform="translate(-459.91203,1.83843)"><g
         id="g1031"
         clip-path="url(#clipPath1035-4)"><text
           transform="matrix(1,0,0,-1,612.74,227.3)"
           style="font-variant:normal;font-weight:normal;font-size:18px;font-family:'Cambria Math';-inkscape-font-specification:CambriaMath;writing-mode:lr-tb;fill:#000000;fill-opacity:1;fill-rule:nonzero;stroke:none"
           id="text1039"><tspan
             x="0"
             y="0"
             id="tspan1037">R</tspan></text></g></g><g
       id="g1041"
       transform="translate(-459.91203,1.83843)"><g
         id="g1043"
         clip-path="url(#clipPath1047-6)"><text
           transform="matrix(1,0,0,-1,624.62,223.58)"
           style="font-variant:normal;font-weight:normal;font-size:13.2px;font-family:'Cambria Math';-inkscape-font-specification:CambriaMath;writing-mode:lr-tb;fill:#000000;fill-opacity:1;fill-rule:nonzero;stroke:none"
           id="text1051"><tspan
             x="0 8.382 16.566 20.6448 24.7236 32.973598 40.906799 52.3116"
             y="0"
             sodipodi:role="line"
             id="tspan1049">Pulldown</tspan></text></g></g><g
       id="g1053"
       transform="translate(-459.91203,1.83843)"><g
         id="g1055"
         clip-path="url(#clipPath1059-8)"><path
           d="M 583.68,162.84 H 609.6 V 168 h -25.92 z"
           style="fill:#000000;fill-opacity:1;fill-rule:evenodd;stroke:none"
           id="path1061" /></g></g><path
       d="m 134.92797,167.19843 h 3.6 v 34.56 h -3.6 z"
       style="fill:#000000;fill-opacity:1;fill-rule:evenodd;stroke:none;stroke-width:0.999998"
       id="path1063" /><g
       id="g1065"
       transform="translate(-459.91203,1.83843)"><g
         id="g1067"
         clip-path="url(#clipPath1071-5)"><text
           transform="matrix(1,0,0,-1,614.69,161.45)"
           style="font-variant:normal;font-weight:normal;font-size:18px;font-family:'Cambria Math';-inkscape-font-specification:CambriaMath;writing-mode:lr-tb;fill:#000000;fill-opacity:1;fill-rule:nonzero;stroke:none"
           id="text1075"><tspan
             x="0 11.052 23.309999"
             y="0"
             sodipodi:role="line"
             id="tspan1073">GND</tspan></text></g></g><g
       id="g1077"
       transform="translate(-459.91203,1.83843)"><g
         id="g1079"
         clip-path="url(#clipPath1083-7)"><text
           transform="matrix(1,0,0,-1,707.74,399.5)"
           style="font-variant:normal;font-weight:normal;font-size:18px;font-family:'Cambria Math';-inkscape-font-specification:CambriaMath;writing-mode:lr-tb;fill:#000000;fill-opacity:1;fill-rule:nonzero;stroke:none"
           id="text1087"><tspan
             x="0"
             y="0"
             id="tspan1085">+</tspan></text></g></g><g
       id="g1089"
       transform="translate(-459.91203,1.83843)"><g
         id="g1091"
         clip-path="url(#clipPath1095-9)"><text
           transform="matrix(1,0,0,-1,721.18,399.5)"
           style="font-variant:normal;font-weight:normal;font-size:18px;font-family:'Cambria Math';-inkscape-font-specification:CambriaMath;writing-mode:lr-tb;fill:#000000;fill-opacity:1;fill-rule:nonzero;stroke:none"
           id="text1099"><tspan
             x="0 10.872 21.006001"
             y="0"
             sodipodi:role="line"
             id="tspan1097">VCC</tspan></text></g></g><g
       id="g1101"
       transform="translate(-459.91203,1.83843)"><g
         id="g1103"
         clip-path="url(#clipPath1107-4)"><text
           transform="matrix(1,0,0,-1,752.93,299.5)"
           style="font-variant:normal;font-weight:normal;font-size:18px;font-family:'Cambria Math';-inkscape-font-specification:CambriaMath;writing-mode:lr-tb;fill:#000000;fill-opacity:1;fill-rule:nonzero;stroke:none"
           id="text1111"><tspan
             x="0 10.998 21.222 27.108"
             y="0"
             sodipodi:role="line"
             id="tspan1109">GPIO</tspan></text></g></g></g></svg>
